Atma-Medium.ufo
<glyph name="exclam" format="1">
  <advance width="242"/>
  <unicode hex="0021"/>
  <outline>
    <contour>
      <point x="78" y="218" type="qcurve"/>
      <point x="69" y="337"/>
      <point x="61" y="541"/>
      <point x="61" y="661" type="qcurve" smooth="yes"/>
      <point x="61" y="673"/>
      <point x="62" y="703"/>
      <point x="63" y="719" type="qcurve"/>
      <point x="82" y="728"/>
      <point x="116" y="737"/>
      <point x="134" y="737" type="qcurve" smooth="yes"/>
      <point x="145" y="737"/>
      <point x="167" y="734"/>
      <point x="180" y="730" type="qcurve"/>
      <point x="166" y="615"/>
      <point x="154" y="342"/>
      <point x="158" y="216" type="qcurve"/>
      <point x="152" y="214"/>
      <point x="137" y="213"/>
      <point x="127" y="213" type="qcurve" smooth="yes"/>
      <point x="114" y="213"/>
      <point x="89" y="216"/>
    </contour>
    <contour>
      <point x="127" y="-11" type="qcurve" smooth="yes"/>
      <point x="113" y="-11"/>
      <point x="86" y="-6"/>
      <point x="75" y="-2" type="qcurve"/>
      <point x="74" y="24"/>
      <point x="74" y="72"/>
      <point x="75" y="95" type="qcurve"/>
      <point x="99" y="96"/>
      <point x="142" y="95"/>
      <point x="172" y="93" type="qcurve"/>
      <point x="174" y="54"/>
      <point x="177" y="4"/>
      <point x="178" y="-6" type="qcurve"/>
      <point x="160" y="-9"/>
      <point x="137" y="-11"/>
    </contour>
  </outline>
</glyph>
<glyph name="parenright" format="1">
  <advance width="373"/>
  <unicode hex="0029"/>
  <outline>
    <contour>
      <point x="-9" y="-114" type="qcurve"/>
      <point x="107" y="-38"/>
      <point x="232" y="190"/>
      <point x="232" y="324" type="qcurve" smooth="yes"/>
      <point x="232" y="455"/>
      <point x="122" y="670"/>
      <point x="13" y="752" type="qcurve"/>
      <point x="28" y="770"/>
      <point x="58" y="794"/>
      <point x="80" y="804" type="qcurve"/>
      <point x="195" y="717"/>
      <point x="320" y="470"/>
      <point x="320" y="330" type="qcurve" smooth="yes"/>
      <point x="320" y="180"/>
      <point x="186" y="-74"/>
      <point x="57" y="-168" type="qcurve"/>
      <point x="39" y="-159"/>
      <point x="6" y="-132"/>
    </contour>
  </outline>
</glyph>
<glyph name="plus" format="1">
  <advance width="397"/>
  <unicode hex="002B"/>
  <outline>
    <contour>
      <point x="237" y="300" type="qcurve"/>
      <point x="236" y="263"/>
      <point x="231" y="197"/>
      <point x="227" y="168" type="qcurve"/>
      <point x="210" y="166"/>
      <point x="175" y="166"/>
      <point x="158" y="168" type="qcurve"/>
      <point x="162" y="201"/>
      <point x="166" y="266"/>
      <point x="167" y="299" type="qcurve"/>
      <point x="124" y="301"/>
      <point x="59" y="306"/>
      <point x="31" y="310" type="qcurve"/>
      <point x="31" y="328"/>
      <point x="34" y="359"/>
      <point x="37" y="379" type="qcurve"/>
      <point x="78" y="374"/>
      <point x="139" y="370"/>
      <point x="167" y="369" type="qcurve"/>
      <point x="166" y="395"/>
      <point x="163" y="456"/>
      <point x="159" y="497" type="qcurve"/>
      <point x="177" y="500"/>
      <point x="210" y="501"/>
      <point x="227" y="500" type="qcurve"/>
      <point x="231" y="472"/>
      <point x="236" y="407"/>
      <point x="237" y="369" type="qcurve"/>
      <point x="268" y="370"/>
      <point x="335" y="374"/>
      <point x="371" y="378" type="qcurve"/>
      <point x="371" y="360"/>
      <point x="366" y="326"/>
      <point x="362" y="310" type="qcurve"/>
      <point x="334" y="306"/>
      <point x="272" y="301"/>
    </contour>
  </outline>
</glyph>
<glyph name="hyphen" format="1">
  <advance width="306"/>
  <unicode hex="002D"/>
  <outline>
    <contour>
      <point x="269" y="240" type="qcurve"/>
      <point x="203" y="230"/>
      <point x="63" y="233"/>
      <point x="28" y="246" type="qcurve"/>
      <point x="27" y="275"/>
      <point x="31" y="313"/>
      <point x="37" y="333" type="qcurve"/>
      <point x="59" y="328"/>
      <point x="131" y="322"/>
      <point x="167" y="322" type="qcurve" smooth="yes"/>
      <point x="209" y="322"/>
      <point x="258" y="324"/>
      <point x="278" y="327" type="qcurve"/>
      <point x="278" y="299"/>
      <point x="274" y="257"/>
    </contour>
  </outline>
</glyph>
<glyph name="period" format="1">
  <advance width="191"/>
  <unicode hex="002E"/>
  <outline>
    <contour>
      <point x="42" y="90" type="qcurve"/>
      <point x="74" y="97"/>
      <point x="131" y="99"/>
      <point x="160" y="94" type="qcurve"/>
      <point x="158" y="56"/>
      <point x="154" y="13"/>
      <point x="151" y="-7" type="qcurve"/>
      <point x="124" y="-10"/>
      <point x="75" y="-10"/>
      <point x="46" y="-7" type="qcurve"/>
      <point x="46" y="-6"/>
      <point x="42" y="64"/>
    </contour>
  </outline>
</glyph>
<glyph name="zero" format="1">
  <advance width="542"/>
  <unicode hex="0030"/>
  <outline>
    <contour>
      <point x="36" y="306" type="qcurve"/>
      <point x="36" y="476"/>
      <point x="180" y="673"/>
      <point x="303" y="673" type="qcurve"/>
      <point x="398" y="673"/>
      <point x="505" y="523"/>
      <point x="505" y="392" type="qcurve"/>
      <point x="505" y="200"/>
      <point x="372" y="-20"/>
      <point x="252" y="-20" type="qcurve" smooth="yes"/>
      <point x="153" y="-20"/>
      <point x="36" y="160"/>
    </contour>
    <contour>
      <point x="396" y="347" type="qcurve" smooth="yes"/>
      <point x="396" y="476"/>
      <point x="340" y="598"/>
      <point x="282" y="598" type="qcurve" smooth="yes"/>
      <point x="220" y="598"/>
      <point x="144" y="447"/>
      <point x="144" y="321" type="qcurve" smooth="yes"/>
      <point x="144" y="203"/>
      <point x="214" y="54"/>
      <point x="271" y="54" type="qcurve" smooth="yes"/>
      <point x="328" y="54"/>
      <point x="396" y="215"/>
    </contour>
  </outline>
</glyph>
<glyph name="three" format="1">
  <advance width="446"/>
  <unicode hex="0033"/>
  <outline>
    <contour>
      <point x="434" y="162" type="qcurve" smooth="yes"/>
      <point x="434" y="67"/>
      <point x="318" y="-57"/>
      <point x="231" y="-57" type="qcurve" smooth="yes"/>
      <point x="143" y="-57"/>
      <point x="36" y="61"/>
      <point x="31" y="167" type="qcurve"/>
      <point x="52" y="176"/>
      <point x="101" y="185"/>
      <point x="129" y="186" type="qcurve"/>
      <point x="129" y="104"/>
      <point x="187" y="10"/>
      <point x="234" y="10" type="qcurve" smooth="yes"/>
      <point x="278" y="10"/>
      <point x="326" y="76"/>
      <point x="326" y="137" type="qcurve" smooth="yes"/>
      <point x="326" y="225"/>
      <point x="224" y="318"/>
      <point x="130" y="314" type="qcurve"/>
      <point x="125" y="337"/>
      <point x="122" y="363"/>
      <point x="122" y="378" type="qcurve"/>
      <point x="181" y="415"/>
      <point x="273" y="497"/>
      <point x="309" y="546" type="qcurve"/>
      <point x="228" y="540"/>
      <point x="89" y="519"/>
      <point x="24" y="503" type="qcurve"/>
      <point x="18" y="522"/>
      <point x="14" y="567"/>
      <point x="16" y="591" type="qcurve"/>
      <point x="112" y="612"/>
      <point x="317" y="636"/>
      <point x="407" y="637" type="qcurve"/>
      <point x="412" y="621"/>
      <point x="418" y="578"/>
      <point x="418" y="552" type="qcurve"/>
      <point x="382" y="496"/>
      <point x="302" y="412"/>
      <point x="244" y="368" type="qcurve"/>
      <point x="338" y="348"/>
      <point x="434" y="244"/>
    </contour>
  </outline>
</glyph>
<glyph name="four" format="1">
  <advance width="539"/>
  <unicode hex="0034"/>
  <outline>
    <contour>
      <point x="378" y="129" type="qcurve"/>
      <point x="375" y="93"/>
      <point x="370" y="11"/>
      <point x="368" y="-37" type="qcurve"/>
      <point x="356" y="-40"/>
      <point x="330" y="-43"/>
      <point x="315" y="-42" type="qcurve" smooth="yes"/>
      <point x="305" y="-42"/>
      <point x="289" y="-40"/>
      <point x="281" y="-37" type="qcurve"/>
      <point x="280" y="5"/>
      <point x="279" y="45"/>
      <point x="279" y="62" type="qcurve" smooth="yes"/>
      <point x="279" y="94"/>
      <point x="279" y="125"/>
      <point x="280" y="139" type="qcurve"/>
      <point x="208" y="147"/>
      <point x="83" y="163"/>
      <point x="32" y="172" type="qcurve"/>
      <point x="28" y="180"/>
      <point x="21" y="199"/>
      <point x="14" y="227" type="qcurve"/>
      <point x="104" y="360"/>
      <point x="212" y="589"/>
      <point x="263" y="755" type="qcurve"/>
      <point x="285" y="754"/>
      <point x="334" y="741"/>
      <point x="367" y="727" type="qcurve"/>
      <point x="318" y="592"/>
      <point x="205" y="358"/>
      <point x="135" y="250" type="qcurve"/>
      <point x="167" y="243"/>
      <point x="239" y="231"/>
      <point x="285" y="224" type="qcurve"/>
      <point x="289" y="281"/>
      <point x="301" y="368"/>
      <point x="308" y="401" type="qcurve"/>
      <point x="319" y="408"/>
      <point x="350" y="414"/>
      <point x="372" y="415" type="qcurve" smooth="yes"/>
      <point x="382" y="416"/>
      <point x="408" y="413"/>
      <point x="423" y="410" type="qcurve"/>
      <point x="412" y="375"/>
      <point x="393" y="276"/>
      <point x="386" y="212" type="qcurve"/>
      <point x="412" y="209"/>
      <point x="474" y="205"/>
      <point x="536" y="201" type="qcurve"/>
      <point x="534" y="179"/>
      <point x="524" y="135"/>
      <point x="516" y="120" type="qcurve"/>
      <point x="483" y="122"/>
      <point x="413" y="126"/>
    </contour>
  </outline>
</glyph>
<glyph name="five" format="1">
  <advance width="453"/>
  <unicode hex="0035"/>
  <outline>
    <contour>
      <point x="411" y="196" type="qcurve" smooth="yes"/>
      <point x="411" y="93"/>
      <point x="300" y="-37"/>
      <point x="211" y="-37" type="qcurve" smooth="yes"/>
      <point x="119" y="-37"/>
      <point x="11" y="88"/>
      <point x="5" y="200" type="qcurve"/>
      <point x="20" y="200"/>
      <point x="54" y="197"/>
      <point x="108" y="188" type="qcurve"/>
      <point x="108" y="111"/>
      <point x="160" y="30"/>
      <point x="209" y="30" type="qcurve" smooth="yes"/>
      <point x="255" y="30"/>
      <point x="303" y="102"/>
      <point x="303" y="172" type="qcurve" smooth="yes"/>
      <point x="303" y="245"/>
      <point x="233" y="331"/>
      <point x="172" y="331" type="qcurve" smooth="yes"/>
      <point x="153" y="331"/>
      <point x="118" y="323"/>
      <point x="102" y="316" type="qcurve"/>
      <point x="90" y="325"/>
      <point x="67" y="348"/>
      <point x="61" y="356" type="qcurve"/>
      <point x="60" y="369"/>
      <point x="59" y="398"/>
      <point x="59" y="428" type="qcurve" smooth="yes"/>
      <point x="59" y="488"/>
      <point x="71" y="615"/>
      <point x="81" y="671" type="qcurve"/>
      <point x="181" y="649"/>
      <point x="340" y="631"/>
      <point x="442" y="629" type="qcurve"/>
      <point x="441" y="605"/>
      <point x="430" y="556"/>
      <point x="421" y="535" type="qcurve"/>
      <point x="349" y="540"/>
      <point x="233" y="555"/>
      <point x="164" y="568" type="qcurve"/>
      <point x="156" y="510"/>
      <point x="151" y="427"/>
      <point x="153" y="395" type="qcurve"/>
      <point x="168" y="401"/>
      <point x="206" y="407"/>
      <point x="225" y="407" type="qcurve" smooth="yes"/>
      <point x="310" y="407"/>
      <point x="411" y="293"/>
    </contour>
  </outline>
</glyph>
<glyph name="six" format="1">
  <advance width="506"/>
  <unicode hex="0036"/>
  <outline>
    <contour>
      <point x="301" y="385" type="qcurve" smooth="yes"/>
      <point x="380" y="385"/>
      <point x="480" y="279"/>
      <point x="480" y="197" type="qcurve" smooth="yes"/>
      <point x="480" y="91"/>
      <point x="359" y="-50"/>
      <point x="258" y="-50" type="qcurve" smooth="yes"/>
      <point x="153" y="-50"/>
      <point x="37" y="132"/>
      <point x="37" y="293" type="qcurve" smooth="yes"/>
      <point x="37" y="476"/>
      <point x="179" y="691"/>
      <point x="300" y="691" type="qcurve" smooth="yes"/>
      <point x="375" y="691"/>
      <point x="464" y="601"/>
      <point x="478" y="512" type="qcurve"/>
      <point x="457" y="500"/>
      <point x="412" y="486"/>
      <point x="384" y="482" type="qcurve"/>
      <point x="376" y="551"/>
      <point x="332" y="615"/>
      <point x="293" y="615" type="qcurve" smooth="yes"/>
      <point x="226" y="615"/>
      <point x="144" y="445"/>
      <point x="144" y="302" type="qcurve" smooth="yes"/>
      <point x="144" y="300"/>
      <point x="144" y="296"/>
      <point x="144" y="294" type="qcurve"/>
      <point x="174" y="339"/>
      <point x="253" y="385"/>
    </contour>
    <contour>
      <point x="152" y="194" type="qcurve"/>
      <point x="164" y="113"/>
      <point x="226" y="24"/>
      <point x="269" y="24" type="qcurve" smooth="yes"/>
      <point x="314" y="24"/>
      <point x="371" y="105"/>
      <point x="371" y="164" type="qcurve" smooth="yes"/>
      <point x="371" y="232"/>
      <point x="315" y="311"/>
      <point x="267" y="311" type="qcurve" smooth="yes"/>
      <point x="231" y="311"/>
      <point x="169" y="249"/>
    </contour>
  </outline>
</glyph>
<glyph name="eight" format="1">
  <advance width="498"/>
  <unicode hex="0038"/>
  <outline>
    <contour>
      <point x="461" y="227" type="qcurve" smooth="yes"/>
      <point x="461" y="126"/>
      <point x="330" y="-6"/>
      <point x="223" y="-6" type="qcurve" smooth="yes"/>
      <point x="139" y="-6"/>
      <point x="36" y="92"/>
      <point x="36" y="170" type="qcurve" smooth="yes"/>
      <point x="36" y="228"/>
      <point x="92" y="326"/>
      <point x="142" y="355" type="qcurve"/>
      <point x="96" y="375"/>
      <point x="42" y="461"/>
      <point x="42" y="515" type="qcurve" smooth="yes"/>
      <point x="42" y="609"/>
      <point x="165" y="723"/>
      <point x="267" y="723" type="qcurve" smooth="yes"/>
      <point x="349" y="723"/>
      <point x="451" y="634"/>
      <point x="451" y="563" type="qcurve" smooth="yes"/>
      <point x="451" y="501"/>
      <point x="401" y="403"/>
      <point x="355" y="375" type="qcurve"/>
      <point x="404" y="355"/>
      <point x="461" y="277"/>
    </contour>
    <contour>
      <point x="246" y="398" type="qcurve" smooth="yes"/>
      <point x="290" y="398"/>
      <point x="343" y="473"/>
      <point x="343" y="533" type="qcurve" smooth="yes"/>
      <point x="343" y="592"/>
      <point x="294" y="658"/>
      <point x="251" y="658" type="qcurve" smooth="yes"/>
      <point x="207" y="658"/>
      <point x="150" y="580"/>
      <point x="150" y="521" type="qcurve" smooth="yes"/>
      <point x="150" y="466"/>
      <point x="201" y="398"/>
    </contour>
    <contour>
      <point x="241" y="58" type="qcurve" smooth="yes"/>
      <point x="290" y="58"/>
      <point x="353" y="147"/>
      <point x="353" y="214" type="qcurve" smooth="yes"/>
      <point x="353" y="267"/>
      <point x="300" y="331"/>
      <point x="255" y="331" type="qcurve" smooth="yes"/>
      <point x="208" y="331"/>
      <point x="143" y="249"/>
      <point x="143" y="186" type="qcurve" smooth="yes"/>
      <point x="143" y="128"/>
      <point x="197" y="58"/>
    </contour>
  </outline>
</glyph>
<glyph name="colon" format="1">
  <advance width="195"/>
  <unicode hex="003A"/>
  <outline>
    <contour>
      <point x="102" y="548" type="qcurve" smooth="yes"/>
      <point x="117" y="548"/>
      <point x="145" y="544"/>
      <point x="157" y="540" type="qcurve"/>
      <point x="158" y="508"/>
      <point x="157" y="457"/>
      <point x="156" y="438" type="qcurve"/>
      <point x="125" y="437"/>
      <point x="73" y="439"/>
      <point x="44" y="441" type="qcurve"/>
      <point x="43" y="452"/>
      <point x="42" y="475"/>
      <point x="41" y="497" type="qcurve" smooth="yes"/>
      <point x="40" y="515"/>
      <point x="38" y="533"/>
      <point x="38" y="542" type="qcurve"/>
      <point x="53" y="545"/>
      <point x="85" y="548"/>
    </contour>
    <contour>
      <point x="44" y="96" type="qcurve"/>
      <point x="75" y="101"/>
      <point x="134" y="103"/>
      <point x="163" y="101" type="qcurve"/>
      <point x="163" y="57"/>
      <point x="162" y="15"/>
      <point x="160" y="-5" type="qcurve"/>
      <point x="129" y="-6"/>
      <point x="67" y="-4"/>
      <point x="47" y="0" type="qcurve"/>
      <point x="47" y="8"/>
      <point x="46" y="24"/>
      <point x="46" y="39" type="qcurve" smooth="yes"/>
      <point x="45" y="61"/>
      <point x="44" y="84"/>
    </contour>
  </outline>
</glyph>
<glyph name="equal" format="1">
  <advance width="397"/>
  <unicode hex="003D"/>
  <outline>
    <contour>
      <point x="34" y="358" type="qcurve"/>
      <point x="34" y="376"/>
      <point x="37" y="408"/>
      <point x="40" y="428" type="qcurve"/>
      <point x="118" y="418"/>
      <point x="276" y="417"/>
      <point x="374" y="426" type="qcurve"/>
      <point x="374" y="409"/>
      <point x="369" y="374"/>
      <point x="365" y="358" type="qcurve"/>
      <point x="289" y="348"/>
      <point x="113" y="348"/>
    </contour>
    <contour>
      <point x="22" y="221" type="qcurve"/>
      <point x="22" y="239"/>
      <point x="25" y="271"/>
      <point x="28" y="291" type="qcurve"/>
      <point x="107" y="281"/>
      <point x="265" y="280"/>
      <point x="362" y="289" type="qcurve"/>
      <point x="362" y="269"/>
      <point x="358" y="236"/>
      <point x="354" y="221" type="qcurve"/>
      <point x="278" y="211"/>
      <point x="101" y="211"/>
    </contour>
  </outline>
</glyph>
<glyph name="question" format="1">
  <advance width="423"/>
  <unicode hex="003F"/>
  <outline>
    <contour>
      <point x="230" y="218" type="qcurve"/>
      <point x="218" y="216"/>
      <point x="180" y="213"/>
      <point x="155" y="213" type="qcurve"/>
      <point x="147" y="277"/>
      <point x="139" y="361"/>
      <point x="138" y="395" type="qcurve"/>
      <point x="210" y="410"/>
      <point x="285" y="501"/>
      <point x="285" y="571" type="qcurve" smooth="yes"/>
      <point x="285" y="630"/>
      <point x="242" y="698"/>
      <point x="204" y="698" type="qcurve" smooth="yes"/>
      <point x="160" y="698"/>
      <point x="111" y="608"/>
      <point x="111" y="528" type="qcurve"/>
      <point x="84" y="528"/>
      <point x="35" y="537"/>
      <point x="15" y="545" type="qcurve"/>
      <point x="21" y="653"/>
      <point x="120" y="763"/>
      <point x="210" y="763" type="qcurve" smooth="yes"/>
      <point x="291" y="763"/>
      <point x="394" y="657"/>
      <point x="394" y="573" type="qcurve" smooth="yes"/>
      <point x="394" y="500"/>
      <point x="309" y="392"/>
      <point x="232" y="368" type="qcurve"/>
      <point x="232" y="348"/>
      <point x="231" y="300"/>
    </contour>
    <contour>
      <point x="249" y="48" type="qcurve" smooth="yes"/>
      <point x="251" y="29"/>
      <point x="252" y="8"/>
      <point x="253" y="-2" type="qcurve"/>
      <point x="241" y="-5"/>
      <point x="218" y="-8"/>
      <point x="202" y="-8" type="qcurve" smooth="yes"/>
      <point x="190" y="-9"/>
      <point x="164" y="-5"/>
      <point x="151" y="-1" type="qcurve"/>
      <point x="149" y="21"/>
      <point x="148" y="69"/>
      <point x="149" y="96" type="qcurve"/>
      <point x="168" y="97"/>
      <point x="203" y="97"/>
      <point x="246" y="96" type="qcurve"/>
      <point x="247" y="87"/>
      <point x="248" y="67"/>
    </contour>
  </outline>
</glyph>
<glyph name="A" format="1">
  <advance width="628"/>
  <unicode hex="0041"/>
  <outline>
    <contour>
      <point x="613" y="-74" type="qcurve"/>
      <point x="592" y="-86"/>
      <point x="542" y="-102"/>
      <point x="507" y="-107" type="qcurve"/>
      <point x="495" y="-22"/>
      <point x="467" y="131"/>
      <point x="450" y="201" type="qcurve"/>
      <point x="379" y="201"/>
      <point x="251" y="192"/>
      <point x="197" y="184" type="qcurve"/>
      <point x="176" y="131"/>
      <point x="129" y="27"/>
      <point x="103" y="-24" type="qcurve"/>
      <point x="75" y="-19"/>
      <point x="30" y="6"/>
      <point x="13" y="24" type="qcurve"/>
      <point x="99" y="178"/>
      <point x="212" y="477"/>
      <point x="267" y="706" type="qcurve"/>
      <point x="300" y="705"/>
      <point x="346" y="700"/>
      <point x="369" y="694" type="qcurve"/>
      <point x="465" y="519"/>
      <point x="577" y="163"/>
    </contour>
    <contour>
      <point x="318" y="581" type="qcurve"/>
      <point x="296" y="488"/>
      <point x="251" y="332"/>
      <point x="226" y="262" type="qcurve"/>
      <point x="279" y="269"/>
      <point x="382" y="277"/>
      <point x="430" y="278" type="qcurve"/>
      <point x="408" y="359"/>
      <point x="353" y="508"/>
    </contour>
    <contour>
      <point x="309" y="745" type="move" name="top"/>
    </contour>
  </outline>
</glyph>
<glyph name="B" format="1">
  <advance width="590"/>
  <unicode hex="0042"/>
  <outline>
    <contour>
      <point x="555" y="261" type="qcurve" smooth="yes"/>
      <point x="555" y="144"/>
      <point x="373" y="-20"/>
      <point x="242" y="-20" type="qcurve" smooth="yes"/>
      <point x="202" y="-20"/>
      <point x="122" y="2"/>
      <point x="91" y="21" type="qcurve"/>
      <point x="82" y="178"/>
      <point x="74" y="408"/>
      <point x="74" y="538" type="qcurve" smooth="yes"/>
      <point x="74" y="548"/>
      <point x="73" y="657"/>
      <point x="74" y="697" type="qcurve"/>
      <point x="119" y="718"/>
      <point x="218" y="740"/>
      <point x="269" y="740" type="qcurve"/>
      <point x="382" y="740"/>
      <point x="505" y="654"/>
      <point x="505" y="577" type="qcurve" smooth="yes"/>
      <point x="505" y="525"/>
      <point x="452" y="445"/>
      <point x="399" y="418" type="qcurve"/>
      <point x="474" y="404"/>
      <point x="555" y="323"/>
    </contour>
    <contour>
      <point x="398" y="563" type="qcurve" smooth="yes"/>
      <point x="398" y="616"/>
      <point x="328" y="672"/>
      <point x="262" y="672" type="qcurve" smooth="yes"/>
      <point x="247" y="672"/>
      <point x="209" y="667"/>
      <point x="188" y="662" type="qcurve"/>
      <point x="184" y="608"/>
      <point x="179" y="490"/>
      <point x="178" y="410" type="qcurve"/>
      <point x="291" y="422"/>
      <point x="398" y="496"/>
    </contour>
    <contour>
      <point x="181" y="67" type="qcurve"/>
      <point x="200" y="59"/>
      <point x="236" y="51"/>
      <point x="254" y="51" type="qcurve" smooth="yes"/>
      <point x="332" y="51"/>
      <point x="445" y="163"/>
      <point x="445" y="237" type="qcurve" smooth="yes"/>
      <point x="445" y="298"/>
      <point x="376" y="357"/>
      <point x="306" y="357" type="qcurve" smooth="yes"/>
      <point x="279" y="357"/>
      <point x="209" y="343"/>
      <point x="177" y="332" type="qcurve"/>
      <point x="177" y="311"/>
      <point x="177" y="270"/>
      <point x="177" y="249" type="qcurve" smooth="yes"/>
      <point x="177" y="211"/>
      <point x="179" y="135"/>
    </contour>
  </outline>
</glyph>
<glyph name="C" format="1">
  <advance width="564"/>
  <unicode hex="0043"/>
  <outline>
    <contour>
      <point x="427" y="225" type="qcurve"/>
      <point x="452" y="227"/>
      <point x="496" y="218"/>
      <point x="512" y="208" type="qcurve"/>
      <point x="506" y="90"/>
      <point x="387" y="-35"/>
      <point x="280" y="-35" type="qcurve" smooth="yes"/>
      <point x="168" y="-35"/>
      <point x="43" y="127"/>
      <point x="43" y="276" type="qcurve" smooth="yes"/>
      <point x="43" y="459"/>
      <point x="207" y="693"/>
      <point x="338" y="693" type="qcurve" smooth="yes"/>
      <point x="426" y="693"/>
      <point x="516" y="579"/>
      <point x="516" y="467" type="qcurve"/>
      <point x="494" y="455"/>
      <point x="447" y="445"/>
      <point x="412" y="445" type="qcurve"/>
      <point x="417" y="536"/>
      <point x="373" y="620"/>
      <point x="319" y="620" type="qcurve" smooth="yes"/>
      <point x="252" y="620"/>
      <point x="159" y="439"/>
      <point x="159" y="300" type="qcurve" smooth="yes"/>
      <point x="159" y="174"/>
      <point x="232" y="39"/>
      <point x="301" y="39" type="qcurve" smooth="yes"/>
      <point x="364" y="39"/>
      <point x="432" y="139"/>
    </contour>
  </outline>
</glyph>
<glyph name="D" format="1">
  <advance width="589"/>
  <unicode hex="0044"/>
  <outline>
    <contour>
      <point x="553" y="443" type="qcurve" smooth="yes"/>
      <point x="553" y="294"/>
      <point x="342" y="43"/>
      <point x="171" y="-10" type="qcurve"/>
      <point x="156" y="-10"/>
      <point x="93" y="-4"/>
      <point x="79" y="-1" type="qcurve"/>
      <point x="68" y="160"/>
      <point x="59" y="397"/>
      <point x="59" y="508" type="qcurve" smooth="yes"/>
      <point x="59" y="548"/>
      <point x="61" y="635"/>
      <point x="62" y="671" type="qcurve"/>
      <point x="112" y="695"/>
      <point x="209" y="717"/>
      <point x="263" y="717" type="qcurve" smooth="yes"/>
      <point x="405" y="717"/>
      <point x="553" y="576"/>
    </contour>
    <contour>
      <point x="177" y="633" type="qcurve"/>
      <point x="170" y="534"/>
      <point x="165" y="362"/>
      <point x="165" y="220" type="qcurve" smooth="yes"/>
      <point x="165" y="189"/>
      <point x="166" y="125"/>
      <point x="167" y="69" type="qcurve"/>
      <point x="302" y="122"/>
      <point x="442" y="313"/>
      <point x="442" y="444" type="qcurve" smooth="yes"/>
      <point x="442" y="541"/>
      <point x="342" y="645"/>
      <point x="248" y="645" type="qcurve" smooth="yes"/>
      <point x="232" y="645"/>
      <point x="198" y="639"/>
    </contour>
  </outline>
</glyph>
<glyph name="F" format="1">
  <advance width="520"/>
  <unicode hex="0046"/>
  <outline>
    <contour>
      <point x="205" y="-70" type="qcurve"/>
      <point x="184" y="-75"/>
      <point x="135" y="-80"/>
      <point x="106" y="-80" type="qcurve"/>
      <point x="109" y="139"/>
      <point x="84" y="554"/>
      <point x="56" y="720" type="qcurve"/>
      <point x="162" y="728"/>
      <point x="339" y="750"/>
      <point x="473" y="774" type="qcurve"/>
      <point x="476" y="764"/>
      <point x="480" y="740"/>
      <point x="481" y="728" type="qcurve" smooth="yes"/>
      <point x="482" y="718"/>
      <point x="480" y="697"/>
      <point x="478" y="681" type="qcurve"/>
      <point x="358" y="663"/>
      <point x="240" y="649"/>
      <point x="186" y="645" type="qcurve"/>
      <point x="192" y="594"/>
      <point x="202" y="479"/>
      <point x="205" y="414" type="qcurve"/>
      <point x="258" y="425"/>
      <point x="362" y="438"/>
      <point x="415" y="440" type="qcurve"/>
      <point x="420" y="421"/>
      <point x="424" y="382"/>
      <point x="424" y="354" type="qcurve"/>
      <point x="373" y="352"/>
      <point x="263" y="342"/>
      <point x="207" y="335" type="qcurve"/>
      <point x="207" y="333"/>
      <point x="207" y="329"/>
      <point x="207" y="327" type="qcurve" smooth="yes"/>
      <point x="209" y="205"/>
      <point x="208" y="26"/>
    </contour>
  </outline>
</glyph>
<glyph name="G" format="1">
  <advance width="586"/>
  <unicode hex="0047"/>
  <outline>
    <contour>
      <point x="513" y="349" type="qcurve"/>
      <point x="511" y="252"/>
      <point x="535" y="72"/>
      <point x="562" y="-19" type="qcurve"/>
      <point x="545" y="-24"/>
      <point x="503" y="-29"/>
      <point x="481" y="-30" type="qcurve"/>
      <point x="468" y="0"/>
      <point x="446" y="64"/>
      <point x="437" y="99" type="qcurve"/>
      <point x="401" y="38"/>
      <point x="307" y="-21"/>
      <point x="246" y="-21" type="qcurve" smooth="yes"/>
      <point x="153" y="-21"/>
      <point x="43" y="146"/>
      <point x="43" y="290" type="qcurve" smooth="yes"/>
      <point x="43" y="480"/>
      <point x="198" y="724"/>
      <point x="321" y="724" type="qcurve" smooth="yes"/>
      <point x="406" y="724"/>
      <point x="505" y="600"/>
      <point x="507" y="494" type="qcurve"/>
      <point x="483" y="487"/>
      <point x="430" y="479"/>
      <point x="398" y="478" type="qcurve"/>
      <point x="394" y="565"/>
      <point x="344" y="651"/>
      <point x="299" y="651" type="qcurve" smooth="yes"/>
      <point x="236" y="651"/>
      <point x="155" y="467"/>
      <point x="155" y="323" type="qcurve" smooth="yes"/>
      <point x="155" y="198"/>
      <point x="218" y="64"/>
      <point x="275" y="64" type="qcurve" smooth="yes"/>
      <point x="322" y="64"/>
      <point x="393" y="136"/>
      <point x="414" y="205" type="qcurve"/>
      <point x="409" y="232"/>
      <point x="403" y="296"/>
      <point x="400" y="337" type="qcurve"/>
      <point x="425" y="343"/>
      <point x="481" y="349"/>
    </contour>
  </outline>
</glyph>
<glyph name="H" format="1">
  <advance width="623"/>
  <unicode hex="0048"/>
  <outline>
    <contour>
      <point x="534" y="727" type="qcurve"/>
      <point x="543" y="547"/>
      <point x="555" y="98"/>
      <point x="555" y="-56" type="qcurve"/>
      <point x="528" y="-56"/>
      <point x="465" y="-49"/>
      <point x="449" y="-45" type="qcurve"/>
      <point x="449" y="20"/>
      <point x="446" y="218"/>
      <point x="444" y="329" type="qcurve"/>
      <point x="363" y="328"/>
      <point x="231" y="320"/>
      <point x="174" y="312" type="qcurve"/>
      <point x="175" y="215"/>
      <point x="178" y="68"/>
      <point x="181" y="16" type="qcurve"/>
      <point x="163" y="11"/>
      <point x="108" y="5"/>
      <point x="86" y="6" type="qcurve"/>
      <point x="74" y="191"/>
      <point x="61" y="548"/>
      <point x="61" y="698" type="qcurve"/>
      <point x="73" y="705"/>
      <point x="110" y="714"/>
      <point x="131" y="714" type="qcurve" smooth="yes"/>
      <point x="145" y="714"/>
      <point x="171" y="711"/>
      <point x="185" y="707" type="qcurve"/>
      <point x="180" y="658"/>
      <point x="175" y="500"/>
      <point x="174" y="392" type="qcurve"/>
      <point x="239" y="403"/>
      <point x="370" y="414"/>
      <point x="442" y="415" type="qcurve"/>
      <point x="438" y="530"/>
      <point x="431" y="685"/>
      <point x="426" y="733" type="qcurve"/>
      <point x="443" y="738"/>
      <point x="467" y="742"/>
      <point x="480" y="742" type="qcurve" smooth="yes"/>
      <point x="494" y="742"/>
      <point x="523" y="734"/>
    </contour>
  </outline>
</glyph>
<glyph name="J" format="1">
  <advance width="476"/>
  <unicode hex="004A"/>
  <outline>
    <contour>
      <point x="375" y="81" type="qcurve" smooth="yes"/>
      <point x="355" y="-1"/>
      <point x="269" y="-88"/>
      <point x="208" y="-88" type="qcurve" smooth="yes"/>
      <point x="136" y="-88"/>
      <point x="39" y="41"/>
      <point x="28" y="151" type="qcurve"/>
      <point x="45" y="163"/>
      <point x="88" y="180"/>
      <point x="115" y="185" type="qcurve"/>
      <point x="129" y="76"/>
      <point x="169" y="-12"/>
      <point x="207" y="-12" type="qcurve" smooth="yes"/>
      <point x="251" y="-12"/>
      <point x="293" y="105"/>
      <point x="293" y="227" type="qcurve" smooth="yes"/>
      <point x="293" y="333"/>
      <point x="277" y="574"/>
      <point x="262" y="704" type="qcurve"/>
      <point x="274" y="712"/>
      <point x="312" y="722"/>
      <point x="332" y="723" type="qcurve" smooth="yes"/>
      <point x="348" y="724"/>
      <point x="375" y="723"/>
      <point x="387" y="721" type="qcurve"/>
      <point x="397" y="612"/>
      <point x="405" y="467"/>
      <point x="405" y="406" type="qcurve" smooth="yes"/>
      <point x="405" y="294"/>
      <point x="391" y="143"/>
    </contour>
  </outline>
</glyph>
<glyph name="K" format="1">
  <advance width="584"/>
  <unicode hex="004B"/>
  <outline>
    <contour>
      <point x="581" y="-21" type="qcurve"/>
      <point x="563" y="-45"/>
      <point x="521" y="-80"/>
      <point x="493" y="-93" type="qcurve"/>
      <point x="426" y="25"/>
      <point x="310" y="178"/>
      <point x="226" y="260" type="qcurve"/>
      <point x="213" y="250"/>
      <point x="186" y="229"/>
      <point x="172" y="218" type="qcurve"/>
      <point x="174" y="145"/>
      <point x="184" y="14"/>
      <point x="194" y="-61" type="qcurve"/>
      <point x="176" y="-65"/>
      <point x="121" y="-71"/>
      <point x="100" y="-71" type="qcurve"/>
      <point x="80" y="66"/>
      <point x="63" y="300"/>
      <point x="63" y="440" type="qcurve" smooth="yes"/>
      <point x="63" y="488"/>
      <point x="68" y="608"/>
      <point x="73" y="689" type="qcurve"/>
      <point x="89" y="696"/>
      <point x="127" y="704"/>
      <point x="145" y="704" type="qcurve" smooth="yes"/>
      <point x="158" y="704"/>
      <point x="185" y="701"/>
      <point x="199" y="697" type="qcurve"/>
      <point x="185" y="609"/>
      <point x="171" y="426"/>
      <point x="171" y="316" type="qcurve" smooth="yes"/>
      <point x="171" y="313"/>
      <point x="171" y="308"/>
      <point x="171" y="305" type="qcurve"/>
      <point x="260" y="388"/>
      <point x="372" y="547"/>
      <point x="439" y="691" type="qcurve"/>
      <point x="461" y="683"/>
      <point x="502" y="652"/>
      <point x="524" y="627" type="qcurve"/>
      <point x="468" y="525"/>
      <point x="363" y="383"/>
      <point x="297" y="322" type="qcurve"/>
      <point x="381" y="247"/>
      <point x="501" y="102"/>
    </contour>
  </outline>
</glyph>
<glyph name="L" format="1">
  <advance width="492"/>
  <unicode hex="004C"/>
  <outline>
    <contour>
      <point x="475" y="14" type="qcurve"/>
      <point x="479" y="-2"/>
      <point x="486" y="-55"/>
      <point x="486" y="-72" type="qcurve"/>
      <point x="389" y="-73"/>
      <point x="225" y="-85"/>
      <point x="119" y="-100" type="qcurve"/>
      <point x="92" y="87"/>
      <point x="65" y="494"/>
      <point x="69" y="661" type="qcurve"/>
      <point x="93" y="668"/>
      <point x="136" y="674"/>
      <point x="159" y="674" type="qcurve" smooth="yes"/>
      <point x="166" y="674"/>
      <point x="182" y="673"/>
      <point x="191" y="672" type="qcurve"/>
      <point x="185" y="617"/>
      <point x="180" y="480"/>
      <point x="180" y="381" type="qcurve" smooth="yes"/>
      <point x="182" y="248"/>
      <point x="195" y="71"/>
      <point x="207" y="-11" type="qcurve"/>
      <point x="273" y="1"/>
      <point x="413" y="14"/>
    </contour>
  </outline>
</glyph>
<glyph name="M" format="1">
  <advance width="763"/>
  <unicode hex="004D"/>
  <outline>
    <contour>
      <point x="692" y="-36" type="qcurve"/>
      <point x="666" y="-46"/>
      <point x="614" y="-55"/>
      <point x="583" y="-55" type="qcurve"/>
      <point x="593" y="86"/>
      <point x="602" y="400"/>
      <point x="601" y="593" type="qcurve"/>
      <point x="545" y="500"/>
      <point x="456" y="301"/>
      <point x="418" y="186" type="qcurve"/>
      <point x="403" y="181"/>
      <point x="366" y="179"/>
      <point x="349" y="181" type="qcurve"/>
      <point x="309" y="297"/>
      <point x="218" y="492"/>
      <point x="163" y="580" type="qcurve"/>
      <point x="162" y="566"/>
      <point x="162" y="532"/>
      <point x="162" y="495" type="qcurve" smooth="yes"/>
      <point x="162" y="383"/>
      <point x="187" y="133"/>
      <point x="211" y="8" type="qcurve"/>
      <point x="195" y="3"/>
      <point x="140" y="-4"/>
      <point x="112" y="-4" type="qcurve"/>
      <point x="88" y="149"/>
      <point x="64" y="548"/>
      <point x="69" y="716" type="qcurve"/>
      <point x="94" y="732"/>
      <point x="148" y="754"/>
      <point x="173" y="758" type="qcurve"/>
      <point x="242" y="662"/>
      <point x="354" y="442"/>
      <point x="391" y="330" type="qcurve"/>
      <point x="427" y="436"/>
      <point x="529" y="646"/>
      <point x="598" y="758" type="qcurve"/>
      <point x="623" y="754"/>
      <point x="670" y="740"/>
      <point x="690" y="730" type="qcurve"/>
      <point x="697" y="588"/>
      <point x="698" y="182"/>
    </contour>
  </outline>
</glyph>
<glyph name="N" format="1">
  <advance width="648"/>
  <unicode hex="004E"/>
  <outline>
    <contour>
      <point x="176" y="293" type="qcurve" smooth="yes"/>
      <point x="177" y="226"/>
      <point x="185" y="67"/>
      <point x="191" y="-30" type="qcurve"/>
      <point x="174" y="-35"/>
      <point x="125" y="-41"/>
      <point x="103" y="-41" type="qcurve"/>
      <point x="83" y="190"/>
      <point x="65" y="523"/>
      <point x="65" y="672" type="qcurve"/>
      <point x="67" y="673"/>
      <point x="70" y="674"/>
      <point x="71" y="675" type="qcurve"/>
      <point x="97" y="688"/>
      <point x="150" y="702"/>
      <point x="184" y="706" type="qcurve"/>
      <point x="276" y="584"/>
      <point x="415" y="339"/>
      <point x="475" y="192" type="qcurve"/>
      <point x="476" y="219"/>
      <point x="477" y="284"/>
      <point x="477" y="352" type="qcurve" smooth="yes"/>
      <point x="477" y="485"/>
      <point x="468" y="680"/>
      <point x="459" y="739" type="qcurve"/>
      <point x="492" y="749"/>
      <point x="545" y="757"/>
      <point x="572" y="758" type="qcurve"/>
      <point x="576" y="674"/>
      <point x="578" y="588"/>
      <point x="578" y="549" type="qcurve" smooth="yes"/>
      <point x="578" y="399"/>
      <point x="568" y="154"/>
      <point x="557" y="26" type="qcurve"/>
      <point x="532" y="22"/>
      <point x="487" y="16"/>
      <point x="465" y="15" type="qcurve"/>
      <point x="391" y="188"/>
      <point x="252" y="440"/>
      <point x="175" y="541" type="qcurve"/>
      <point x="175" y="503"/>
      <point x="175" y="411"/>
    </contour>
  </outline>
</glyph>
<glyph name="O" format="1">
  <advance width="611"/>
  <unicode hex="004F"/>
  <outline>
    <contour>
      <point x="336" y="733" type="qcurve" smooth="yes"/>
      <point x="449" y="733"/>
      <point x="568" y="563"/>
      <point x="568" y="403" type="qcurve" smooth="yes"/>
      <point x="568" y="330"/>
      <point x="534" y="184"/>
      <point x="503" y="127" type="qcurve" smooth="yes"/>
      <point x="464" y="55"/>
      <point x="348" y="-20"/>
      <point x="275" y="-20" type="qcurve" smooth="yes"/>
      <point x="168" y="-20"/>
      <point x="39" y="177"/>
      <point x="39" y="335" type="qcurve" smooth="yes"/>
      <point x="39" y="509"/>
      <point x="205" y="733"/>
    </contour>
    <contour>
      <point x="291" y="56" type="qcurve" smooth="yes"/>
      <point x="369" y="56"/>
      <point x="456" y="233"/>
      <point x="456" y="377" type="qcurve" smooth="yes"/>
      <point x="456" y="522"/>
      <point x="389" y="656"/>
      <point x="316" y="656" type="qcurve" smooth="yes"/>
      <point x="243" y="656"/>
      <point x="151" y="487"/>
      <point x="151" y="351" type="qcurve" smooth="yes"/>
      <point x="151" y="222"/>
      <point x="226" y="56"/>
    </contour>
  </outline>
</glyph>
<glyph name="P" format="1">
  <advance width="570"/>
  <unicode hex="0050"/>
  <outline>
    <contour>
      <point x="171" y="227" type="qcurve"/>
      <point x="172" y="160"/>
      <point x="179" y="23"/>
      <point x="186" y="-68" type="qcurve"/>
      <point x="165" y="-69"/>
      <point x="110" y="-65"/>
      <point x="94" y="-62" type="qcurve"/>
      <point x="78" y="111"/>
      <point x="66" y="371"/>
      <point x="66" y="538" type="qcurve" smooth="yes"/>
      <point x="66" y="574"/>
      <point x="70" y="671"/>
      <point x="73" y="708" type="qcurve"/>
      <point x="122" y="725"/>
      <point x="226" y="742"/>
      <point x="276" y="742" type="qcurve" smooth="yes"/>
      <point x="398" y="742"/>
      <point x="531" y="639"/>
      <point x="531" y="547" type="qcurve" smooth="yes"/>
      <point x="531" y="441"/>
      <point x="350" y="280"/>
    </contour>
    <contour>
      <point x="187" y="662" type="qcurve"/>
      <point x="179" y="578"/>
      <point x="171" y="411"/>
      <point x="171" y="309" type="qcurve"/>
      <point x="171" y="308"/>
      <point x="171" y="305"/>
      <point x="171" y="303" type="qcurve"/>
      <point x="294" y="335"/>
      <point x="420" y="450"/>
      <point x="420" y="531" type="qcurve" smooth="yes"/>
      <point x="420" y="599"/>
      <point x="340" y="673"/>
      <point x="265" y="673" type="qcurve" smooth="yes"/>
      <point x="245" y="673"/>
      <point x="205" y="667"/>
    </contour>
  </outline>
</glyph>
<glyph name="T" format="1">
  <advance width="588"/>
  <unicode hex="0054"/>
  <outline>
    <contour>
      <point x="370" y="36" type="qcurve"/>
      <point x="350" y="30"/>
      <point x="299" y="24"/>
      <point x="271" y="24" type="qcurve"/>
      <point x="275" y="177"/>
      <point x="256" y="537"/>
      <point x="237" y="682" type="qcurve"/>
      <point x="190" y="677"/>
      <point x="89" y="665"/>
      <point x="31" y="657" type="qcurve"/>
      <point x="25" y="676"/>
      <point x="19" y="719"/>
      <point x="19" y="741" type="qcurve"/>
      <point x="172" y="768"/>
      <point x="408" y="791"/>
      <point x="554" y="792" type="qcurve"/>
      <point x="557" y="782"/>
      <point x="561" y="759"/>
      <point x="562" y="744" type="qcurve" smooth="yes"/>
      <point x="562" y="736"/>
      <point x="561" y="718"/>
      <point x="558" y="699" type="qcurve"/>
      <point x="497" y="698"/>
      <point x="400" y="695"/>
      <point x="356" y="692" type="qcurve"/>
      <point x="367" y="583"/>
      <point x="378" y="375"/>
      <point x="378" y="259" type="qcurve" smooth="yes"/>
      <point x="378" y="207"/>
      <point x="374" y="95"/>
    </contour>
  </outline>
</glyph>
<glyph name="W" format="1">
  <advance width="788"/>
  <unicode hex="0057"/>
  <outline>
    <contour>
      <point x="389" y="343" type="qcurve"/>
      <point x="366" y="235"/>
      <point x="306" y="43"/>
      <point x="265" y="-54" type="qcurve"/>
      <point x="243" y="-60"/>
      <point x="201" y="-67"/>
      <point x="182" y="-68" type="qcurve"/>
      <point x="108" y="154"/>
      <point x="33" y="471"/>
      <point x="11" y="651" type="qcurve"/>
      <point x="38" y="660"/>
      <point x="95" y="671"/>
      <point x="127" y="672" type="qcurve"/>
      <point x="137" y="533"/>
      <point x="190" y="254"/>
      <point x="238" y="81" type="qcurve"/>
      <point x="284" y="217"/>
      <point x="333" y="426"/>
      <point x="348" y="542" type="qcurve"/>
      <point x="375" y="548"/>
      <point x="435" y="556"/>
      <point x="459" y="556" type="qcurve"/>
      <point x="468" y="429"/>
      <point x="503" y="216"/>
      <point x="533" y="99" type="qcurve"/>
      <point x="594" y="256"/>
      <point x="664" y="547"/>
      <point x="681" y="710" type="qcurve"/>
      <point x="709" y="709"/>
      <point x="760" y="692"/>
      <point x="782" y="677" type="qcurve"/>
      <point x="751" y="482"/>
      <point x="644" y="147"/>
      <point x="558" y="-27" type="qcurve"/>
      <point x="538" y="-31"/>
      <point x="500" y="-36"/>
      <point x="477" y="-37" type="qcurve"/>
      <point x="433" y="119"/>
      <point x="398" y="275"/>
    </contour>
  </outline>
</glyph>
<glyph name="X" format="1">
  <advance width="643"/>
  <unicode hex="0058"/>
  <outline>
    <contour>
      <point x="587" y="19" type="qcurve"/>
      <point x="574" y="5"/>
      <point x="533" y="-23"/>
      <point x="509" y="-35" type="qcurve"/>
      <point x="461" y="75"/>
      <point x="377" y="246"/>
      <point x="337" y="317" type="qcurve"/>
      <point x="269" y="232"/>
      <point x="140" y="86"/>
      <point x="68" y="14" type="qcurve"/>
      <point x="52" y="24"/>
      <point x="20" y="55"/>
      <point x="11" y="69" type="qcurve"/>
      <point x="112" y="180"/>
      <point x="235" y="327"/>
      <point x="289" y="398" type="qcurve"/>
      <point x="238" y="483"/>
      <point x="123" y="634"/>
      <point x="54" y="708" type="qcurve"/>
      <point x="77" y="728"/>
      <point x="130" y="762"/>
      <point x="157" y="773" type="qcurve"/>
      <point x="222" y="691"/>
      <point x="321" y="550"/>
      <point x="362" y="483" type="qcurve"/>
      <point x="412" y="554"/>
      <point x="492" y="683"/>
      <point x="527" y="748" type="qcurve"/>
      <point x="548" y="738"/>
      <point x="590" y="702"/>
      <point x="604" y="681" type="qcurve"/>
      <point x="564" y="617"/>
      <point x="470" y="483"/>
      <point x="408" y="402" type="qcurve"/>
      <point x="451" y="325"/>
      <point x="536" y="143"/>
    </contour>
  </outline>
</glyph>
<glyph name="Y" format="1">
  <advance width="525"/>
  <unicode hex="0059"/>
  <outline>
    <contour>
      <point x="497" y="679" type="qcurve"/>
      <point x="426" y="397"/>
      <point x="281" y="55"/>
      <point x="179" y="-88" type="qcurve"/>
      <point x="156" y="-81"/>
      <point x="109" y="-60"/>
      <point x="94" y="-49" type="qcurve"/>
      <point x="135" y="11"/>
      <point x="203" y="129"/>
      <point x="231" y="189" type="qcurve"/>
      <point x="154" y="292"/>
      <point x="49" y="531"/>
      <point x="9" y="697" type="qcurve"/>
      <point x="36" y="712"/>
      <point x="90" y="728"/>
      <point x="121" y="730" type="qcurve"/>
      <point x="142" y="607"/>
      <point x="216" y="398"/>
      <point x="275" y="292" type="qcurve"/>
      <point x="310" y="383"/>
      <point x="364" y="590"/>
      <point x="386" y="718" type="qcurve"/>
      <point x="417" y="713"/>
      <point x="472" y="694"/>
    </contour>
  </outline>
</glyph>
<glyph name="grave" format="1">
  <advance width="260"/>
  <unicode hex="0060"/>
  <outline>
    <contour>
      <point x="155" y="749" type="qcurve"/>
      <point x="159" y="711"/>
      <point x="177" y="628"/>
      <point x="193" y="582" type="qcurve"/>
      <point x="177" y="578"/>
      <point x="145" y="573"/>
      <point x="127" y="572" type="qcurve"/>
      <point x="98" y="620"/>
      <point x="66" y="704"/>
      <point x="61" y="743" type="qcurve"/>
      <point x="79" y="750"/>
      <point x="132" y="753"/>
    </contour>
    <contour>
      <point x="158" y="560" type="move" name="_top"/>
    </contour>
  </outline>
</glyph>
<glyph name="e" format="1">
  <advance width="461"/>
  <unicode hex="0065"/>
  <outline>
    <contour>
      <point x="148" y="321" type="qcurve"/>
      <point x="173" y="312"/>
      <point x="231" y="303"/>
      <point x="260" y="303" type="qcurve" smooth="yes"/>
      <point x="269" y="303"/>
      <point x="295" y="306"/>
      <point x="301" y="307" type="qcurve"/>
      <point x="308" y="334"/>
      <point x="315" y="381"/>
      <point x="315" y="401" type="qcurve" smooth="yes"/>
      <point x="315" y="440"/>
      <point x="290" y="473"/>
      <point x="263" y="473" type="qcurve" smooth="yes"/>
      <point x="227" y="473"/>
      <point x="165" y="389"/>
    </contour>
    <contour>
      <point x="347" y="175" type="qcurve"/>
      <point x="368" y="171"/>
      <point x="412" y="148"/>
      <point x="427" y="132" type="qcurve"/>
      <point x="409" y="76"/>
      <point x="286" y="-13"/>
      <point x="215" y="-13" type="qcurve" smooth="yes"/>
      <point x="128" y="-13"/>
      <point x="30" y="111"/>
      <point x="30" y="217" type="qcurve" smooth="yes"/>
      <point x="30" y="341"/>
      <point x="173" y="538"/>
      <point x="271" y="538" type="qcurve" smooth="yes"/>
      <point x="336" y="538"/>
      <point x="412" y="460"/>
      <point x="412" y="395" type="qcurve" smooth="yes"/>
      <point x="412" y="361"/>
      <point x="399" y="289"/>
      <point x="388" y="261" type="qcurve"/>
      <point x="365" y="252"/>
      <point x="300" y="243"/>
      <point x="254" y="243" type="qcurve" smooth="yes"/>
      <point x="226" y="243"/>
      <point x="166" y="252"/>
      <point x="137" y="261" type="qcurve"/>
      <point x="136" y="241"/>
      <point x="135" y="225"/>
      <point x="135" y="218" type="qcurve" smooth="yes"/>
      <point x="135" y="144"/>
      <point x="185" y="54"/>
      <point x="227" y="54" type="qcurve" smooth="yes"/>
      <point x="261" y="54"/>
      <point x="333" y="127"/>
    </contour>
  </outline>
</glyph>
<glyph name="g" format="1">
  <advance width="481"/>
  <unicode hex="0067"/>
  <outline>
    <contour>
      <point x="147" y="264" type="qcurve" smooth="yes"/>
      <point x="147" y="177"/>
      <point x="198" y="76"/>
      <point x="239" y="76" type="qcurve" smooth="yes"/>
      <point x="265" y="76"/>
      <point x="306" y="128"/>
      <point x="320" y="179" type="qcurve"/>
      <point x="319" y="254"/>
      <point x="302" y="391"/>
      <point x="287" y="447" type="qcurve"/>
      <point x="280" y="449"/>
      <point x="262" y="451"/>
      <point x="251" y="451" type="qcurve" smooth="yes"/>
      <point x="199" y="451"/>
      <point x="147" y="358"/>
    </contour>
    <contour>
      <point x="426" y="169" type="qcurve" smooth="yes"/>
      <point x="426" y="-33"/>
      <point x="311" y="-247"/>
      <point x="207" y="-247" type="qcurve" smooth="yes"/>
      <point x="136" y="-247"/>
      <point x="49" y="-161"/>
      <point x="39" y="-87" type="qcurve"/>
      <point x="57" y="-74"/>
      <point x="105" y="-54"/>
      <point x="131" y="-48" type="qcurve"/>
      <point x="142" y="-117"/>
      <point x="181" y="-178"/>
      <point x="215" y="-178" type="qcurve" smooth="yes"/>
      <point x="258" y="-178"/>
      <point x="311" y="-52"/>
      <point x="318" y="70" type="qcurve"/>
      <point x="298" y="37"/>
      <point x="248" y="4"/>
      <point x="215" y="4" type="qcurve" smooth="yes"/>
      <point x="134" y="4"/>
      <point x="39" y="138"/>
      <point x="39" y="252" type="qcurve" smooth="yes"/>
      <point x="39" y="380"/>
      <point x="156" y="522"/>
      <point x="261" y="522" type="qcurve" smooth="yes"/>
      <point x="292" y="522"/>
      <point x="362" y="508"/>
      <point x="391" y="496" type="qcurve"/>
      <point x="406" y="434"/>
      <point x="426" y="248"/>
    </contour>
  </outline>
</glyph>
<glyph name="h" format="1">
  <advance width="497"/>
  <unicode hex="0068"/>
  <outline>
    <contour>
      <point x="447" y="330" type="qcurve" smooth="yes"/>
      <point x="447" y="249"/>
      <point x="398" y="29"/>
      <point x="371" y="-32" type="qcurve"/>
      <point x="348" y="-31"/>
      <point x="303" y="-18"/>
      <point x="280" y="-8" type="qcurve"/>
      <point x="309" y="74"/>
      <point x="342" y="252"/>
      <point x="342" y="329" type="qcurve" smooth="yes"/>
      <point x="342" y="399"/>
      <point x="315" y="453"/>
      <point x="281" y="453" type="qcurve" smooth="yes"/>
      <point x="248" y="453"/>
      <point x="179" y="379"/>
      <point x="156" y="316" type="qcurve"/>
      <point x="155" y="306"/>
      <point x="155" y="285"/>
      <point x="155" y="263" type="qcurve" smooth="yes"/>
      <point x="155" y="217"/>
      <point x="163" y="79"/>
      <point x="167" y="37" type="qcurve"/>
      <point x="153" y="33"/>
      <point x="97" y="27"/>
      <point x="72" y="27" type="qcurve"/>
      <point x="64" y="129"/>
      <point x="56" y="330"/>
      <point x="56" y="419" type="qcurve" smooth="yes"/>
      <point x="56" y="501"/>
      <point x="66" y="690"/>
      <point x="73" y="738" type="qcurve"/>
      <point x="87" y="746"/>
      <point x="129" y="755"/>
      <point x="151" y="755" type="qcurve" smooth="yes"/>
      <point x="158" y="755"/>
      <point x="182" y="751"/>
      <point x="200" y="747" type="qcurve"/>
      <point x="186" y="680"/>
      <point x="165" y="516"/>
      <point x="160" y="427" type="qcurve"/>
      <point x="189" y="476"/>
      <point x="266" y="530"/>
      <point x="308" y="530" type="qcurve" smooth="yes"/>
      <point x="381" y="530"/>
      <point x="447" y="434"/>
    </contour>
  </outline>
</glyph>
<glyph name="i" format="1">
  <advance width="229"/>
  <unicode hex="0069"/>
  <outline>
    <contour>
      <point x="162" y="744" type="qcurve" smooth="yes"/>
      <point x="179" y="744"/>
      <point x="207" y="738"/>
      <point x="219" y="731" type="qcurve"/>
      <point x="209" y="707"/>
      <point x="188" y="642"/>
      <point x="183" y="615" type="qcurve"/>
      <point x="168" y="612"/>
      <point x="124" y="610"/>
      <point x="94" y="611" type="qcurve"/>
      <point x="91" y="623"/>
      <point x="89" y="645"/>
      <point x="89" y="656" type="qcurve" smooth="yes"/>
      <point x="89" y="676"/>
      <point x="96" y="719"/>
      <point x="102" y="733" type="qcurve"/>
      <point x="115" y="740"/>
      <point x="143" y="745"/>
    </contour>
    <contour>
      <point x="70" y="500" type="qcurve"/>
      <point x="85" y="508"/>
      <point x="123" y="517"/>
      <point x="143" y="517" type="qcurve" smooth="yes"/>
      <point x="153" y="517"/>
      <point x="173" y="515"/>
      <point x="182" y="513" type="qcurve"/>
      <point x="161" y="417"/>
      <point x="141" y="134"/>
      <point x="146" y="1" type="qcurve"/>
      <point x="135" y="-4"/>
      <point x="103" y="-10"/>
      <point x="87" y="-10" type="qcurve" smooth="yes"/>
      <point x="79" y="-10"/>
      <point x="66" y="-9"/>
      <point x="61" y="-7" type="qcurve"/>
      <point x="45" y="121"/>
      <point x="50" y="391"/>
    </contour>
  </outline>
</glyph>
<glyph name="q" format="1">
  <advance width="515"/>
  <unicode hex="0071"/>
  <outline>
    <contour>
      <point x="407" y="-231" type="qcurve"/>
      <point x="397" y="-236"/>
      <point x="366" y="-241"/>
      <point x="350" y="-241" type="qcurve" smooth="yes"/>
      <point x="338" y="-241"/>
      <point x="325" y="-239"/>
      <point x="318" y="-236" type="qcurve"/>
      <point x="316" y="-218"/>
      <point x="310" y="-44"/>
      <point x="309" y="31" type="qcurve"/>
      <point x="287" y="-9"/>
      <point x="232" y="-50"/>
      <point x="199" y="-50" type="qcurve" smooth="yes"/>
      <point x="124" y="-50"/>
      <point x="37" y="85"/>
      <point x="37" y="196" type="qcurve" smooth="yes"/>
      <point x="37" y="343"/>
      <point x="169" y="516"/>
      <point x="282" y="516" type="qcurve" smooth="yes"/>
      <point x="294" y="516"/>
      <point x="327" y="511"/>
      <point x="345" y="506" type="qcurve"/>
      <point x="348" y="520"/>
      <point x="352" y="544"/>
      <point x="354" y="553" type="qcurve"/>
      <point x="369" y="561"/>
      <point x="402" y="568"/>
      <point x="424" y="568" type="qcurve" smooth="yes"/>
      <point x="435" y="568"/>
      <point x="462" y="564"/>
      <point x="475" y="561" type="qcurve"/>
      <point x="439" y="440"/>
      <point x="400" y="-10"/>
    </contour>
    <contour>
      <point x="141" y="208" type="qcurve" smooth="yes"/>
      <point x="141" y="124"/>
      <point x="185" y="27"/>
      <point x="222" y="27" type="qcurve" smooth="yes"/>
      <point x="253" y="27"/>
      <point x="295" y="77"/>
      <point x="310" y="132" type="qcurve"/>
      <point x="311" y="200"/>
      <point x="325" y="365"/>
      <point x="335" y="440" type="qcurve"/>
      <point x="321" y="444"/>
      <point x="295" y="448"/>
      <point x="280" y="448" type="qcurve" smooth="yes"/>
      <point x="217" y="448"/>
      <point x="141" y="321"/>
    </contour>
  </outline>
</glyph>
<glyph name="s" format="1">
  <advance width="403"/>
  <unicode hex="0073"/>
  <outline>
    <contour>
      <point x="243" y="298" type="qcurve" smooth="yes"/>
      <point x="319" y="245"/>
      <point x="367" y="170"/>
      <point x="367" y="124" type="qcurve" smooth="yes"/>
      <point x="367" y="53"/>
      <point x="267" y="-41"/>
      <point x="191" y="-41" type="qcurve" smooth="yes"/>
      <point x="116" y="-41"/>
      <point x="21" y="62"/>
      <point x="21" y="142" type="qcurve"/>
      <point x="37" y="149"/>
      <point x="81" y="156"/>
      <point x="100" y="155" type="qcurve"/>
      <point x="98" y="93"/>
      <point x="147" y="22"/>
      <point x="191" y="22" type="qcurve" smooth="yes"/>
      <point x="225" y="22"/>
      <point x="264" y="65"/>
      <point x="264" y="102" type="qcurve" smooth="yes"/>
      <point x="264" y="133"/>
      <point x="227" y="187"/>
      <point x="164" y="231" type="qcurve" smooth="yes"/>
      <point x="88" y="285"/>
      <point x="40" y="363"/>
      <point x="40" y="411" type="qcurve" smooth="yes"/>
      <point x="40" y="478"/>
      <point x="127" y="560"/>
      <point x="200" y="560" type="qcurve" smooth="yes"/>
      <point x="270" y="560"/>
      <point x="352" y="485"/>
      <point x="366" y="407" type="qcurve"/>
      <point x="349" y="397"/>
      <point x="308" y="387"/>
      <point x="280" y="384" type="qcurve"/>
      <point x="271" y="441"/>
      <point x="233" y="492"/>
      <point x="200" y="492" type="qcurve" smooth="yes"/>
      <point x="174" y="492"/>
      <point x="142" y="457"/>
      <point x="142" y="427" type="qcurve" smooth="yes"/>
      <point x="142" y="396"/>
      <point x="180" y="342"/>
    </contour>
  </outline>
</glyph>
<glyph name="v" format="1">
  <advance width="458"/>
  <unicode hex="0076"/>
  <outline>
    <contour>
      <point x="436" y="513" type="qcurve"/>
      <point x="401" y="374"/>
      <point x="316" y="151"/>
      <point x="246" y="17" type="qcurve"/>
      <point x="234" y="12"/>
      <point x="193" y="8"/>
      <point x="159" y="8" type="qcurve"/>
      <point x="131" y="155"/>
      <point x="51" y="421"/>
      <point x="-1" y="544" type="qcurve"/>
      <point x="22" y="556"/>
      <point x="80" y="571"/>
      <point x="111" y="572" type="qcurve"/>
      <point x="143" y="485"/>
      <point x="196" y="275"/>
      <point x="223" y="127" type="qcurve"/>
      <point x="267" y="232"/>
      <point x="328" y="446"/>
      <point x="340" y="540" type="qcurve"/>
      <point x="364" y="537"/>
      <point x="413" y="523"/>
    </contour>
  </outline>
</glyph>
<glyph name="w" format="1">
  <advance width="697"/>
  <unicode hex="0077"/>
  <outline>
    <contour>
      <point x="494" y="-21" type="qcurve"/>
      <point x="479" y="-26"/>
      <point x="431" y="-34"/>
      <point x="412" y="-35" type="qcurve"/>
      <point x="397" y="67"/>
      <point x="361" y="239"/>
      <point x="337" y="325" type="qcurve"/>
      <point x="312" y="238"/>
      <point x="261" y="98"/>
      <point x="225" y="19" type="qcurve"/>
      <point x="207" y="14"/>
      <point x="155" y="6"/>
      <point x="135" y="5" type="qcurve"/>
      <point x="86" y="138"/>
      <point x="26" y="387"/>
      <point x="9" y="527" type="qcurve"/>
      <point x="34" y="536"/>
      <point x="88" y="546"/>
      <point x="120" y="548" type="qcurve"/>
      <point x="132" y="413"/>
      <point x="167" y="210"/>
      <point x="195" y="114" type="qcurve"/>
      <point x="231" y="201"/>
      <point x="278" y="371"/>
      <point x="295" y="471" type="qcurve"/>
      <point x="322" y="477"/>
      <point x="370" y="484"/>
      <point x="390" y="484" type="qcurve"/>
      <point x="418" y="406"/>
      <point x="463" y="213"/>
      <point x="479" y="103" type="qcurve"/>
      <point x="520" y="207"/>
      <point x="573" y="408"/>
      <point x="585" y="502" type="qcurve"/>
      <point x="612" y="499"/>
      <point x="658" y="485"/>
      <point x="678" y="472" type="qcurve"/>
      <point x="638" y="313"/>
      <point x="556" y="96"/>
    </contour>
  </outline>
</glyph>
<glyph name="x" format="1">
  <advance width="500"/>
  <unicode hex="0078"/>
  <outline>
    <contour>
      <point x="464" y="14" type="qcurve"/>
      <point x="451" y="1"/>
      <point x="408" y="-25"/>
      <point x="387" y="-34" type="qcurve"/>
      <point x="359" y="24"/>
      <point x="293" y="144"/>
      <point x="254" y="207" type="qcurve"/>
      <point x="204" y="149"/>
      <point x="100" y="43"/>
      <point x="41" y="-11" type="qcurve"/>
      <point x="28" y="-2"/>
      <point x="3" y="27"/>
      <point x="-7" y="44" type="qcurve"/>
      <point x="47" y="96"/>
      <point x="156" y="213"/>
      <point x="210" y="277" type="qcurve"/>
      <point x="172" y="335"/>
      <point x="91" y="443"/>
      <point x="48" y="493" type="qcurve"/>
      <point x="73" y="513"/>
      <point x="128" y="545"/>
      <point x="153" y="555" type="qcurve"/>
      <point x="192" y="498"/>
      <point x="256" y="401"/>
      <point x="283" y="356" type="qcurve"/>
      <point x="312" y="394"/>
      <point x="373" y="483"/>
      <point x="415" y="549" type="qcurve"/>
      <point x="433" y="537"/>
      <point x="466" y="503"/>
      <point x="485" y="475" type="qcurve"/>
      <point x="452" y="430"/>
      <point x="378" y="337"/>
      <point x="328" y="279" type="qcurve"/>
      <point x="367" y="210"/>
      <point x="434" y="80"/>
    </contour>
  </outline>
</glyph>
<glyph name="braceleft" format="1">
  <advance width="310"/>
  <unicode hex="007B"/>
  <outline>
    <contour>
      <point x="279" y="-154" type="qcurve"/>
      <point x="260" y="-162"/>
      <point x="224" y="-168"/>
      <point x="198" y="-168" type="qcurve" smooth="yes"/>
      <point x="140" y="-168"/>
      <point x="65" y="-93"/>
      <point x="65" y="-34" type="qcurve" smooth="yes"/>
      <point x="65" y="2"/>
      <point x="87" y="65"/>
      <point x="114" y="106" type="qcurve" smooth="yes"/>
      <point x="141" y="147"/>
      <point x="161" y="195"/>
      <point x="161" y="216" type="qcurve" smooth="yes"/>
      <point x="161" y="245"/>
      <point x="125" y="280"/>
      <point x="96" y="280" type="qcurve" smooth="yes"/>
      <point x="80" y="280"/>
      <point x="57" y="278"/>
      <point x="46" y="275" type="qcurve"/>
      <point x="40" y="298"/>
      <point x="39" y="353"/>
      <point x="44" y="374" type="qcurve"/>
      <point x="58" y="371"/>
      <point x="81" y="369"/>
      <point x="92" y="369" type="qcurve" smooth="yes"/>
      <point x="122" y="369"/>
      <point x="156" y="405"/>
      <point x="156" y="435" type="qcurve" smooth="yes"/>
      <point x="156" y="453"/>
      <point x="141" y="490"/>
      <point x="108" y="539" type="qcurve" smooth="yes"/>
      <point x="79" y="582"/>
      <point x="57" y="644"/>
      <point x="57" y="679" type="qcurve" smooth="yes"/>
      <point x="57" y="739"/>
      <point x="131" y="816"/>
      <point x="189" y="816" type="qcurve" smooth="yes"/>
      <point x="213" y="816"/>
      <point x="252" y="809"/>
      <point x="269" y="802" type="qcurve"/>
      <point x="271" y="789"/>
      <point x="265" y="755"/>
      <point x="257" y="738" type="qcurve"/>
      <point x="245" y="744"/>
      <point x="225" y="748"/>
      <point x="212" y="748" type="qcurve" smooth="yes"/>
      <point x="183" y="748"/>
      <point x="148" y="707"/>
      <point x="148" y="672" type="qcurve" smooth="yes"/>
      <point x="148" y="649"/>
      <point x="164" y="604"/>
      <point x="191" y="563" type="qcurve" smooth="yes"/>
      <point x="220" y="517"/>
      <point x="238" y="463"/>
      <point x="238" y="436" type="qcurve" smooth="yes"/>
      <point x="238" y="399"/>
      <point x="197" y="341"/>
      <point x="162" y="327" type="qcurve"/>
      <point x="199" y="315"/>
      <point x="243" y="256"/>
      <point x="243" y="217" type="qcurve" smooth="yes"/>
      <point x="243" y="190"/>
      <point x="226" y="138"/>
      <point x="199" y="93" type="qcurve" smooth="yes"/>
      <point x="173" y="50"/>
      <point x="157" y="2"/>
      <point x="157" y="-23" type="qcurve" smooth="yes"/>
      <point x="157" y="-59"/>
      <point x="191" y="-100"/>
      <point x="220" y="-100" type="qcurve" smooth="yes"/>
      <point x="232" y="-100"/>
      <point x="252" y="-95"/>
      <point x="266" y="-89" type="qcurve"/>
      <point x="274" y="-106"/>
      <point x="280" y="-140"/>
    </contour>
  </outline>
</glyph>
<glyph name="bar" format="1">
  <advance width="268"/>
  <unicode hex="007C"/>
  <outline>
    <contour>
      <point x="176" y="-162" type="qcurve"/>
      <point x="161" y="-166"/>
      <point x="120" y="-170"/>
      <point x="106" y="-169" type="qcurve"/>
      <point x="96" y="4"/>
      <point x="85" y="471"/>
      <point x="86" y="713" type="qcurve"/>
      <point x="106" y="722"/>
      <point x="158" y="729"/>
      <point x="181" y="725" type="qcurve"/>
      <point x="171" y="566"/>
      <point x="168" y="6"/>
    </contour>
  </outline>
</glyph>
<glyph name="braceright" format="1">
  <advance width="318"/>
  <unicode hex="007D"/>
  <outline>
    <contour>
      <point x="247" y="-30" type="qcurve" smooth="yes"/>
      <point x="246" y="-89"/>
      <point x="165" y="-165"/>
      <point x="105" y="-164" type="qcurve" smooth="yes"/>
      <point x="86" y="-163"/>
      <point x="58" y="-159"/>
      <point x="44" y="-154" type="qcurve"/>
      <point x="41" y="-138"/>
      <point x="45" y="-104"/>
      <point x="52" y="-88" type="qcurve"/>
      <point x="63" y="-93"/>
      <point x="83" y="-97"/>
      <point x="95" y="-97" type="qcurve" smooth="yes"/>
      <point x="124" y="-98"/>
      <point x="157" y="-60"/>
      <point x="157" y="-27" type="qcurve" smooth="yes"/>
      <point x="157" y="-2"/>
      <point x="142" y="46"/>
      <point x="116" y="90" type="qcurve" smooth="yes"/>
      <point x="91" y="134"/>
      <point x="75" y="184"/>
      <point x="75" y="210" type="qcurve" smooth="yes"/>
      <point x="76" y="249"/>
      <point x="119" y="309"/>
      <point x="155" y="322" type="qcurve"/>
      <point x="117" y="336"/>
      <point x="76" y="396"/>
      <point x="77" y="437" type="qcurve" smooth="yes"/>
      <point x="78" y="463"/>
      <point x="96" y="514"/>
      <point x="124" y="558" type="qcurve" smooth="yes"/>
      <point x="153" y="601"/>
      <point x="171" y="652"/>
      <point x="171" y="678" type="qcurve" smooth="yes"/>
      <point x="172" y="711"/>
      <point x="138" y="752"/>
      <point x="110" y="753" type="qcurve" smooth="yes"/>
      <point x="97" y="753"/>
      <point x="79" y="750"/>
      <point x="68" y="745" type="qcurve"/>
      <point x="63" y="760"/>
      <point x="60" y="793"/>
      <point x="62" y="810" type="qcurve"/>
      <point x="78" y="816"/>
      <point x="108" y="821"/>
      <point x="128" y="820" type="qcurve" smooth="yes"/>
      <point x="190" y="819"/>
      <point x="264" y="745"/>
      <point x="262" y="686" type="qcurve" smooth="yes"/>
      <point x="262" y="651"/>
      <point x="241" y="593"/>
      <point x="210" y="547" type="qcurve" smooth="yes"/>
      <point x="181" y="502"/>
      <point x="159" y="453"/>
      <point x="159" y="433" type="qcurve" smooth="yes"/>
      <point x="159" y="403"/>
      <point x="193" y="368"/>
      <point x="222" y="367" type="qcurve" smooth="yes"/>
      <point x="240" y="367"/>
      <point x="257" y="369"/>
      <point x="266" y="371" type="qcurve"/>
      <point x="272" y="347"/>
      <point x="271" y="290"/>
      <point x="265" y="271" type="qcurve"/>
      <point x="253" y="275"/>
      <point x="234" y="278"/>
      <point x="221" y="278" type="qcurve" smooth="yes"/>
      <point x="193" y="279"/>
      <point x="158" y="243"/>
      <point x="158" y="213" type="qcurve" smooth="yes"/>
      <point x="157" y="195"/>
      <point x="172" y="157"/>
      <point x="202" y="108" type="qcurve" smooth="yes"/>
      <point x="227" y="70"/>
      <point x="247" y="8"/>
    </contour>
  </outline>
</glyph>
<glyph name="asciitilde" format="1">
  <advance width="388"/>
  <unicode hex="007E"/>
  <outline>
    <contour>
      <point x="196" y="359" type="qcurve" smooth="yes"/>
      <point x="223" y="348"/>
      <point x="249" y="341"/>
      <point x="260" y="341" type="qcurve" smooth="yes"/>
      <point x="284" y="341"/>
      <point x="307" y="364"/>
      <point x="305" y="388" type="qcurve"/>
      <point x="319" y="389"/>
      <point x="346" y="384"/>
      <point x="358" y="379" type="qcurve"/>
      <point x="362" y="331"/>
      <point x="315" y="275"/>
      <point x="270" y="275" type="qcurve" smooth="yes"/>
      <point x="253" y="275"/>
      <point x="215" y="284"/>
      <point x="181" y="298" type="qcurve" smooth="yes"/>
      <point x="156" y="308"/>
      <point x="133" y="314"/>
      <point x="124" y="314" type="qcurve" smooth="yes"/>
      <point x="100" y="314"/>
      <point x="79" y="292"/>
      <point x="80" y="268" type="qcurve"/>
      <point x="70" y="267"/>
      <point x="43" y="271"/>
      <point x="29" y="276" type="qcurve"/>
      <point x="25" y="324"/>
      <point x="72" y="380"/>
      <point x="116" y="380" type="qcurve" smooth="yes"/>
      <point x="130" y="380"/>
      <point x="164" y="372"/>
    </contour>
  </outline>
</glyph>
<glyph name="cent" format="1">
  <advance width="451"/>
  <unicode hex="00A2"/>
  <outline>
    <contour>
      <point x="422" y="190" type="qcurve"/>
      <point x="407" y="134"/>
      <point x="288" y="46"/>
      <point x="215" y="46" type="qcurve" smooth="yes"/>
      <point x="201" y="46"/>
      <point x="176" y="49"/>
      <point x="165" y="52" type="qcurve"/>
      <point x="157" y="25"/>
      <point x="135" y="-29"/>
      <point x="123" y="-52" type="qcurve"/>
      <point x="104" y="-51"/>
      <point x="64" y="-38"/>
      <point x="49" y="-28" type="qcurve"/>
      <point x="66" y="1"/>
      <point x="91" y="55"/>
      <point x="102" y="84" type="qcurve"/>
      <point x="69" y="112"/>
      <point x="34" y="208"/>
      <point x="34" y="271" type="qcurve" smooth="yes"/>
      <point x="34" y="415"/>
      <point x="166" y="613"/>
      <point x="267" y="613" type="qcurve" smooth="yes"/>
      <point x="284" y="613"/>
      <point x="314" y="609"/>
      <point x="328" y="604" type="qcurve"/>
      <point x="339" y="637"/>
      <point x="356" y="680"/>
      <point x="365" y="696" type="qcurve"/>
      <point x="381" y="695"/>
      <point x="418" y="682"/>
      <point x="436" y="670" type="qcurve"/>
      <point x="416" y="633"/>
      <point x="394" y="587"/>
      <point x="386" y="565" type="qcurve"/>
      <point x="405" y="542"/>
      <point x="424" y="480"/>
      <point x="424" y="441" type="qcurve"/>
      <point x="404" y="431"/>
      <point x="355" y="422"/>
      <point x="325" y="422" type="qcurve"/>
      <point x="325" y="486"/>
      <point x="292" y="550"/>
      <point x="260" y="550" type="qcurve" smooth="yes"/>
      <point x="211" y="550"/>
      <point x="140" y="384"/>
      <point x="140" y="277" type="qcurve" smooth="yes"/>
      <point x="140" y="200"/>
      <point x="188" y="114"/>
      <point x="233" y="114" type="qcurve" smooth="yes"/>
      <point x="267" y="114"/>
      <point x="331" y="173"/>
      <point x="358" y="230" type="qcurve"/>
      <point x="376" y="228"/>
      <point x="414" y="204"/>
    </contour>
  </outline>
</glyph>
<glyph name="yen" format="1">
  <advance width="506"/>
  <unicode hex="00A5"/>
  <outline>
    <contour>
      <point x="280" y="-39" type="qcurve"/>
      <point x="262" y="-43"/>
      <point x="213" y="-48"/>
      <point x="192" y="-48" type="qcurve"/>
      <point x="194" y="6"/>
      <point x="197" y="102"/>
      <point x="198" y="146" type="qcurve"/>
      <point x="158" y="146"/>
      <point x="84" y="149"/>
      <point x="50" y="153" type="qcurve"/>
      <point x="50" y="178"/>
      <point x="53" y="214"/>
      <point x="56" y="224" type="qcurve"/>
      <point x="92" y="221"/>
      <point x="163" y="217"/>
      <point x="197" y="216" type="qcurve"/>
      <point x="197" y="221"/>
      <point x="197" y="234"/>
      <point x="197" y="246" type="qcurve" smooth="yes"/>
      <point x="196" y="258"/>
      <point x="196" y="271"/>
      <point x="196" y="276" type="qcurve"/>
      <point x="195" y="278"/>
      <point x="192" y="287"/>
      <point x="191" y="289" type="qcurve"/>
      <point x="152" y="289"/>
      <point x="82" y="291"/>
      <point x="50" y="293" type="qcurve"/>
      <point x="49" y="314"/>
      <point x="52" y="352"/>
      <point x="56" y="364" type="qcurve"/>
      <point x="93" y="362"/>
      <point x="141" y="360"/>
      <point x="162" y="359" type="qcurve"/>
      <point x="136" y="421"/>
      <point x="69" y="548"/>
      <point x="20" y="628" type="qcurve"/>
      <point x="29" y="639"/>
      <point x="52" y="656"/>
      <point x="66" y="662" type="qcurve" smooth="yes"/>
      <point x="76" y="666"/>
      <point x="97" y="673"/>
      <point x="109" y="675" type="qcurve"/>
      <point x="153" y="598"/>
      <point x="217" y="446"/>
      <point x="249" y="347" type="qcurve"/>
      <point x="298" y="430"/>
      <point x="366" y="583"/>
      <point x="398" y="684" type="qcurve"/>
      <point x="419" y="681"/>
      <point x="459" y="661"/>
      <point x="480" y="641" type="qcurve"/>
      <point x="452" y="563"/>
      <point x="389" y="435"/>
      <point x="341" y="359" type="qcurve"/>
      <point x="390" y="363"/>
      <point x="440" y="368"/>
      <point x="461" y="371" type="qcurve"/>
      <point x="462" y="363"/>
      <point x="463" y="346"/>
      <point x="462" y="337" type="qcurve" smooth="yes"/>
      <point x="462" y="329"/>
      <point x="458" y="313"/>
      <point x="452" y="301" type="qcurve"/>
      <point x="423" y="297"/>
      <point x="360" y="292"/>
      <point x="296" y="288" type="qcurve"/>
      <point x="295" y="288" type="line"/>
      <point x="295" y="259"/>
      <point x="295" y="230"/>
      <point x="294" y="217" type="qcurve"/>
      <point x="335" y="219"/>
      <point x="414" y="225"/>
      <point x="452" y="229" type="qcurve"/>
      <point x="453" y="215"/>
      <point x="454" y="203"/>
      <point x="453" y="198" type="qcurve" smooth="yes"/>
      <point x="452" y="188"/>
      <point x="448" y="168"/>
      <point x="445" y="159" type="qcurve"/>
      <point x="399" y="155"/>
      <point x="326" y="149"/>
      <point x="293" y="148" type="qcurve"/>
      <point x="290" y="97"/>
      <point x="284" y="5"/>
    </contour>
  </outline>
</glyph>
<glyph name="dieresis" format="1">
  <advance width="260"/>
  <unicode hex="00A8"/>
  <outline>
    <component base="dotaccent" xOffset="-87"/>
    <component base="dotaccent" xOffset="70"/>
    <contour>
      <point x="123" y="560" type="move" name="_top"/>
    </contour>
  </outline>
</glyph>
<glyph name="ordfeminine" format="1">
  <advance width="279"/>
  <unicode hex="00AA"/>
  <outline>
    <contour>
      <point x="255" y="622" type="qcurve" smooth="yes"/>
      <point x="255" y="586"/>
      <point x="235" y="463"/>
      <point x="221" y="410" type="qcurve"/>
      <point x="207" y="410"/>
      <point x="172" y="415"/>
      <point x="155" y="419" type="qcurve"/>
      <point x="156" y="423"/>
      <point x="159" y="441"/>
      <point x="160" y="445" type="qcurve"/>
      <point x="149" y="439"/>
      <point x="121" y="433"/>
      <point x="104" y="433" type="qcurve" smooth="yes"/>
      <point x="60" y="433"/>
      <point x="8" y="476"/>
      <point x="8" y="512" type="qcurve" smooth="yes"/>
      <point x="8" y="550"/>
      <point x="71" y="588"/>
      <point x="134" y="588" type="qcurve" smooth="yes"/>
      <point x="140" y="588"/>
      <point x="152" y="588"/>
      <point x="162" y="587" type="qcurve" smooth="yes"/>
      <point x="167" y="587"/>
      <point x="172" y="587"/>
      <point x="174" y="587" type="qcurve"/>
      <point x="174" y="589"/>
      <point x="174" y="593"/>
      <point x="174" y="595" type="qcurve" smooth="yes"/>
      <point x="174" y="644"/>
      <point x="157" y="687"/>
      <point x="139" y="687" type="qcurve" smooth="yes"/>
      <point x="121" y="687"/>
      <point x="96" y="648"/>
      <point x="95" y="618" type="qcurve"/>
      <point x="69" y="621"/>
      <point x="35" y="637"/>
      <point x="26" y="650" type="qcurve"/>
      <point x="39" y="689"/>
      <point x="103" y="733"/>
      <point x="147" y="733" type="qcurve" smooth="yes"/>
      <point x="201" y="733"/>
      <point x="255" y="677"/>
    </contour>
    <contour>
      <point x="92" y="508" type="qcurve" smooth="yes"/>
      <point x="92" y="492"/>
      <point x="111" y="474"/>
      <point x="128" y="474" type="qcurve" smooth="yes"/>
      <point x="139" y="474"/>
      <point x="157" y="479"/>
      <point x="166" y="485" type="qcurve"/>
      <point x="171" y="524"/>
      <point x="173" y="543"/>
      <point x="173" y="551" type="qcurve"/>
      <point x="133" y="552"/>
      <point x="92" y="530"/>
    </contour>
  </outline>
</glyph>
<glyph name="macron" format="1">
  <advance width="260"/>
  <unicode hex="00AF"/>
  <outline>
    <contour>
      <point x="232" y="632" type="qcurve"/>
      <point x="165" y="624"/>
      <point x="56" y="627"/>
      <point x="25" y="639" type="qcurve"/>
      <point x="24" y="657"/>
      <point x="26" y="694"/>
      <point x="28" y="705" type="qcurve"/>
      <point x="81" y="696"/>
      <point x="181" y="693"/>
      <point x="233" y="699" type="qcurve"/>
      <point x="235" y="681"/>
      <point x="234" y="648"/>
    </contour>
    <contour>
      <point x="127" y="560" type="move" name="_top"/>
    </contour>
  </outline>
</glyph>
<glyph name="plusminus" format="1">
  <advance width="396"/>
  <unicode hex="00B1"/>
  <outline>
    <contour>
      <point x="235" y="318" type="qcurve"/>
      <point x="234" y="281"/>
      <point x="229" y="215"/>
      <point x="225" y="186" type="qcurve"/>
      <point x="208" y="184"/>
      <point x="173" y="184"/>
      <point x="156" y="186" type="qcurve"/>
      <point x="160" y="219"/>
      <point x="164" y="284"/>
      <point x="165" y="317" type="qcurve"/>
      <point x="122" y="319"/>
      <point x="57" y="324"/>
      <point x="29" y="328" type="qcurve"/>
      <point x="29" y="346"/>
      <point x="32" y="377"/>
      <point x="35" y="397" type="qcurve"/>
      <point x="76" y="392"/>
      <point x="137" y="388"/>
      <point x="165" y="387" type="qcurve"/>
      <point x="164" y="413"/>
      <point x="161" y="474"/>
      <point x="157" y="515" type="qcurve"/>
      <point x="175" y="518"/>
      <point x="208" y="519"/>
      <point x="225" y="518" type="qcurve"/>
      <point x="229" y="490"/>
      <point x="234" y="425"/>
      <point x="235" y="387" type="qcurve"/>
      <point x="266" y="388"/>
      <point x="333" y="392"/>
      <point x="369" y="396" type="qcurve"/>
      <point x="369" y="378"/>
      <point x="364" y="344"/>
      <point x="360" y="328" type="qcurve"/>
      <point x="332" y="324"/>
      <point x="270" y="319"/>
    </contour>
    <contour>
      <point x="21" y="88" type="qcurve"/>
      <point x="21" y="106"/>
      <point x="24" y="138"/>
      <point x="27" y="158" type="qcurve"/>
      <point x="105" y="148"/>
      <point x="264" y="147"/>
      <point x="361" y="156" type="qcurve"/>
      <point x="361" y="140"/>
      <point x="357" y="106"/>
      <point x="353" y="88" type="qcurve"/>
      <point x="277" y="77"/>
      <point x="100" y="77"/>
    </contour>
  </outline>
</glyph>
<glyph name="twosuperior" format="1">
  <advance width="304"/>
  <unicode hex="00B2"/>
  <outline>
    <contour>
      <point x="286" y="356" type="qcurve"/>
      <point x="285" y="336"/>
      <point x="278" y="299"/>
      <point x="271" y="284" type="qcurve"/>
      <point x="192" y="287"/>
      <point x="47" y="307"/>
      <point x="0" y="321" type="qcurve"/>
      <point x="1" y="340"/>
      <point x="5" y="360"/>
      <point x="8" y="369" type="qcurve"/>
      <point x="112" y="439"/>
      <point x="202" y="548"/>
      <point x="202" y="604" type="qcurve" smooth="yes"/>
      <point x="202" y="630"/>
      <point x="180" y="661"/>
      <point x="160" y="661" type="qcurve" smooth="yes"/>
      <point x="137" y="661"/>
      <point x="106" y="616"/>
      <point x="97" y="569" type="qcurve"/>
      <point x="73" y="569"/>
      <point x="33" y="577"/>
      <point x="15" y="585" type="qcurve"/>
      <point x="31" y="647"/>
      <point x="106" y="711"/>
      <point x="163" y="711" type="qcurve" smooth="yes"/>
      <point x="222" y="711"/>
      <point x="294" y="646"/>
      <point x="294" y="594" type="qcurve" smooth="yes"/>
      <point x="294" y="538"/>
      <point x="201" y="419"/>
      <point x="111" y="361" type="qcurve"/>
      <point x="167" y="358"/>
      <point x="245" y="355"/>
    </contour>
  </outline>
</glyph>
<glyph name="acute" format="1">
  <advance width="260"/>
  <unicode hex="00B4"/>
  <outline>
    <contour>
      <point x="191" y="741" type="qcurve"/>
      <point x="186" y="698"/>
      <point x="153" y="615"/>
      <point x="125" y="571" type="qcurve"/>
      <point x="108" y="571"/>
      <point x="76" y="575"/>
      <point x="59" y="580" type="qcurve"/>
      <point x="74" y="623"/>
      <point x="93" y="706"/>
      <point x="97" y="748" type="qcurve"/>
      <point x="121" y="751"/>
      <point x="173" y="747"/>
    </contour>
    <contour>
      <point x="88" y="560" type="move" name="_top"/>
    </contour>
  </outline>
</glyph>
<glyph name="cedilla" format="1">
  <advance width="261"/>
  <unicode hex="00B8"/>
  <outline>
    <contour>
      <point x="236" y="-129" type="qcurve" smooth="yes"/>
      <point x="236" y="-173"/>
      <point x="173" y="-226"/>
      <point x="121" y="-226" type="qcurve" smooth="yes"/>
      <point x="82" y="-226"/>
      <point x="28" y="-189"/>
      <point x="15" y="-153" type="qcurve"/>
      <point x="32" y="-142"/>
      <point x="52" y="-132"/>
      <point x="62" y="-128" type="qcurve"/>
      <point x="69" y="-150"/>
      <point x="99" y="-176"/>
      <point x="119" y="-176" type="qcurve" smooth="yes"/>
      <point x="140" y="-176"/>
      <point x="163" y="-154"/>
      <point x="163" y="-135" type="qcurve" smooth="yes"/>
      <point x="163" y="-118"/>
      <point x="140" y="-96"/>
      <point x="122" y="-96" type="qcurve" smooth="yes"/>
      <point x="112" y="-96"/>
      <point x="95" y="-101"/>
      <point x="86" y="-106" type="qcurve"/>
      <point x="79" y="-100"/>
      <point x="65" y="-86"/>
      <point x="61" y="-80" type="qcurve"/>
      <point x="74" y="-60"/>
      <point x="90" y="-12"/>
      <point x="91" y="11" type="qcurve"/>
      <point x="142" y="0" type="line"/>
      <point x="140" y="-14"/>
      <point x="133" y="-40"/>
      <point x="127" y="-53" type="qcurve"/>
      <point x="133" y="-52"/>
      <point x="145" y="-50"/>
      <point x="151" y="-50" type="qcurve" smooth="yes"/>
      <point x="190" y="-50"/>
      <point x="236" y="-93"/>
    </contour>
    <contour>
      <point x="114" y="0" type="move" name="_bottom"/>
    </contour>
  </outline>
</glyph>
<glyph name="questiondown" format="1">
  <advance width="402"/>
  <unicode hex="00BF"/>
  <outline>
    <contour>
      <point x="173" y="503" type="qcurve" smooth="yes"/>
      <point x="171" y="523"/>
      <point x="170" y="544"/>
      <point x="169" y="554" type="qcurve"/>
      <point x="181" y="557"/>
      <point x="204" y="560"/>
      <point x="220" y="560" type="qcurve" smooth="yes"/>
      <point x="232" y="561"/>
      <point x="258" y="557"/>
      <point x="271" y="553" type="qcurve"/>
      <point x="273" y="530"/>
      <point x="274" y="482"/>
      <point x="273" y="455" type="qcurve"/>
      <point x="254" y="454"/>
      <point x="219" y="454"/>
      <point x="176" y="455" type="qcurve"/>
      <point x="175" y="464"/>
      <point x="174" y="484"/>
    </contour>
    <contour>
      <point x="408" y="6" type="qcurve"/>
      <point x="402" y="-101"/>
      <point x="303" y="-211"/>
      <point x="212" y="-211" type="qcurve" smooth="yes"/>
      <point x="131" y="-211"/>
      <point x="28" y="-105"/>
      <point x="28" y="-21" type="qcurve" smooth="yes"/>
      <point x="28" y="53"/>
      <point x="114" y="160"/>
      <point x="191" y="183" type="qcurve"/>
      <point x="191" y="240"/>
      <point x="191" y="303"/>
      <point x="192" y="333" type="qcurve"/>
      <point x="207" y="336"/>
      <point x="248" y="339"/>
      <point x="267" y="338" type="qcurve"/>
      <point x="275" y="274"/>
      <point x="283" y="190"/>
      <point x="284" y="157" type="qcurve"/>
      <point x="212" y="141"/>
      <point x="137" y="51"/>
      <point x="137" y="-19" type="qcurve" smooth="yes"/>
      <point x="137" y="-77"/>
      <point x="181" y="-146"/>
      <point x="218" y="-146" type="qcurve" smooth="yes"/>
      <point x="262" y="-146"/>
      <point x="311" y="-56"/>
      <point x="311" y="23" type="qcurve"/>
      <point x="338" y="23"/>
      <point x="387" y="14"/>
    </contour>
  </outline>
</glyph>
<glyph name="multiply" format="1">
  <advance width="397"/>
  <unicode hex="00D7"/>
  <outline>
    <contour>
      <point x="348" y="215" type="qcurve"/>
      <point x="335" y="201"/>
      <point x="310" y="178"/>
      <point x="297" y="168" type="qcurve"/>
      <point x="277" y="193"/>
      <point x="233" y="245"/>
      <point x="206" y="273" type="qcurve"/>
      <point x="198" y="265"/>
      <point x="125" y="191"/>
      <point x="102" y="169" type="qcurve"/>
      <point x="89" y="181"/>
      <point x="66" y="205"/>
      <point x="56" y="219" type="qcurve"/>
      <point x="62" y="225"/>
      <point x="76" y="239"/>
      <point x="90" y="254" type="qcurve" smooth="yes"/>
      <point x="117" y="282"/>
      <point x="145" y="310"/>
      <point x="157" y="323" type="qcurve"/>
      <point x="131" y="347"/>
      <point x="78" y="394"/>
      <point x="51" y="416" type="qcurve"/>
      <point x="60" y="427"/>
      <point x="81" y="449"/>
      <point x="99" y="465" type="qcurve"/>
      <point x="129" y="442"/>
      <point x="182" y="396"/>
      <point x="205" y="373" type="qcurve"/>
      <point x="222" y="390"/>
      <point x="261" y="430"/>
      <point x="301" y="470" type="qcurve"/>
      <point x="314" y="459"/>
      <point x="335" y="433"/>
      <point x="345" y="416" type="qcurve"/>
      <point x="330" y="401"/>
      <point x="295" y="365"/>
      <point x="255" y="324" type="qcurve"/>
      <point x="278" y="299"/>
      <point x="325" y="245"/>
    </contour>
  </outline>
</glyph>
<glyph name="Oslash" format="1">
  <advance width="600"/>
  <unicode hex="00D8"/>
  <outline>
    <contour>
      <point x="311" y="656" type="qcurve" smooth="yes"/>
      <point x="238" y="656"/>
      <point x="147" y="486"/>
      <point x="147" y="351" type="qcurve" smooth="yes"/>
      <point x="147" y="302"/>
      <point x="159" y="210"/>
      <point x="171" y="174" type="qcurve"/>
      <point x="221" y="264"/>
      <point x="328" y="476"/>
      <point x="396" y="620" type="qcurve"/>
      <point x="380" y="638"/>
      <point x="338" y="656"/>
    </contour>
    <contour>
      <point x="213" y="92" type="qcurve"/>
      <point x="229" y="74"/>
      <point x="265" y="56"/>
      <point x="286" y="56" type="qcurve" smooth="yes"/>
      <point x="363" y="56"/>
      <point x="450" y="233"/>
      <point x="450" y="377" type="qcurve" smooth="yes"/>
      <point x="450" y="420"/>
      <point x="444" y="493"/>
      <point x="438" y="522" type="qcurve"/>
      <point x="388" y="420"/>
      <point x="278" y="209"/>
    </contour>
    <contour>
      <point x="498" y="127" type="qcurve" smooth="yes"/>
      <point x="459" y="55"/>
      <point x="343" y="-20"/>
      <point x="270" y="-20" type="qcurve" smooth="yes"/>
      <point x="241" y="-20"/>
      <point x="190" y="-5"/>
      <point x="168" y="9" type="qcurve"/>
      <point x="157" y="-10"/>
      <point x="121" y="-74"/>
      <point x="118" y="-79" type="qcurve"/>
      <point x="93" y="-71"/>
      <point x="62" y="-53"/>
      <point x="47" y="-39" type="qcurve"/>
      <point x="64" y="-11"/>
      <point x="95" y="41"/>
      <point x="109" y="65" type="qcurve"/>
      <point x="74" y="113"/>
      <point x="36" y="252"/>
      <point x="36" y="335" type="qcurve" smooth="yes"/>
      <point x="36" y="509"/>
      <point x="200" y="733"/>
      <point x="330" y="733" type="qcurve" smooth="yes"/>
      <point x="360" y="733"/>
      <point x="414" y="720"/>
      <point x="438" y="707" type="qcurve"/>
      <point x="454" y="742"/>
      <point x="470" y="777"/>
      <point x="477" y="792" type="qcurve"/>
      <point x="495" y="787"/>
      <point x="530" y="765"/>
      <point x="546" y="750" type="qcurve"/>
      <point x="535" y="725"/>
      <point x="512" y="676"/>
      <point x="501" y="651" type="qcurve"/>
      <point x="532" y="609"/>
      <point x="563" y="483"/>
      <point x="563" y="403" type="qcurve" smooth="yes"/>
      <point x="563" y="330"/>
      <point x="529" y="184"/>
    </contour>
  </outline>
</glyph>
<glyph name="Thorn" format="1">
  <advance width="559"/>
  <unicode hex="00DE"/>
  <outline>
    <contour>
      <point x="172" y="85" type="qcurve"/>
      <point x="173" y="51"/>
      <point x="178" y="-24"/>
      <point x="181" y="-68" type="qcurve"/>
      <point x="154" y="-69"/>
      <point x="105" y="-66"/>
      <point x="88" y="-62" type="qcurve"/>
      <point x="73" y="104"/>
      <point x="61" y="363"/>
      <point x="61" y="538" type="qcurve" smooth="yes"/>
      <point x="61" y="575"/>
      <point x="65" y="675"/>
      <point x="68" y="711" type="qcurve"/>
      <point x="97" y="715"/>
      <point x="158" y="709"/>
      <point x="185" y="700" type="qcurve"/>
      <point x="182" y="672"/>
      <point x="178" y="618"/>
      <point x="176" y="592" type="qcurve"/>
      <point x="202" y="596"/>
      <point x="251" y="600"/>
      <point x="274" y="600" type="qcurve" smooth="yes"/>
      <point x="396" y="600"/>
      <point x="529" y="497"/>
      <point x="529" y="405" type="qcurve" smooth="yes"/>
      <point x="529" y="299"/>
      <point x="350" y="138"/>
    </contour>
    <contour>
      <point x="171" y="517" type="qcurve"/>
      <point x="168" y="471"/>
      <point x="166" y="370"/>
      <point x="166" y="309" type="qcurve" smooth="yes"/>
      <point x="166" y="282"/>
      <point x="167" y="222"/>
      <point x="168" y="161" type="qcurve"/>
      <point x="292" y="193"/>
      <point x="418" y="307"/>
      <point x="418" y="389" type="qcurve" smooth="yes"/>
      <point x="418" y="457"/>
      <point x="338" y="531"/>
      <point x="263" y="531" type="qcurve" smooth="yes"/>
      <point x="240" y="531"/>
      <point x="193" y="524"/>
    </contour>
  </outline>
</glyph>
<glyph name="aogonek" format="1">
  <advance width="474"/>
  <unicode hex="0105"/>
  <outline>
    <contour>
      <point x="133" y="139" type="qcurve" smooth="yes"/>
      <point x="133" y="106"/>
      <point x="175" y="66"/>
      <point x="211" y="66" type="qcurve" smooth="yes"/>
      <point x="236" y="66"/>
      <point x="281" y="81"/>
      <point x="300" y="95" type="qcurve"/>
      <point x="307" y="132"/>
      <point x="315" y="194"/>
      <point x="316" y="226" type="qcurve"/>
      <point x="224" y="229"/>
      <point x="133" y="186"/>
    </contour>
    <contour>
      <point x="345" y="-131" type="qcurve"/>
      <point x="353" y="-137"/>
      <point x="367" y="-158"/>
      <point x="373" y="-174" type="qcurve"/>
      <point x="353" y="-203"/>
      <point x="301" y="-232"/>
      <point x="267" y="-232" type="qcurve" smooth="yes"/>
      <point x="228" y="-232"/>
      <point x="180" y="-191"/>
      <point x="180" y="-157" type="qcurve" smooth="yes"/>
      <point x="180" y="-120"/>
      <point x="227" y="-53"/>
      <point x="278" y="-19" type="qcurve"/>
      <point x="279" y="-15"/>
      <point x="280" y="-7"/>
      <point x="282" y="1" type="qcurve" smooth="yes"/>
      <point x="285" y="15"/>
      <point x="288" y="29"/>
      <point x="289" y="34" type="qcurve"/>
      <point x="267" y="20"/>
      <point x="215" y="6"/>
      <point x="186" y="6" type="qcurve" smooth="yes"/>
      <point x="114" y="6"/>
      <point x="26" y="81"/>
      <point x="26" y="144" type="qcurve" smooth="yes"/>
      <point x="26" y="211"/>
      <point x="138" y="279"/>
      <point x="247" y="279" type="qcurve" smooth="yes"/>
      <point x="265" y="279"/>
      <point x="296" y="278"/>
      <point x="319" y="277" type="qcurve"/>
      <point x="319" y="288"/>
      <point x="319" y="309"/>
      <point x="319" y="319" type="qcurve" smooth="yes"/>
      <point x="319" y="403"/>
      <point x="283" y="477"/>
      <point x="243" y="477" type="qcurve" smooth="yes"/>
      <point x="202" y="477"/>
      <point x="147" y="401"/>
      <point x="145" y="341" type="qcurve"/>
      <point x="109" y="344"/>
      <point x="63" y="370"/>
      <point x="52" y="392" type="qcurve"/>
      <point x="65" y="455"/>
      <point x="180" y="543"/>
      <point x="254" y="543" type="qcurve" smooth="yes"/>
      <point x="338" y="543"/>
      <point x="423" y="444"/>
      <point x="423" y="345" type="qcurve" smooth="yes"/>
      <point x="423" y="278"/>
      <point x="387" y="57"/>
      <point x="362" y="-35" type="qcurve"/>
      <point x="354" y="-35"/>
      <point x="335" y="-33"/>
      <point x="315" y="-31" type="qcurve"/>
      <point x="284" y="-58"/>
      <point x="254" y="-110"/>
      <point x="254" y="-137" type="qcurve" smooth="yes"/>
      <point x="254" y="-154"/>
      <point x="272" y="-173"/>
      <point x="287" y="-173" type="qcurve" smooth="yes"/>
      <point x="305" y="-173"/>
      <point x="333" y="-153"/>
    </contour>
  </outline>
</glyph>
<glyph name="Eogonek" format="1">
  <advance width="541"/>
  <unicode hex="0118"/>
  <outline>
    <contour>
      <point x="557" y="-161" type="qcurve"/>
      <point x="537" y="-190"/>
      <point x="483" y="-219"/>
      <point x="449" y="-219" type="qcurve" smooth="yes"/>
      <point x="410" y="-219"/>
      <point x="364" y="-177"/>
      <point x="364" y="-141" type="qcurve" smooth="yes"/>
      <point x="364" y="-108"/>
      <point x="401" y="-50"/>
      <point x="441" y="-20" type="qcurve"/>
      <point x="375" y="-28"/>
      <point x="209" y="-39"/>
      <point x="128" y="-41" type="qcurve"/>
      <point x="100" y="140"/>
      <point x="62" y="544"/>
      <point x="60" y="688" type="qcurve"/>
      <point x="203" y="714"/>
      <point x="384" y="733"/>
      <point x="479" y="735" type="qcurve"/>
      <point x="480" y="714"/>
      <point x="476" y="669"/>
      <point x="471" y="646" type="qcurve"/>
      <point x="395" y="646"/>
      <point x="252" y="636"/>
      <point x="181" y="626" type="qcurve"/>
      <point x="179" y="569"/>
      <point x="180" y="452"/>
      <point x="183" y="392" type="qcurve"/>
      <point x="263" y="408"/>
      <point x="372" y="423"/>
      <point x="426" y="427" type="qcurve"/>
      <point x="431" y="406"/>
      <point x="435" y="365"/>
      <point x="434" y="342" type="qcurve"/>
      <point x="358" y="337"/>
      <point x="247" y="326"/>
      <point x="188" y="316" type="qcurve"/>
      <point x="192" y="257"/>
      <point x="206" y="116"/>
      <point x="216" y="42" type="qcurve"/>
      <point x="286" y="44"/>
      <point x="435" y="61"/>
      <point x="495" y="74" type="qcurve"/>
      <point x="500" y="60"/>
      <point x="504" y="10"/>
      <point x="503" y="-12" type="qcurve"/>
      <point x="470" y="-40"/>
      <point x="438" y="-95"/>
      <point x="438" y="-123" type="qcurve" smooth="yes"/>
      <point x="438" y="-141"/>
      <point x="455" y="-160"/>
      <point x="470" y="-160" type="qcurve" smooth="yes"/>
      <point x="487" y="-160"/>
      <point x="515" y="-139"/>
      <point x="528" y="-117" type="qcurve"/>
      <point x="538" y="-125"/>
      <point x="552" y="-146"/>
    </contour>
  </outline>
</glyph>
<glyph name="eogonek" format="1">
  <advance width="461"/>
  <unicode hex="0119"/>
  <outline>
    <contour>
      <point x="148" y="309" type="qcurve"/>
      <point x="173" y="300"/>
      <point x="231" y="291"/>
      <point x="260" y="291" type="qcurve" smooth="yes"/>
      <point x="269" y="291"/>
      <point x="295" y="294"/>
      <point x="301" y="295" type="qcurve"/>
      <point x="308" y="320"/>
      <point x="315" y="369"/>
      <point x="315" y="389" type="qcurve" smooth="yes"/>
      <point x="315" y="427"/>
      <point x="290" y="461"/>
      <point x="263" y="461" type="qcurve" smooth="yes"/>
      <point x="227" y="461"/>
      <point x="165" y="377"/>
    </contour>
    <contour>
      <point x="382" y="-81" type="qcurve"/>
      <point x="391" y="-89"/>
      <point x="404" y="-111"/>
      <point x="410" y="-125" type="qcurve"/>
      <point x="391" y="-152"/>
      <point x="338" y="-180"/>
      <point x="305" y="-180" type="qcurve" smooth="yes"/>
      <point x="265" y="-180"/>
      <point x="217" y="-137"/>
      <point x="217" y="-101" type="qcurve" smooth="yes"/>
      <point x="217" y="-80"/>
      <point x="233" y="-42"/>
      <point x="250" y="-23" type="qcurve"/>
      <point x="242" y="-24"/>
      <point x="224" y="-26"/>
      <point x="215" y="-26" type="qcurve" smooth="yes"/>
      <point x="128" y="-26"/>
      <point x="30" y="99"/>
      <point x="30" y="205" type="qcurve" smooth="yes"/>
      <point x="30" y="329"/>
      <point x="173" y="526"/>
      <point x="271" y="526" type="qcurve" smooth="yes"/>
      <point x="336" y="526"/>
      <point x="412" y="448"/>
      <point x="412" y="383" type="qcurve" smooth="yes"/>
      <point x="412" y="349"/>
      <point x="399" y="277"/>
      <point x="388" y="249" type="qcurve"/>
      <point x="364" y="239"/>
      <point x="298" y="230"/>
      <point x="254" y="230" type="qcurve" smooth="yes"/>
      <point x="225" y="230"/>
      <point x="165" y="240"/>
      <point x="137" y="249" type="qcurve"/>
      <point x="136" y="229"/>
      <point x="135" y="213"/>
      <point x="135" y="206" type="qcurve" smooth="yes"/>
      <point x="135" y="132"/>
      <point x="184" y="42"/>
      <point x="227" y="42" type="qcurve" smooth="yes"/>
      <point x="261" y="42"/>
      <point x="333" y="115"/>
      <point x="347" y="163" type="qcurve"/>
      <point x="368" y="159"/>
      <point x="412" y="136"/>
      <point x="427" y="120" type="qcurve"/>
      <point x="414" y="87"/>
      <point x="377" y="40"/>
      <point x="347" y="18" type="qcurve" smooth="yes"/>
      <point x="321" y="0"/>
      <point x="291" y="-54"/>
      <point x="291" y="-82" type="qcurve" smooth="yes"/>
      <point x="291" y="-100"/>
      <point x="309" y="-124"/>
      <point x="324" y="-124" type="qcurve" smooth="yes"/>
      <point x="341" y="-124"/>
      <point x="369" y="-103"/>
    </contour>
  </outline>
</glyph>
<glyph name="Iogonek" format="1">
  <advance width="258"/>
  <unicode hex="012E"/>
  <outline>
    <contour>
      <point x="216" y="-169" type="qcurve"/>
      <point x="195" y="-199"/>
      <point x="144" y="-227"/>
      <point x="110" y="-227" type="qcurve" smooth="yes"/>
      <point x="70" y="-227"/>
      <point x="23" y="-186"/>
      <point x="23" y="-151" type="qcurve" smooth="yes"/>
      <point x="23" y="-118"/>
      <point x="60" y="-58"/>
      <point x="100" y="-28" type="qcurve"/>
      <point x="97" y="-29"/>
      <point x="90" y="-29"/>
      <point x="83" y="-29" type="qcurve"/>
      <point x="86" y="167"/>
      <point x="75" y="516"/>
      <point x="62" y="664" type="qcurve"/>
      <point x="77" y="673"/>
      <point x="113" y="682"/>
      <point x="132" y="682" type="qcurve" smooth="yes"/>
      <point x="142" y="682"/>
      <point x="161" y="680"/>
      <point x="179" y="677" type="qcurve"/>
      <point x="181" y="636"/>
      <point x="183" y="550"/>
      <point x="183" y="496" type="qcurve" smooth="yes"/>
      <point x="183" y="330"/>
      <point x="178" y="98"/>
      <point x="173" y="-18" type="qcurve"/>
      <point x="171" y="-19"/>
      <point x="165" y="-20"/>
      <point x="161" y="-21" type="qcurve"/>
      <point x="129" y="-48"/>
      <point x="97" y="-103"/>
      <point x="97" y="-131" type="qcurve" smooth="yes"/>
      <point x="97" y="-149"/>
      <point x="114" y="-168"/>
      <point x="130" y="-168" type="qcurve" smooth="yes"/>
      <point x="147" y="-168"/>
      <point x="175" y="-147"/>
      <point x="188" y="-125" type="qcurve"/>
      <point x="197" y="-133"/>
      <point x="211" y="-155"/>
    </contour>
  </outline>
</glyph>
<glyph name="iogonek" format="1">
  <advance width="229"/>
  <unicode hex="012F"/>
  <outline>
    <contour>
      <point x="219" y="731" type="qcurve"/>
      <point x="209" y="707"/>
      <point x="188" y="642"/>
      <point x="183" y="615" type="qcurve"/>
      <point x="168" y="612"/>
      <point x="124" y="610"/>
      <point x="94" y="611" type="qcurve"/>
      <point x="91" y="623"/>
      <point x="89" y="645"/>
      <point x="89" y="656" type="qcurve" smooth="yes"/>
      <point x="89" y="676"/>
      <point x="96" y="719"/>
      <point x="102" y="733" type="qcurve"/>
      <point x="115" y="740"/>
      <point x="143" y="745"/>
      <point x="162" y="744" type="qcurve" smooth="yes"/>
      <point x="179" y="744"/>
      <point x="207" y="738"/>
    </contour>
    <contour>
      <point x="186" y="-151" type="qcurve"/>
      <point x="165" y="-181"/>
      <point x="114" y="-210"/>
      <point x="80" y="-210" type="qcurve" smooth="yes"/>
      <point x="41" y="-210"/>
      <point x="-6" y="-168"/>
      <point x="-6" y="-134" type="qcurve" smooth="yes"/>
      <point x="-6" y="-99"/>
      <point x="33" y="-38"/>
      <point x="73" y="-9" type="qcurve"/>
      <point x="71" y="-9"/>
      <point x="66" y="-8"/>
      <point x="61" y="-7" type="qcurve"/>
      <point x="45" y="121"/>
      <point x="50" y="391"/>
      <point x="70" y="500" type="qcurve"/>
      <point x="85" y="508"/>
      <point x="123" y="517"/>
      <point x="143" y="517" type="qcurve" smooth="yes"/>
      <point x="153" y="517"/>
      <point x="173" y="515"/>
      <point x="182" y="513" type="qcurve"/>
      <point x="161" y="417"/>
      <point x="141" y="134"/>
      <point x="146" y="1" type="qcurve"/>
      <point x="140" y="-1"/>
      <point x="133" y="-4"/>
      <point x="130" y="-5" type="qcurve"/>
      <point x="98" y="-32"/>
      <point x="67" y="-87"/>
      <point x="67" y="-114" type="qcurve" smooth="yes"/>
      <point x="67" y="-131"/>
      <point x="84" y="-151"/>
      <point x="100" y="-151" type="qcurve" smooth="yes"/>
      <point x="117" y="-151"/>
      <point x="145" y="-130"/>
      <point x="158" y="-108" type="qcurve"/>
      <point x="166" y="-115"/>
      <point x="180" y="-136"/>
    </contour>
  </outline>
</glyph>
<glyph name="dotlessi" format="1">
  <advance width="229"/>
  <unicode hex="0131"/>
  <outline>
    <contour>
      <point x="70" y="500" type="qcurve"/>
      <point x="85" y="508"/>
      <point x="123" y="517"/>
      <point x="143" y="517" type="qcurve" smooth="yes"/>
      <point x="153" y="517"/>
      <point x="173" y="515"/>
      <point x="182" y="513" type="qcurve"/>
      <point x="161" y="417"/>
      <point x="141" y="134"/>
      <point x="146" y="1" type="qcurve"/>
      <point x="135" y="-4"/>
      <point x="103" y="-10"/>
      <point x="87" y="-10" type="qcurve" smooth="yes"/>
      <point x="79" y="-10"/>
      <point x="66" y="-9"/>
      <point x="61" y="-7" type="qcurve"/>
      <point x="46" y="108"/>
      <point x="51" y="396"/>
    </contour>
  </outline>
</glyph>
<glyph name="Lslash" format="1">
  <advance width="482"/>
  <unicode hex="0141"/>
  <outline>
    <contour>
      <point x="480" y="-72" type="qcurve"/>
      <point x="383" y="-73"/>
      <point x="219" y="-85"/>
      <point x="113" y="-100" type="qcurve"/>
      <point x="104" y="-36"/>
      <point x="90" y="93"/>
      <point x="84" y="157" type="qcurve"/>
      <point x="46" y="134"/>
      <point x="6" y="110"/>
      <point x="-11" y="100" type="qcurve"/>
      <point x="-26" y="114"/>
      <point x="-45" y="144"/>
      <point x="-53" y="166" type="qcurve"/>
      <point x="-25" y="182"/>
      <point x="37" y="220"/>
      <point x="77" y="246" type="qcurve"/>
      <point x="69" y="354"/>
      <point x="62" y="567"/>
      <point x="63" y="661" type="qcurve"/>
      <point x="88" y="668"/>
      <point x="131" y="674"/>
      <point x="153" y="674" type="qcurve" smooth="yes"/>
      <point x="160" y="674"/>
      <point x="175" y="673"/>
      <point x="186" y="672" type="qcurve"/>
      <point x="180" y="611"/>
      <point x="174" y="467"/>
      <point x="175" y="381" type="qcurve" smooth="yes"/>
      <point x="175" y="353"/>
      <point x="175" y="325"/>
      <point x="176" y="313" type="qcurve"/>
      <point x="226" y="348"/>
      <point x="307" y="409"/>
      <point x="345" y="439" type="qcurve"/>
      <point x="358" y="428"/>
      <point x="381" y="393"/>
      <point x="390" y="370" type="qcurve"/>
      <point x="339" y="331"/>
      <point x="235" y="256"/>
      <point x="179" y="219" type="qcurve"/>
      <point x="182" y="159"/>
      <point x="194" y="45"/>
      <point x="202" y="-11" type="qcurve"/>
      <point x="268" y="1"/>
      <point x="408" y="14"/>
      <point x="470" y="14" type="qcurve"/>
      <point x="474" y="-4"/>
      <point x="480" y="-56"/>
    </contour>
  </outline>
</glyph>
<glyph name="lslash" format="1">
  <advance width="228"/>
  <unicode hex="0142"/>
  <outline>
    <contour>
      <point x="166" y="-50" type="qcurve"/>
      <point x="152" y="-54"/>
      <point x="94" y="-61"/>
      <point x="73" y="-61" type="qcurve"/>
      <point x="68" y="2"/>
      <point x="60" y="141"/>
      <point x="57" y="221" type="qcurve"/>
      <point x="52" y="217"/>
      <point x="40" y="209"/>
      <point x="28" y="201" type="qcurve" smooth="yes"/>
      <point x="8" y="186"/>
      <point x="-13" y="172"/>
      <point x="-22" y="166" type="qcurve"/>
      <point x="-37" y="180"/>
      <point x="-58" y="209"/>
      <point x="-67" y="231" type="qcurve"/>
      <point x="-34" y="253"/>
      <point x="26" y="295"/>
      <point x="54" y="316" type="qcurve"/>
      <point x="51" y="431"/>
      <point x="53" y="631"/>
      <point x="57" y="724" type="qcurve"/>
      <point x="71" y="732"/>
      <point x="107" y="742"/>
      <point x="124" y="742" type="qcurve" smooth="yes"/>
      <point x="138" y="742"/>
      <point x="164" y="739"/>
      <point x="177" y="735" type="qcurve"/>
      <point x="170" y="671"/>
      <point x="162" y="501"/>
      <point x="160" y="396" type="qcurve"/>
      <point x="182" y="413"/>
      <point x="225" y="449"/>
      <point x="247" y="468" type="qcurve"/>
      <point x="260" y="457"/>
      <point x="283" y="424"/>
      <point x="294" y="401" type="qcurve"/>
      <point x="259" y="372"/>
      <point x="192" y="319"/>
      <point x="159" y="294" type="qcurve"/>
      <point x="158" y="212"/>
      <point x="162" y="36"/>
    </contour>
  </outline>
</glyph>
<glyph name="OE" format="1">
  <advance width="903"/>
  <unicode hex="0152"/>
  <outline>
    <contour>
      <point x="866" y="-5" type="qcurve"/>
      <point x="792" y="-17"/>
      <point x="585" y="-32"/>
      <point x="491" y="-34" type="qcurve"/>
      <point x="487" y="-4"/>
      <point x="478" y="58"/>
      <point x="473" y="89" type="qcurve"/>
      <point x="440" y="31"/>
      <point x="343" y="-28"/>
      <point x="282" y="-28" type="qcurve" smooth="yes"/>
      <point x="173" y="-28"/>
      <point x="41" y="169"/>
      <point x="41" y="326" type="qcurve" smooth="yes"/>
      <point x="41" y="505"/>
      <point x="192" y="724"/>
      <point x="319" y="724" type="qcurve" smooth="yes"/>
      <point x="353" y="724"/>
      <point x="411" y="706"/>
      <point x="434" y="689" type="qcurve"/>
      <point x="569" y="713"/>
      <point x="748" y="732"/>
      <point x="842" y="733" type="qcurve"/>
      <point x="843" y="712"/>
      <point x="839" y="668"/>
      <point x="834" y="645" type="qcurve"/>
      <point x="752" y="644"/>
      <point x="609" y="634"/>
      <point x="544" y="625" type="qcurve"/>
      <point x="542" y="568"/>
      <point x="543" y="452"/>
      <point x="546" y="392" type="qcurve"/>
      <point x="626" y="408"/>
      <point x="735" y="423"/>
      <point x="789" y="427" type="qcurve"/>
      <point x="794" y="406"/>
      <point x="798" y="365"/>
      <point x="797" y="342" type="qcurve"/>
      <point x="721" y="337"/>
      <point x="610" y="326"/>
      <point x="551" y="316" type="qcurve"/>
      <point x="554" y="261"/>
      <point x="568" y="128"/>
      <point x="579" y="49" type="qcurve"/>
      <point x="649" y="51"/>
      <point x="798" y="68"/>
      <point x="858" y="81" type="qcurve"/>
      <point x="863" y="67"/>
      <point x="867" y="17"/>
    </contour>
    <contour>
      <point x="298" y="47" type="qcurve" smooth="yes"/>
      <point x="364" y="47"/>
      <point x="434" y="215"/>
      <point x="433" y="368" type="qcurve" smooth="yes"/>
      <point x="432" y="508"/>
      <point x="366" y="647"/>
      <point x="300" y="647" type="qcurve" smooth="yes"/>
      <point x="230" y="647"/>
      <point x="153" y="486"/>
      <point x="153" y="342" type="qcurve" smooth="yes"/>
      <point x="153" y="212"/>
      <point x="230" y="47"/>
    </contour>
  </outline>
</glyph>
<glyph name="florin" format="1">
  <advance width="382"/>
  <unicode hex="0192"/>
  <outline>
    <contour>
      <point x="244" y="42" type="qcurve" smooth="yes"/>
      <point x="237" y="-56"/>
      <point x="161" y="-155"/>
      <point x="92" y="-155" type="qcurve" smooth="yes"/>
      <point x="38" y="-155"/>
      <point x="-24" y="-83"/>
      <point x="-24" y="-25" type="qcurve" smooth="yes"/>
      <point x="-24" y="-10"/>
      <point x="-17" y="21"/>
      <point x="-12" y="32" type="qcurve"/>
      <point x="8" y="32"/>
      <point x="49" y="25"/>
      <point x="68" y="19" type="qcurve"/>
      <point x="64" y="9"/>
      <point x="60" y="-15"/>
      <point x="60" y="-30" type="qcurve" smooth="yes"/>
      <point x="60" y="-57"/>
      <point x="82" y="-87"/>
      <point x="101" y="-87" type="qcurve" smooth="yes"/>
      <point x="130" y="-87"/>
      <point x="158" y="-24"/>
      <point x="158" y="41" type="qcurve" smooth="yes"/>
      <point x="158" y="129"/>
      <point x="103" y="361"/>
      <point x="101" y="372" type="qcurve"/>
      <point x="76" y="375"/>
      <point x="30" y="385"/>
      <point x="9" y="391" type="qcurve"/>
      <point x="9" y="402"/>
      <point x="17" y="438"/>
      <point x="21" y="447" type="qcurve"/>
      <point x="42" y="444"/>
      <point x="75" y="440"/>
      <point x="91" y="439" type="qcurve"/>
      <point x="90" y="449"/>
      <point x="88" y="472"/>
      <point x="88" y="483" type="qcurve" smooth="yes"/>
      <point x="86" y="597"/>
      <point x="175" y="724"/>
      <point x="255" y="726" type="qcurve" smooth="yes"/>
      <point x="313" y="727"/>
      <point x="381" y="656"/>
      <point x="382" y="598" type="qcurve" smooth="yes"/>
      <point x="382" y="583"/>
      <point x="375" y="549"/>
      <point x="370" y="539" type="qcurve"/>
      <point x="351" y="539"/>
      <point x="311" y="545"/>
      <point x="289" y="551" type="qcurve"/>
      <point x="293" y="560"/>
      <point x="297" y="586"/>
      <point x="297" y="601" type="qcurve" smooth="yes"/>
      <point x="297" y="627"/>
      <point x="272" y="658"/>
      <point x="251" y="658" type="qcurve" smooth="yes"/>
      <point x="220" y="657"/>
      <point x="189" y="586"/>
      <point x="189" y="515" type="qcurve" smooth="yes"/>
      <point x="189" y="495"/>
      <point x="191" y="455"/>
      <point x="194" y="433" type="qcurve"/>
      <point x="205" y="432"/>
      <point x="232" y="432"/>
      <point x="260" y="432" type="qcurve" smooth="yes"/>
      <point x="288" y="432"/>
      <point x="332" y="435"/>
      <point x="351" y="439" type="qcurve"/>
      <point x="351" y="425"/>
      <point x="347" y="385"/>
      <point x="344" y="367" type="qcurve"/>
      <point x="331" y="364"/>
      <point x="289" y="361"/>
      <point x="263" y="361" type="qcurve" smooth="yes"/>
      <point x="239" y="361"/>
      <point x="215" y="361"/>
      <point x="205" y="362" type="qcurve"/>
      <point x="209" y="340"/>
      <point x="233" y="235"/>
      <point x="238" y="204" type="qcurve" smooth="yes"/>
      <point x="245" y="161"/>
      <point x="248" y="82"/>
    </contour>
  </outline>
</glyph>
<glyph name="circumflex" format="1">
  <advance width="260"/>
  <unicode hex="02C6"/>
  <outline>
    <contour>
      <point x="260" y="616" type="qcurve"/>
      <point x="247" y="601"/>
      <point x="224" y="584"/>
      <point x="210" y="579" type="qcurve"/>
      <point x="182" y="600"/>
      <point x="144" y="637"/>
      <point x="126" y="662" type="qcurve"/>
      <point x="111" y="640"/>
      <point x="71" y="600"/>
      <point x="43" y="577" type="qcurve"/>
      <point x="27" y="583"/>
      <point x="2" y="602"/>
      <point x="-6" y="613" type="qcurve"/>
      <point x="32" y="647"/>
      <point x="75" y="703"/>
      <point x="91" y="739" type="qcurve"/>
      <point x="98" y="740"/>
      <point x="116" y="742"/>
      <point x="124" y="742" type="qcurve" smooth="yes"/>
      <point x="133" y="742"/>
      <point x="153" y="740"/>
      <point x="161" y="739" type="qcurve"/>
      <point x="175" y="708"/>
      <point x="218" y="653"/>
    </contour>
    <contour>
      <point x="131" y="560" type="move" name="_top"/>
    </contour>
  </outline>
</glyph>
<glyph name="uni02C9" format="1">
  <advance width="259"/>
  <unicode hex="02C9"/>
  <outline>
    <contour>
      <point x="25" y="639" type="qcurve"/>
      <point x="24" y="657"/>
      <point x="26" y="694"/>
      <point x="28" y="705" type="qcurve"/>
      <point x="81" y="696"/>
      <point x="181" y="693"/>
      <point x="233" y="699" type="qcurve"/>
      <point x="235" y="681"/>
      <point x="234" y="648"/>
      <point x="232" y="632" type="qcurve"/>
      <point x="165" y="624"/>
      <point x="56" y="627"/>
    </contour>
  </outline>
</glyph>
<glyph name="ring" format="1">
  <advance width="260"/>
  <unicode hex="02DA"/>
  <outline>
    <contour>
      <point x="29" y="664" type="qcurve" smooth="yes"/>
      <point x="29" y="710"/>
      <point x="90" y="766"/>
      <point x="140" y="766" type="qcurve" smooth="yes"/>
      <point x="181" y="766"/>
      <point x="229" y="723"/>
      <point x="229" y="686" type="qcurve" smooth="yes"/>
      <point x="229" y="636"/>
      <point x="169" y="576"/>
      <point x="119" y="576" type="qcurve" smooth="yes"/>
      <point x="79" y="576"/>
      <point x="29" y="625"/>
    </contour>
    <contour>
      <point x="164" y="678" type="qcurve" smooth="yes"/>
      <point x="164" y="703"/>
      <point x="147" y="729"/>
      <point x="131" y="729" type="qcurve" smooth="yes"/>
      <point x="114" y="729"/>
      <point x="92" y="694"/>
      <point x="92" y="665" type="qcurve" smooth="yes"/>
      <point x="92" y="643"/>
      <point x="111" y="616"/>
      <point x="127" y="616" type="qcurve" smooth="yes"/>
      <point x="144" y="616"/>
      <point x="164" y="650"/>
    </contour>
    <contour>
      <point x="130" y="560" type="move" name="_top"/>
    </contour>
  </outline>
</glyph>
<glyph name="tilde" format="1">
  <advance width="260"/>
  <unicode hex="02DC"/>
  <outline>
    <contour>
      <point x="130" y="710" type="qcurve" smooth="yes"/>
      <point x="147" y="701"/>
      <point x="164" y="695"/>
      <point x="172" y="695" type="qcurve" smooth="yes"/>
      <point x="187" y="695"/>
      <point x="199" y="713"/>
      <point x="198" y="734" type="qcurve"/>
      <point x="212" y="735"/>
      <point x="236" y="730"/>
      <point x="248" y="725" type="qcurve"/>
      <point x="252" y="680"/>
      <point x="218" y="631"/>
      <point x="183" y="631" type="qcurve" smooth="yes"/>
      <point x="170" y="631"/>
      <point x="144" y="639"/>
      <point x="123" y="651" type="qcurve" smooth="yes"/>
      <point x="107" y="660"/>
      <point x="93" y="665"/>
      <point x="86" y="665" type="qcurve" smooth="yes"/>
      <point x="72" y="665"/>
      <point x="60" y="646"/>
      <point x="61" y="628" type="qcurve"/>
      <point x="49" y="627"/>
      <point x="22" y="631"/>
      <point x="10" y="635" type="qcurve"/>
      <point x="6" y="678"/>
      <point x="41" y="729"/>
      <point x="75" y="729" type="qcurve" smooth="yes"/>
      <point x="87" y="729"/>
      <point x="110" y="722"/>
    </contour>
    <contour>
      <point x="130" y="560" type="move" name="_top"/>
    </contour>
  </outline>
</glyph>
<glyph name="bn_anusvar" format="1">
  <advance width="445"/>
  <unicode hex="0982"/>
  <outline>
    <contour>
      <point x="232" y="616" type="qcurve" smooth="yes"/>
      <point x="294" y="616"/>
      <point x="374" y="539"/>
      <point x="373" y="480" type="qcurve" smooth="yes"/>
      <point x="372" y="416"/>
      <point x="279" y="326"/>
      <point x="214" y="326" type="qcurve" smooth="yes"/>
      <point x="154" y="326"/>
      <point x="74" y="403"/>
      <point x="75" y="461" type="qcurve" smooth="yes"/>
      <point x="76" y="526"/>
      <point x="167" y="616"/>
    </contour>
    <contour>
      <point x="211" y="552" type="qcurve" smooth="yes"/>
      <point x="178" y="552"/>
      <point x="141" y="515"/>
      <point x="141" y="483" type="qcurve" smooth="yes"/>
      <point x="141" y="443"/>
      <point x="194" y="390"/>
      <point x="234" y="390" type="qcurve" smooth="yes"/>
      <point x="267" y="390"/>
      <point x="307" y="428"/>
      <point x="307" y="461" type="qcurve" smooth="yes"/>
      <point x="307" y="501"/>
      <point x="252" y="552"/>
    </contour>
    <contour>
      <point x="59" y="315" type="qcurve"/>
      <point x="169" y="274"/>
      <point x="373" y="99"/>
      <point x="429" y="-3" type="qcurve"/>
      <point x="421" y="-18"/>
      <point x="392" y="-43"/>
      <point x="374" y="-51" type="qcurve"/>
      <point x="310" y="51"/>
      <point x="118" y="204"/>
      <point x="19" y="232" type="qcurve"/>
      <point x="25" y="258"/>
      <point x="45" y="298"/>
    </contour>
  </outline>
</glyph>
<glyph name="bn_aa" format="1">
  <advance width="906"/>
  <unicode hex="0986"/>
  <outline>
    <contour>
      <point x="833" y="481" type="qcurve"/>
      <point x="818" y="353"/>
      <point x="814" y="95"/>
      <point x="826" y="-34" type="qcurve"/>
      <point x="804" y="-38"/>
      <point x="744" y="-41"/>
      <point x="723" y="-40" type="qcurve"/>
      <point x="726" y="134"/>
      <point x="738" y="341"/>
      <point x="749" y="449" type="qcurve"/>
      <point x="741" y="482"/>
      <point x="663" y="528"/>
      <point x="595" y="541" type="qcurve"/>
      <point x="586" y="495"/>
      <point x="577" y="371"/>
      <point x="577" y="297" type="qcurve" smooth="yes"/>
      <point x="577" y="195"/>
      <point x="590" y="43"/>
      <point x="603" y="-4" type="qcurve"/>
      <point x="587" y="-13"/>
      <point x="538" y="-23"/>
      <point x="511" y="-23" type="qcurve"/>
      <point x="486" y="18"/>
      <point x="426" y="85"/>
      <point x="392" y="112" type="qcurve"/>
      <point x="373" y="92"/>
      <point x="324" y="72"/>
      <point x="295" y="72" type="qcurve" smooth="yes"/>
      <point x="207" y="72"/>
      <point x="65" y="248"/>
      <point x="13" y="421" type="qcurve"/>
      <point x="26" y="431"/>
      <point x="54" y="448"/>
      <point x="68" y="453" type="qcurve"/>
      <point x="114" y="314"/>
      <point x="227" y="166"/>
      <point x="288" y="166" type="qcurve" smooth="yes"/>
      <point x="331" y="166"/>
      <point x="375" y="230"/>
      <point x="375" y="291" type="qcurve" smooth="yes"/>
      <point x="375" y="352"/>
      <point x="336" y="427"/>
      <point x="304" y="427" type="qcurve" smooth="yes"/>
      <point x="285" y="427"/>
      <point x="263" y="394"/>
      <point x="263" y="364" type="qcurve" smooth="yes"/>
      <point x="263" y="348"/>
      <point x="273" y="313"/>
      <point x="281" y="300" type="qcurve"/>
      <point x="259" y="300"/>
      <point x="214" y="307"/>
      <point x="202" y="313" type="qcurve"/>
      <point x="196" y="328"/>
      <point x="190" y="358"/>
      <point x="190" y="374" type="qcurve" smooth="yes"/>
      <point x="190" y="426"/>
      <point x="244" y="493"/>
      <point x="287" y="493" type="qcurve" smooth="yes"/>
      <point x="353" y="493"/>
      <point x="442" y="355"/>
      <point x="442" y="259" type="qcurve" smooth="yes"/>
      <point x="442" y="232"/>
      <point x="433" y="183"/>
      <point x="424" y="162" type="qcurve"/>
      <point x="446" y="143"/>
      <point x="483" y="99"/>
      <point x="498" y="75" type="qcurve"/>
      <point x="497" y="103"/>
      <point x="496" y="149"/>
      <point x="496" y="172" type="qcurve" smooth="yes"/>
      <point x="496" y="291"/>
      <point x="513" y="489"/>
      <point x="528" y="551" type="qcurve"/>
      <point x="493" y="555"/>
      <point x="411" y="559"/>
      <point x="366" y="559" type="qcurve" smooth="yes"/>
      <point x="274" y="559"/>
      <point x="86" y="541"/>
      <point x="0" y="524" type="qcurve"/>
      <point x="-6" y="542"/>
      <point x="-7" y="590"/>
      <point x="0" y="601" type="qcurve"/>
      <point x="78" y="619"/>
      <point x="272" y="640"/>
      <point x="370" y="640" type="qcurve" smooth="yes"/>
      <point x="510" y="640"/>
      <point x="734" y="589"/>
      <point x="786" y="543" type="qcurve"/>
      <point x="805" y="562"/>
      <point x="867" y="592"/>
      <point x="906" y="601" type="qcurve"/>
      <point x="912" y="591"/>
      <point x="911" y="543"/>
      <point x="906" y="524" type="qcurve"/>
      <point x="880" y="517"/>
      <point x="843" y="496"/>
    </contour>
    <contour>
      <point x="474" y="690" type="move" name="chandrabindu"/>
    </contour>
  </outline>
</glyph>
<glyph name="bn_u" format="1">
  <advance width="580"/>
  <unicode hex="0989"/>
  <outline>
    <contour>
      <point x="559" y="208" type="qcurve" smooth="yes"/>
      <point x="559" y="100"/>
      <point x="455" y="-24"/>
      <point x="363" y="-24" type="qcurve" smooth="yes"/>
      <point x="243" y="-24"/>
      <point x="71" y="189"/>
      <point x="10" y="424" type="qcurve"/>
      <point x="26" y="435"/>
      <point x="58" y="450"/>
      <point x="74" y="456" type="qcurve"/>
      <point x="131" y="255"/>
      <point x="273" y="68"/>
      <point x="368" y="68" type="qcurve" smooth="yes"/>
      <point x="429" y="68"/>
      <point x="495" y="152"/>
      <point x="495" y="230" type="qcurve" smooth="yes"/>
      <point x="495" y="252"/>
      <point x="490" y="298"/>
      <point x="485" y="320" type="qcurve"/>
      <point x="450" y="274"/>
      <point x="387" y="233"/>
      <point x="353" y="233" type="qcurve" smooth="yes"/>
      <point x="298" y="233"/>
      <point x="222" y="328"/>
      <point x="222" y="390" type="qcurve" smooth="yes"/>
      <point x="222" y="416"/>
      <point x="235" y="496"/>
      <point x="249" y="554" type="qcurve"/>
      <point x="183" y="553"/>
      <point x="61" y="538"/>
      <point x="0" y="524" type="qcurve"/>
      <point x="-3" y="533"/>
      <point x="-7" y="556"/>
      <point x="-7" y="567" type="qcurve" smooth="yes"/>
      <point x="-7" y="577"/>
      <point x="-3" y="595"/>
      <point x="0" y="601" type="qcurve"/>
      <point x="65" y="619"/>
      <point x="211" y="636"/>
      <point x="291" y="636" type="qcurve" smooth="yes"/>
      <point x="355" y="636"/>
      <point x="473" y="625"/>
      <point x="527" y="614" type="qcurve"/>
      <point x="513" y="661"/>
      <point x="462" y="708"/>
      <point x="424" y="708" type="qcurve" smooth="yes"/>
      <point x="407" y="708"/>
      <point x="367" y="703"/>
      <point x="326" y="694" type="qcurve" smooth="yes"/>
      <point x="286" y="686"/>
      <point x="246" y="681"/>
      <point x="230" y="681" type="qcurve" smooth="yes"/>
      <point x="179" y="681"/>
      <point x="100" y="733"/>
      <point x="69" y="788" type="qcurve"/>
      <point x="79" y="802"/>
      <point x="107" y="829"/>
      <point x="121" y="837" type="qcurve"/>
      <point x="149" y="792"/>
      <point x="202" y="756"/>
      <point x="236" y="756" type="qcurve" smooth="yes"/>
      <point x="248" y="756"/>
      <point x="282" y="760"/>
      <point x="319" y="768" type="qcurve" smooth="yes"/>
      <point x="363" y="777"/>
      <point x="406" y="782"/>
      <point x="423" y="782" type="qcurve" smooth="yes"/>
      <point x="485" y="782"/>
      <point x="567" y="686"/>
      <point x="580" y="601" type="qcurve"/>
      <point x="583" y="596"/>
      <point x="587" y="578"/>
      <point x="587" y="568" type="qcurve" smooth="yes"/>
      <point x="587" y="556"/>
      <point x="583" y="532"/>
      <point x="580" y="524" type="qcurve"/>
      <point x="529" y="537"/>
      <point x="407" y="552"/>
      <point x="338" y="554" type="qcurve"/>
      <point x="314" y="477"/>
      <point x="294" y="388"/>
      <point x="294" y="362" type="qcurve" smooth="yes"/>
      <point x="294" y="338"/>
      <point x="316" y="310"/>
      <point x="336" y="310" type="qcurve" smooth="yes"/>
      <point x="355" y="310"/>
      <point x="408" y="362"/>
      <point x="451" y="424" type="qcurve"/>
      <point x="464" y="421"/>
      <point x="499" y="409"/>
      <point x="516" y="400" type="qcurve"/>
      <point x="537" y="357"/>
      <point x="559" y="258"/>
    </contour>
    <contour>
      <point x="291" y="804" type="move" name="chandrabindu"/>
    </contour>
  </outline>
</glyph>
<glyph name="bn_ri" format="1">
  <advance width="705"/>
  <unicode hex="098B"/>
  <outline>
    <contour>
      <point x="185" y="255" type="qcurve"/>
      <point x="244" y="223"/>
      <point x="335" y="134"/>
      <point x="364" y="79" type="qcurve"/>
      <point x="365" y="152"/>
      <point x="375" y="301"/>
      <point x="385" y="372" type="qcurve"/>
      <point x="336" y="352"/>
      <point x="227" y="289"/>
    </contour>
    <contour>
      <point x="439" y="74" type="qcurve" smooth="yes"/>
      <point x="439" y="33"/>
      <point x="440" y="-3"/>
      <point x="441" y="-17" type="qcurve"/>
      <point x="429" y="-21"/>
      <point x="394" y="-24"/>
      <point x="370" y="-23" type="qcurve"/>
      <point x="327" y="67"/>
      <point x="205" y="177"/>
      <point x="126" y="198" type="qcurve"/>
      <point x="108" y="224"/>
      <point x="93" y="269"/>
      <point x="93" y="298" type="qcurve"/>
      <point x="134" y="338"/>
      <point x="259" y="417"/>
      <point x="330" y="448" type="qcurve"/>
      <point x="327" y="466"/>
      <point x="311" y="499"/>
      <point x="300" y="512" type="qcurve"/>
      <point x="272" y="475"/>
      <point x="192" y="430"/>
      <point x="152" y="430" type="qcurve" smooth="yes"/>
      <point x="99" y="430"/>
      <point x="37" y="495"/>
      <point x="37" y="551" type="qcurve" smooth="yes"/>
      <point x="37" y="567"/>
      <point x="42" y="592"/>
      <point x="47" y="601" type="qcurve"/>
      <point x="64" y="610"/>
      <point x="109" y="619"/>
      <point x="133" y="618" type="qcurve"/>
      <point x="126" y="609"/>
      <point x="119" y="582"/>
      <point x="119" y="568" type="qcurve" smooth="yes"/>
      <point x="119" y="542"/>
      <point x="145" y="515"/>
      <point x="170" y="515" type="qcurve" smooth="yes"/>
      <point x="202" y="515"/>
      <point x="267" y="555"/>
      <point x="290" y="588" type="qcurve"/>
      <point x="339" y="559" type="line"/>
      <point x="354" y="541"/>
      <point x="375" y="494"/>
      <point x="380" y="468" type="qcurve"/>
      <point x="383" y="470"/>
      <point x="391" y="473"/>
      <point x="398" y="475" type="qcurve"/>
      <point x="401" y="506"/>
      <point x="412" y="573"/>
      <point x="422" y="619" type="qcurve"/>
      <point x="444" y="618"/>
      <point x="487" y="608"/>
      <point x="505" y="598" type="qcurve"/>
      <point x="478" y="510"/>
      <point x="448" y="332"/>
      <point x="443" y="229" type="qcurve"/>
      <point x="478" y="205"/>
      <point x="538" y="145"/>
      <point x="562" y="109" type="qcurve"/>
      <point x="558" y="146"/>
      <point x="553" y="226"/>
      <point x="553" y="267" type="qcurve" smooth="yes"/>
      <point x="553" y="362"/>
      <point x="577" y="528"/>
      <point x="602" y="604" type="qcurve"/>
      <point x="619" y="604"/>
      <point x="658" y="597"/>
      <point x="672" y="591" type="qcurve"/>
      <point x="650" y="531"/>
      <point x="625" y="380"/>
      <point x="625" y="307" type="qcurve" smooth="yes"/>
      <point x="625" y="224"/>
      <point x="650" y="68"/>
      <point x="673" y="8" type="qcurve"/>
      <point x="657" y="0"/>
      <point x="608" y="-9"/>
      <point x="586" y="-8" type="qcurve"/>
      <point x="555" y="46"/>
      <point x="483" y="126"/>
      <point x="440" y="153" type="qcurve"/>
      <point x="439" y="139"/>
      <point x="439" y="107"/>
    </contour>
    <contour>
      <point x="394" y="690" type="move" name="chandrabindu"/>
    </contour>
  </outline>
</glyph>
<glyph name="bn_e" format="1">
  <advance width="602"/>
  <unicode hex="098F"/>
  <note>
    uni098F
  </note>
  <outline>
    <contour>
      <point x="513" y="-12" type="qcurve"/>
      <point x="496" y="-18"/>
      <point x="456" y="-25"/>
      <point x="435" y="-25" type="qcurve"/>
      <point x="422" y="0"/>
      <point x="405" y="30"/>
      <point x="402" y="34" type="qcurve" smooth="yes"/>
      <point x="390" y="49"/>
      <point x="360" y="62"/>
      <point x="341" y="62" type="qcurve" smooth="yes"/>
      <point x="327" y="62"/>
      <point x="290" y="55"/>
      <point x="251" y="43" type="qcurve" smooth="yes"/>
      <point x="207" y="29"/>
      <point x="163" y="21"/>
      <point x="145" y="21" type="qcurve" smooth="yes"/>
      <point x="89" y="21"/>
      <point x="22" y="95"/>
      <point x="22" y="156" type="qcurve" smooth="yes"/>
      <point x="22" y="188"/>
      <point x="42" y="265"/>
      <point x="60" y="300" type="qcurve"/>
      <point x="80" y="299"/>
      <point x="112" y="291"/>
      <point x="125" y="283" type="qcurve"/>
      <point x="114" y="262"/>
      <point x="99" y="206"/>
      <point x="99" y="184" type="qcurve" smooth="yes"/>
      <point x="99" y="152"/>
      <point x="132" y="118"/>
      <point x="161" y="118" type="qcurve" smooth="yes"/>
      <point x="173" y="118"/>
      <point x="205" y="125"/>
      <point x="240" y="137" type="qcurve" smooth="yes"/>
      <point x="278" y="149"/>
      <point x="315" y="157"/>
      <point x="330" y="157" type="qcurve" smooth="yes"/>
      <point x="365" y="157"/>
      <point x="411" y="115"/>
      <point x="429" y="66" type="qcurve"/>
      <point x="443" y="156"/>
      <point x="458" y="395"/>
      <point x="458" y="514" type="qcurve" smooth="yes"/>
      <point x="458" y="545"/>
      <point x="431" y="581"/>
      <point x="407" y="581" type="qcurve" smooth="yes"/>
      <point x="361" y="581"/>
      <point x="258" y="465"/>
      <point x="258" y="411" type="qcurve" smooth="yes"/>
      <point x="258" y="386"/>
      <point x="284" y="360"/>
      <point x="308" y="360" type="qcurve" smooth="yes"/>
      <point x="327" y="360"/>
      <point x="362" y="378"/>
      <point x="379" y="396" type="qcurve"/>
      <point x="381" y="392"/>
      <point x="383" y="379"/>
      <point x="383" y="370" type="qcurve" smooth="yes"/>
      <point x="383" y="352"/>
      <point x="373" y="314"/>
      <point x="365" y="302" type="qcurve"/>
      <point x="350" y="290"/>
      <point x="309" y="276"/>
      <point x="286" y="276" type="qcurve" smooth="yes"/>
      <point x="231" y="276"/>
      <point x="162" y="343"/>
      <point x="162" y="398" type="qcurve" smooth="yes"/>
      <point x="162" y="439"/>
      <point x="201" y="525"/>
      <point x="236" y="563" type="qcurve" smooth="yes"/>
      <point x="273" y="601"/>
      <point x="358" y="645"/>
      <point x="397" y="645" type="qcurve" smooth="yes"/>
      <point x="457" y="645"/>
      <point x="540" y="553"/>
      <point x="540" y="484" type="qcurve" smooth="yes"/>
      <point x="540" y="343"/>
      <point x="527" y="99"/>
    </contour>
    <contour>
      <point x="378" y="690" type="move" name="chandrabindu"/>
    </contour>
  </outline>
</glyph>
<glyph name="bn_ai" format="1">
  <advance width="671"/>
  <unicode hex="0990"/>
  <outline>
    <contour>
      <point x="513" y="-12" type="qcurve"/>
      <point x="496" y="-18"/>
      <point x="456" y="-25"/>
      <point x="435" y="-25" type="qcurve"/>
      <point x="422" y="0"/>
      <point x="405" y="30"/>
      <point x="402" y="34" type="qcurve" smooth="yes"/>
      <point x="390" y="49"/>
      <point x="360" y="62"/>
      <point x="341" y="62" type="qcurve" smooth="yes"/>
      <point x="327" y="62"/>
      <point x="290" y="55"/>
      <point x="251" y="43" type="qcurve" smooth="yes"/>
      <point x="207" y="29"/>
      <point x="163" y="21"/>
      <point x="145" y="21" type="qcurve" smooth="yes"/>
      <point x="89" y="21"/>
      <point x="22" y="95"/>
      <point x="22" y="156" type="qcurve" smooth="yes"/>
      <point x="22" y="188"/>
      <point x="42" y="265"/>
      <point x="60" y="300" type="qcurve"/>
      <point x="80" y="299"/>
      <point x="112" y="291"/>
      <point x="125" y="283" type="qcurve"/>
      <point x="114" y="262"/>
      <point x="99" y="206"/>
      <point x="99" y="184" type="qcurve" smooth="yes"/>
      <point x="99" y="152"/>
      <point x="132" y="118"/>
      <point x="161" y="118" type="qcurve" smooth="yes"/>
      <point x="173" y="118"/>
      <point x="205" y="125"/>
      <point x="240" y="137" type="qcurve" smooth="yes"/>
      <point x="278" y="149"/>
      <point x="315" y="157"/>
      <point x="330" y="157" type="qcurve" smooth="yes"/>
      <point x="365" y="157"/>
      <point x="411" y="115"/>
      <point x="429" y="66" type="qcurve"/>
      <point x="443" y="156"/>
      <point x="458" y="395"/>
      <point x="458" y="514" type="qcurve" smooth="yes"/>
      <point x="458" y="545"/>
      <point x="431" y="581"/>
      <point x="407" y="581" type="qcurve" smooth="yes"/>
      <point x="361" y="581"/>
      <point x="258" y="465"/>
      <point x="258" y="411" type="qcurve" smooth="yes"/>
      <point x="258" y="386"/>
      <point x="284" y="360"/>
      <point x="308" y="360" type="qcurve" smooth="yes"/>
      <point x="327" y="360"/>
      <point x="362" y="378"/>
      <point x="379" y="396" type="qcurve"/>
      <point x="381" y="392"/>
      <point x="383" y="379"/>
      <point x="383" y="370" type="qcurve" smooth="yes"/>
      <point x="383" y="352"/>
      <point x="373" y="314"/>
      <point x="365" y="302" type="qcurve"/>
      <point x="350" y="290"/>
      <point x="309" y="276"/>
      <point x="286" y="276" type="qcurve" smooth="yes"/>
      <point x="231" y="276"/>
      <point x="162" y="343"/>
      <point x="162" y="398" type="qcurve" smooth="yes"/>
      <point x="162" y="439"/>
      <point x="201" y="525"/>
      <point x="236" y="563" type="qcurve" smooth="yes"/>
      <point x="273" y="601"/>
      <point x="358" y="645"/>
      <point x="397" y="645" type="qcurve" smooth="yes"/>
      <point x="456" y="645"/>
      <point x="540" y="555"/>
      <point x="540" y="489" type="qcurve"/>
      <point x="566" y="512"/>
      <point x="595" y="569"/>
      <point x="595" y="598" type="qcurve" smooth="yes"/>
      <point x="595" y="627"/>
      <point x="566" y="663"/>
      <point x="533" y="674" type="qcurve" smooth="yes"/>
      <point x="517" y="679"/>
      <point x="474" y="688"/>
      <point x="427" y="695" type="qcurve" smooth="yes"/>
      <point x="368" y="704"/>
      <point x="305" y="723"/>
      <point x="283" y="737" type="qcurve" smooth="yes"/>
      <point x="255" y="756"/>
      <point x="222" y="817"/>
      <point x="214" y="864" type="qcurve"/>
      <point x="228" y="874"/>
      <point x="264" y="890"/>
      <point x="280" y="894" type="qcurve"/>
      <point x="291" y="835"/>
      <point x="341" y="783"/>
      <point x="404" y="773" type="qcurve"/>
      <point x="478" y="760" type="line" smooth="yes"/>
      <point x="562" y="746"/>
      <point x="644" y="662"/>
      <point x="644" y="592" type="qcurve" smooth="yes"/>
      <point x="644" y="537"/>
      <point x="593" y="438"/>
      <point x="539" y="390" type="qcurve"/>
      <point x="538" y="283"/>
      <point x="525" y="86"/>
    </contour>
    <contour>
      <point x="469" y="804" type="move" name="chandrabindu"/>
    </contour>
  </outline>
</glyph>
<glyph name="bn_ka" format="1">
  <advance width="622"/>
  <unicode hex="0995"/>
  <outline>
    <contour>
      <point x="379" y="286" type="qcurve" smooth="yes"/>
      <point x="379" y="193"/>
      <point x="389" y="38"/>
      <point x="399" y="-10" type="qcurve"/>
      <point x="383" y="-16"/>
      <point x="336" y="-23"/>
      <point x="306" y="-23" type="qcurve"/>
      <point x="261" y="75"/>
      <point x="142" y="190"/>
      <point x="67" y="209" type="qcurve"/>
      <point x="48" y="233"/>
      <point x="29" y="281"/>
      <point x="27" y="310" type="qcurve"/>
      <point x="73" y="363"/>
      <point x="228" y="468"/>
      <point x="315" y="506" type="qcurve"/>
      <point x="316" y="510"/>
      <point x="317" y="521"/>
      <point x="318" y="531" type="qcurve" smooth="yes"/>
      <point x="318" y="541"/>
      <point x="319" y="551"/>
      <point x="320" y="555" type="qcurve"/>
      <point x="316" y="555"/>
      <point x="309" y="555"/>
      <point x="305" y="555" type="qcurve" smooth="yes"/>
      <point x="229" y="555"/>
      <point x="77" y="540"/>
      <point x="0" y="524" type="qcurve"/>
      <point x="-3" y="532"/>
      <point x="-7" y="555"/>
      <point x="-7" y="566" type="qcurve" smooth="yes"/>
      <point x="-7" y="575"/>
      <point x="-3" y="594"/>
      <point x="0" y="601" type="qcurve"/>
      <point x="68" y="618"/>
      <point x="228" y="636"/>
      <point x="309" y="636" type="qcurve" smooth="yes"/>
      <point x="394" y="636"/>
      <point x="565" y="617"/>
      <point x="622" y="601" type="qcurve"/>
      <point x="625" y="593"/>
      <point x="629" y="576"/>
      <point x="629" y="567" type="qcurve" smooth="yes"/>
      <point x="629" y="557"/>
      <point x="626" y="536"/>
      <point x="622" y="524" type="qcurve"/>
      <point x="568" y="535"/>
      <point x="449" y="550"/>
      <point x="390" y="553" type="qcurve"/>
      <point x="390" y="548"/>
      <point x="389" y="536"/>
      <point x="388" y="525" type="qcurve" smooth="yes"/>
      <point x="387" y="516"/>
      <point x="386" y="507"/>
      <point x="386" y="503" type="qcurve"/>
      <point x="481" y="480"/>
      <point x="599" y="363"/>
      <point x="599" y="292" type="qcurve" smooth="yes"/>
      <point x="599" y="244"/>
      <point x="549" y="157"/>
      <point x="508" y="133" type="qcurve"/>
      <point x="489" y="138"/>
      <point x="453" y="175"/>
      <point x="442" y="202" type="qcurve"/>
      <point x="488" y="218"/>
      <point x="542" y="273"/>
      <point x="542" y="304" type="qcurve" smooth="yes"/>
      <point x="542" y="341"/>
      <point x="459" y="394"/>
      <point x="381" y="406" type="qcurve"/>
      <point x="380" y="387"/>
      <point x="379" y="339"/>
    </contour>
    <contour>
      <point x="301" y="88" type="qcurve"/>
      <point x="300" y="100"/>
      <point x="300" y="132"/>
      <point x="300" y="169" type="qcurve" smooth="yes"/>
      <point x="300" y="236"/>
      <point x="303" y="346"/>
      <point x="307" y="399" type="qcurve"/>
      <point x="259" y="376"/>
      <point x="157" y="305"/>
      <point x="120" y="269" type="qcurve"/>
      <point x="176" y="240"/>
      <point x="268" y="148"/>
    </contour>
    <contour>
      <point x="335" y="-5" type="move" name="blwm"/>
    </contour>
    <contour>
      <point x="122" y="0" type="move" name="nukt"/>
    </contour>
    <contour>
      <point x="349" y="690" type="move" name="reph"/>
    </contour>
    <contour>
      <point x="349" y="690" type="move" name="chandrabindu"/>
    </contour>
    <contour>
      <point x="251" y="-3" type="move" name="haln"/>
    </contour>
  </outline>
</glyph>
<glyph name="bn_ga" format="1">
  <advance width="495"/>
  <unicode hex="0997"/>
  <outline>
    <contour>
      <point x="432" y="463" type="qcurve" smooth="yes"/>
      <point x="432" y="320"/>
      <point x="408" y="73"/>
      <point x="384" y="-25" type="qcurve"/>
      <point x="360" y="-25"/>
      <point x="310" y="-18"/>
      <point x="292" y="-13" type="qcurve"/>
      <point x="320" y="79"/>
      <point x="348" y="252"/>
      <point x="351" y="357" type="qcurve"/>
      <point x="348" y="436"/>
      <point x="257" y="539"/>
      <point x="197" y="539" type="qcurve" smooth="yes"/>
      <point x="153" y="539"/>
      <point x="102" y="497"/>
      <point x="102" y="460" type="qcurve" smooth="yes"/>
      <point x="102" y="457"/>
      <point x="103" y="450"/>
      <point x="104" y="446" type="qcurve"/>
      <point x="124" y="457"/>
      <point x="165" y="468"/>
      <point x="184" y="468" type="qcurve" smooth="yes"/>
      <point x="229" y="468"/>
      <point x="291" y="399"/>
      <point x="291" y="350" type="qcurve" smooth="yes"/>
      <point x="291" y="308"/>
      <point x="233" y="204"/>
      <point x="170" y="136" type="qcurve"/>
      <point x="148" y="150"/>
      <point x="110" y="187"/>
      <point x="97" y="209" type="qcurve"/>
      <point x="166" y="264"/>
      <point x="234" y="343"/>
      <point x="234" y="366" type="qcurve" smooth="yes"/>
      <point x="234" y="382"/>
      <point x="215" y="399"/>
      <point x="197" y="399" type="qcurve" smooth="yes"/>
      <point x="171" y="399"/>
      <point x="105" y="373"/>
      <point x="73" y="350" type="qcurve"/>
      <point x="39" y="398" type="line"/>
      <point x="36" y="414"/>
      <point x="32" y="443"/>
      <point x="32" y="456" type="qcurve" smooth="yes"/>
      <point x="32" y="530"/>
      <point x="122" y="628"/>
      <point x="193" y="628" type="qcurve" smooth="yes"/>
      <point x="251" y="628"/>
      <point x="339" y="546"/>
      <point x="363" y="470" type="qcurve"/>
      <point x="362" y="477"/>
      <point x="362" y="493"/>
      <point x="362" y="507" type="qcurve" smooth="yes"/>
      <point x="362" y="528"/>
      <point x="384" y="562"/>
      <point x="402" y="571" type="qcurve" smooth="yes"/>
      <point x="419" y="580"/>
      <point x="464" y="594"/>
      <point x="495" y="601" type="qcurve"/>
      <point x="498" y="596"/>
      <point x="502" y="577"/>
      <point x="502" y="564" type="qcurve" smooth="yes"/>
      <point x="502" y="554"/>
      <point x="498" y="531"/>
      <point x="495" y="524" type="qcurve"/>
      <point x="487" y="522"/>
      <point x="472" y="516"/>
      <point x="456" y="510" type="qcurve" smooth="yes"/>
      <point x="443" y="504"/>
      <point x="432" y="482"/>
    </contour>
    <contour>
      <point x="337" y="-3" type="move" name="blwm"/>
    </contour>
    <contour>
      <point x="158" y="0" type="move" name="nukt"/>
    </contour>
    <contour>
      <point x="390" y="690" type="move" name="reph"/>
    </contour>
    <contour>
      <point x="390" y="690" type="move" name="chandrabindu"/>
    </contour>
    <contour>
      <point x="212" y="-3" type="move" name="haln"/>
    </contour>
  </outline>
</glyph>
<glyph name="bn_nga" format="1">
  <advance width="587"/>
  <unicode hex="0999"/>
  <outline>
    <contour>
      <point x="322" y="515" type="qcurve"/>
      <point x="341" y="510"/>
      <point x="374" y="505"/>
      <point x="388" y="505" type="qcurve" smooth="yes"/>
      <point x="422" y="505"/>
      <point x="458" y="531"/>
      <point x="458" y="556" type="qcurve" smooth="yes"/>
      <point x="458" y="576"/>
      <point x="430" y="600"/>
      <point x="407" y="600" type="qcurve" smooth="yes"/>
      <point x="379" y="600"/>
      <point x="337" y="557"/>
    </contour>
    <contour>
      <point x="557" y="194" type="qcurve" smooth="yes"/>
      <point x="557" y="88"/>
      <point x="452" y="-36"/>
      <point x="362" y="-36" type="qcurve" smooth="yes"/>
      <point x="243" y="-36"/>
      <point x="73" y="179"/>
      <point x="10" y="423" type="qcurve"/>
      <point x="24" y="430"/>
      <point x="56" y="443"/>
      <point x="76" y="449" type="qcurve"/>
      <point x="132" y="246"/>
      <point x="271" y="58"/>
      <point x="365" y="58" type="qcurve" smooth="yes"/>
      <point x="427" y="58"/>
      <point x="493" y="143"/>
      <point x="493" y="221" type="qcurve" smooth="yes"/>
      <point x="493" y="244"/>
      <point x="489" y="286"/>
      <point x="484" y="305" type="qcurve"/>
      <point x="445" y="263"/>
      <point x="385" y="228"/>
      <point x="354" y="227" type="qcurve" smooth="yes"/>
      <point x="296" y="225"/>
      <point x="223" y="316"/>
      <point x="223" y="392" type="qcurve" smooth="yes"/>
      <point x="223" y="412"/>
      <point x="226" y="452"/>
      <point x="229" y="470" type="qcurve"/>
      <point x="191" y="484"/>
      <point x="123" y="520"/>
      <point x="99" y="538" type="qcurve"/>
      <point x="105" y="562"/>
      <point x="123" y="602"/>
      <point x="134" y="618" type="qcurve"/>
      <point x="155" y="598"/>
      <point x="217" y="559"/>
      <point x="250" y="543" type="qcurve"/>
      <point x="272" y="596"/>
      <point x="348" y="651"/>
      <point x="399" y="651" type="qcurve" smooth="yes"/>
      <point x="450" y="651"/>
      <point x="513" y="595"/>
      <point x="513" y="550" type="qcurve" smooth="yes"/>
      <point x="513" y="500"/>
      <point x="439" y="439"/>
      <point x="376" y="439" type="qcurve" smooth="yes"/>
      <point x="359" y="439"/>
      <point x="324" y="444"/>
      <point x="305" y="448" type="qcurve"/>
      <point x="302" y="427"/>
      <point x="298" y="383"/>
      <point x="298" y="361" type="qcurve" smooth="yes"/>
      <point x="298" y="329"/>
      <point x="316" y="301"/>
      <point x="336" y="301" type="qcurve" smooth="yes"/>
      <point x="354" y="301"/>
      <point x="408" y="347"/>
      <point x="452" y="402" type="qcurve"/>
      <point x="467" y="399"/>
      <point x="500" y="386"/>
      <point x="513" y="378" type="qcurve"/>
      <point x="534" y="338"/>
      <point x="557" y="243"/>
    </contour>
    <contour>
      <point x="331" y="-7" type="move" name="blwm"/>
    </contour>
    <contour>
      <point x="151" y="-120" type="move" name="nukt"/>
    </contour>
    <contour>
      <point x="345" y="690" type="move" name="reph"/>
    </contour>
    <contour>
      <point x="345" y="690" type="move" name="chandrabindu"/>
    </contour>
    <contour>
      <point x="263" y="-7" type="move" name="haln"/>
    </contour>
  </outline>
</glyph>
<glyph name="bn_ja" format="1">
  <advance width="706"/>
  <unicode hex="099C"/>
  <outline>
    <contour>
      <point x="658" y="-3" type="qcurve"/>
      <point x="644" y="-9"/>
      <point x="592" y="-18"/>
      <point x="574" y="-18" type="qcurve"/>
      <point x="564" y="22"/>
      <point x="553" y="116"/>
      <point x="553" y="166" type="qcurve" smooth="yes"/>
      <point x="553" y="222"/>
      <point x="570" y="338"/>
      <point x="586" y="388" type="qcurve"/>
      <point x="576" y="385"/>
      <point x="556" y="383"/>
      <point x="546" y="383" type="qcurve" smooth="yes"/>
      <point x="475" y="383"/>
      <point x="360" y="473"/>
      <point x="332" y="550" type="qcurve"/>
      <point x="300" y="506"/>
      <point x="253" y="392"/>
      <point x="253" y="357" type="qcurve" smooth="yes"/>
      <point x="253" y="335"/>
      <point x="274" y="312"/>
      <point x="293" y="312" type="qcurve" smooth="yes"/>
      <point x="316" y="312"/>
      <point x="382" y="353"/>
      <point x="413" y="386" type="qcurve"/>
      <point x="428" y="379"/>
      <point x="464" y="355"/>
      <point x="478" y="342" type="qcurve"/>
      <point x="488" y="309"/>
      <point x="499" y="238"/>
      <point x="499" y="203" type="qcurve" smooth="yes"/>
      <point x="499" y="101"/>
      <point x="406" y="-15"/>
      <point x="323" y="-15" type="qcurve" smooth="yes"/>
      <point x="215" y="-15"/>
      <point x="63" y="193"/>
      <point x="9" y="424" type="qcurve"/>
      <point x="21" y="431"/>
      <point x="52" y="445"/>
      <point x="73" y="453" type="qcurve"/>
      <point x="120" y="260"/>
      <point x="244" y="75"/>
      <point x="326" y="75" type="qcurve" smooth="yes"/>
      <point x="382" y="75"/>
      <point x="438" y="153"/>
      <point x="438" y="231" type="qcurve" smooth="yes"/>
      <point x="438" y="246"/>
      <point x="436" y="275"/>
      <point x="435" y="288" type="qcurve"/>
      <point x="400" y="260"/>
      <point x="341" y="235"/>
      <point x="315" y="235" type="qcurve" smooth="yes"/>
      <point x="263" y="235"/>
      <point x="186" y="316"/>
      <point x="186" y="377" type="qcurve" smooth="yes"/>
      <point x="186" y="414"/>
      <point x="217" y="512"/>
      <point x="242" y="555" type="qcurve"/>
      <point x="177" y="551"/>
      <point x="51" y="535"/>
      <point x="0" y="524" type="qcurve"/>
      <point x="-3" y="532"/>
      <point x="-7" y="556"/>
      <point x="-7" y="568" type="qcurve" smooth="yes"/>
      <point x="-7" y="577"/>
      <point x="-3" y="594"/>
      <point x="0" y="601" type="qcurve"/>
      <point x="68" y="618"/>
      <point x="260" y="639"/>
      <point x="354" y="639" type="qcurve" smooth="yes"/>
      <point x="449" y="639"/>
      <point x="642" y="618"/>
      <point x="706" y="601" type="qcurve"/>
      <point x="709" y="595"/>
      <point x="712" y="579"/>
      <point x="712" y="566" type="qcurve" smooth="yes"/>
      <point x="712" y="553"/>
      <point x="709" y="531"/>
      <point x="706" y="524" type="qcurve"/>
      <point x="637" y="538"/>
      <point x="469" y="556"/>
      <point x="389" y="558" type="qcurve"/>
      <point x="413" y="509"/>
      <point x="477" y="464"/>
      <point x="523" y="464" type="qcurve" smooth="yes"/>
      <point x="546" y="464"/>
      <point x="590" y="475"/>
      <point x="611" y="486" type="qcurve"/>
      <point x="628" y="474"/>
      <point x="656" y="436"/>
      <point x="664" y="413" type="qcurve"/>
      <point x="648" y="364"/>
      <point x="631" y="259"/>
      <point x="631" y="204" type="qcurve" smooth="yes"/>
      <point x="631" y="153"/>
      <point x="645" y="48"/>
    </contour>
    <contour>
      <point x="318" y="-3" type="move" name="blwm"/>
    </contour>
    <contour>
      <point x="239" y="-120" type="move" name="nukt"/>
    </contour>
    <contour>
      <point x="381" y="690" type="move" name="reph"/>
    </contour>
    <contour>
      <point x="381" y="690" type="move" name="chandrabindu"/>
    </contour>
    <contour>
      <point x="227" y="0" type="move" name="haln"/>
    </contour>
  </outline>
</glyph>
<glyph name="bn_jha" format="1">
  <advance width="637"/>
  <unicode hex="099D"/>
  <outline>
    <contour>
      <point x="290" y="87" type="qcurve"/>
      <point x="290" y="92" type="line" smooth="yes"/>
      <point x="290" y="161"/>
      <point x="303" y="319"/>
      <point x="316" y="398" type="qcurve"/>
      <point x="266" y="376"/>
      <point x="158" y="305"/>
      <point x="117" y="268" type="qcurve"/>
      <point x="174" y="236"/>
      <point x="261" y="144"/>
    </contour>
    <contour>
      <point x="377" y="169" type="qcurve" smooth="yes"/>
      <point x="377" y="115"/>
      <point x="384" y="26"/>
      <point x="391" y="-7" type="qcurve"/>
      <point x="375" y="-15"/>
      <point x="329" y="-23"/>
      <point x="299" y="-23" type="qcurve"/>
      <point x="255" y="72"/>
      <point x="137" y="187"/>
      <point x="61" y="208" type="qcurve"/>
      <point x="44" y="234"/>
      <point x="28" y="282"/>
      <point x="27" y="311" type="qcurve"/>
      <point x="78" y="367"/>
      <point x="246" y="474"/>
      <point x="336" y="508" type="qcurve"/>
      <point x="337" y="511"/>
      <point x="339" y="519"/>
      <point x="341" y="527" type="qcurve" smooth="yes"/>
      <point x="342" y="535"/>
      <point x="344" y="543"/>
      <point x="345" y="546" type="qcurve"/>
      <point x="320" y="549"/>
      <point x="275" y="551"/>
      <point x="254" y="551" type="qcurve" smooth="yes"/>
      <point x="191" y="551"/>
      <point x="51" y="536"/>
      <point x="0" y="524" type="qcurve"/>
      <point x="-2" y="532"/>
      <point x="-5" y="556"/>
      <point x="-5" y="569" type="qcurve" smooth="yes"/>
      <point x="-5" y="578"/>
      <point x="-2" y="595"/>
      <point x="0" y="601" type="qcurve"/>
      <point x="44" y="614"/>
      <point x="190" y="633"/>
      <point x="254" y="633" type="qcurve" smooth="yes"/>
      <point x="284" y="633"/>
      <point x="349" y="627"/>
      <point x="374" y="622" type="qcurve" smooth="yes"/>
      <point x="393" y="619"/>
      <point x="413" y="596"/>
      <point x="413" y="577" type="qcurve" smooth="yes"/>
      <point x="413" y="575"/>
      <point x="412" y="564"/>
      <point x="409" y="546" type="qcurve" smooth="yes"/>
      <point x="395" y="461"/>
      <point x="382" y="325"/>
      <point x="379" y="258" type="qcurve"/>
      <point x="413" y="234"/>
      <point x="473" y="172"/>
      <point x="496" y="135" type="qcurve"/>
      <point x="491" y="182"/>
      <point x="485" y="286"/>
      <point x="485" y="336" type="qcurve" smooth="yes"/>
      <point x="485" y="352"/>
      <point x="488" y="435"/>
      <point x="490" y="501" type="qcurve" smooth="yes"/>
      <point x="491" y="525"/>
      <point x="515" y="560"/>
      <point x="535" y="569" type="qcurve" smooth="yes"/>
      <point x="559" y="579"/>
      <point x="609" y="595"/>
      <point x="637" y="601" type="qcurve"/>
      <point x="640" y="595"/>
      <point x="644" y="575"/>
      <point x="644" y="564" type="qcurve" smooth="yes"/>
      <point x="644" y="554"/>
      <point x="640" y="531"/>
      <point x="637" y="524" type="qcurve"/>
      <point x="622" y="520"/>
      <point x="593" y="509"/>
      <point x="578" y="502" type="qcurve" smooth="yes"/>
      <point x="567" y="497"/>
      <point x="556" y="479"/>
      <point x="556" y="464" type="qcurve" smooth="yes"/>
      <point x="555" y="449"/>
      <point x="555" y="412"/>
      <point x="555" y="380" type="qcurve" smooth="yes"/>
      <point x="555" y="283"/>
      <point x="583" y="105"/>
      <point x="610" y="34" type="qcurve"/>
      <point x="594" y="24"/>
      <point x="544" y="14"/>
      <point x="521" y="16" type="qcurve"/>
      <point x="490" y="72"/>
      <point x="419" y="155"/>
      <point x="377" y="182" type="qcurve"/>
      <point x="377" y="179"/>
      <point x="377" y="172"/>
    </contour>
    <contour>
      <point x="330" y="-1" type="move" name="blwm"/>
    </contour>
    <contour>
      <point x="90" y="0" type="move" name="nukt"/>
    </contour>
    <contour>
      <point x="407" y="690" type="move" name="reph"/>
    </contour>
    <contour>
      <point x="407" y="690" type="move" name="chandrabindu"/>
    </contour>
    <contour>
      <point x="234" y="0" type="move" name="haln"/>
    </contour>
  </outline>
</glyph>
<glyph name="bn_dda" format="1">
  <advance width="580"/>
  <unicode hex="09A1"/>
  <note>
    uni09A1
  </note>
  <outline>
    <contour>
      <point x="559" y="208" type="qcurve" smooth="yes"/>
      <point x="559" y="100"/>
      <point x="455" y="-24"/>
      <point x="363" y="-24" type="qcurve" smooth="yes"/>
      <point x="243" y="-24"/>
      <point x="71" y="189"/>
      <point x="10" y="424" type="qcurve"/>
      <point x="26" y="435"/>
      <point x="58" y="450"/>
      <point x="74" y="456" type="qcurve"/>
      <point x="131" y="255"/>
      <point x="273" y="68"/>
      <point x="368" y="68" type="qcurve" smooth="yes"/>
      <point x="429" y="68"/>
      <point x="495" y="152"/>
      <point x="495" y="230" type="qcurve" smooth="yes"/>
      <point x="495" y="252"/>
      <point x="490" y="298"/>
      <point x="485" y="320" type="qcurve"/>
      <point x="450" y="274"/>
      <point x="387" y="233"/>
      <point x="353" y="233" type="qcurve" smooth="yes"/>
      <point x="298" y="233"/>
      <point x="222" y="328"/>
      <point x="222" y="390" type="qcurve" smooth="yes"/>
      <point x="222" y="416"/>
      <point x="235" y="496"/>
      <point x="249" y="554" type="qcurve"/>
      <point x="183" y="553"/>
      <point x="61" y="538"/>
      <point x="0" y="524" type="qcurve"/>
      <point x="-3" y="533"/>
      <point x="-7" y="556"/>
      <point x="-7" y="567" type="qcurve" smooth="yes"/>
      <point x="-7" y="577"/>
      <point x="-3" y="595"/>
      <point x="0" y="601" type="qcurve"/>
      <point x="65" y="619"/>
      <point x="211" y="636"/>
      <point x="291" y="636" type="qcurve" smooth="yes"/>
      <point x="370" y="636"/>
      <point x="515" y="618"/>
      <point x="580" y="601" type="qcurve"/>
      <point x="583" y="596"/>
      <point x="587" y="578"/>
      <point x="587" y="568" type="qcurve" smooth="yes"/>
      <point x="587" y="556"/>
      <point x="583" y="532"/>
      <point x="580" y="524" type="qcurve"/>
      <point x="529" y="537"/>
      <point x="407" y="552"/>
      <point x="338" y="554" type="qcurve"/>
      <point x="314" y="477"/>
      <point x="294" y="388"/>
      <point x="294" y="362" type="qcurve" smooth="yes"/>
      <point x="294" y="338"/>
      <point x="316" y="310"/>
      <point x="336" y="310" type="qcurve" smooth="yes"/>
      <point x="355" y="310"/>
      <point x="408" y="362"/>
      <point x="451" y="424" type="qcurve"/>
      <point x="464" y="421"/>
      <point x="499" y="409"/>
      <point x="516" y="400" type="qcurve"/>
      <point x="537" y="357"/>
      <point x="559" y="258"/>
    </contour>
    <contour>
      <point x="348" y="-3" type="move" name="blwm"/>
    </contour>
    <contour>
      <point x="316" y="-120" type="move" name="nukt"/>
    </contour>
    <contour>
      <point x="319" y="690" type="move" name="reph"/>
    </contour>
    <contour>
      <point x="319" y="690" type="move" name="chandrabindu"/>
    </contour>
    <contour>
      <point x="225" y="0" type="move" name="haln"/>
    </contour>
  </outline>
</glyph>
<glyph name="bn_ddha" format="1">
  <advance width="486"/>
  <unicode hex="09A2"/>
  <outline>
    <contour>
      <point x="331" y="382" type="qcurve" smooth="yes"/>
      <point x="385" y="382"/>
      <point x="453" y="309"/>
      <point x="453" y="248" type="qcurve" smooth="yes"/>
      <point x="453" y="204"/>
      <point x="416" y="111"/>
      <point x="382" y="70" type="qcurve" smooth="yes"/>
      <point x="346" y="27"/>
      <point x="258" y="-24"/>
      <point x="218" y="-24" type="qcurve" smooth="yes"/>
      <point x="157" y="-24"/>
      <point x="74" y="67"/>
      <point x="74" y="137" type="qcurve" smooth="yes"/>
      <point x="74" y="236"/>
      <point x="85" y="438"/>
      <point x="97" y="542" type="qcurve"/>
      <point x="71" y="539"/>
      <point x="21" y="529"/>
      <point x="0" y="524" type="qcurve"/>
      <point x="-3" y="534"/>
      <point x="-5" y="553"/>
      <point x="-5" y="562" type="qcurve" smooth="yes"/>
      <point x="-5" y="572"/>
      <point x="-2" y="593"/>
      <point x="0" y="601" type="qcurve"/>
      <point x="36" y="615"/>
      <point x="164" y="632"/>
      <point x="236" y="632" type="qcurve" smooth="yes"/>
      <point x="303" y="632"/>
      <point x="434" y="616"/>
      <point x="486" y="601" type="qcurve"/>
      <point x="489" y="595"/>
      <point x="492" y="578"/>
      <point x="492" y="564" type="qcurve" smooth="yes"/>
      <point x="492" y="552"/>
      <point x="489" y="531"/>
      <point x="486" y="524" type="qcurve"/>
      <point x="425" y="537"/>
      <point x="299" y="551"/>
      <point x="239" y="551" type="qcurve" smooth="yes"/>
      <point x="218" y="551"/>
      <point x="199" y="551"/>
      <point x="191" y="550" type="qcurve"/>
      <point x="175" y="454"/>
      <point x="156" y="218"/>
      <point x="156" y="109" type="qcurve" smooth="yes"/>
      <point x="156" y="77"/>
      <point x="184" y="39"/>
      <point x="208" y="38" type="qcurve" smooth="yes"/>
      <point x="255" y="38"/>
      <point x="358" y="172"/>
      <point x="358" y="235" type="qcurve" smooth="yes"/>
      <point x="358" y="264"/>
      <point x="331" y="297"/>
      <point x="308" y="297" type="qcurve" smooth="yes"/>
      <point x="290" y="297"/>
      <point x="255" y="278"/>
      <point x="241" y="261" type="qcurve"/>
      <point x="237" y="266"/>
      <point x="232" y="281"/>
      <point x="232" y="290" type="qcurve" smooth="yes"/>
      <point x="232" y="306"/>
      <point x="242" y="341"/>
      <point x="250" y="354" type="qcurve"/>
      <point x="265" y="368"/>
      <point x="306" y="382"/>
    </contour>
    <contour>
      <point x="211" y="-3" type="move" name="blwm"/>
    </contour>
    <contour>
      <point x="188" y="-120" type="move" name="nukt"/>
    </contour>
    <contour>
      <point x="224" y="690" type="move" name="reph"/>
    </contour>
    <contour>
      <point x="224" y="690" type="move" name="chandrabindu"/>
    </contour>
    <contour>
      <point x="105" y="0" type="move" name="haln"/>
    </contour>
  </outline>
</glyph>
<glyph name="bn_nna" format="1">
  <advance width="478"/>
  <unicode hex="09A3"/>
  <outline>
    <contour>
      <point x="415" y="466" type="qcurve" smooth="yes"/>
      <point x="408" y="245"/>
      <point x="384" y="66"/>
      <point x="355" y="-25" type="qcurve"/>
      <point x="332" y="-25"/>
      <point x="282" y="-13"/>
      <point x="264" y="-4" type="qcurve"/>
      <point x="298" y="78"/>
      <point x="330" y="244"/>
      <point x="334" y="359" type="qcurve"/>
      <point x="330" y="433"/>
      <point x="245" y="527"/>
      <point x="189" y="527" type="qcurve" smooth="yes"/>
      <point x="149" y="527"/>
      <point x="98" y="467"/>
      <point x="98" y="421" type="qcurve" smooth="yes"/>
      <point x="98" y="389"/>
      <point x="129" y="350"/>
      <point x="153" y="350" type="qcurve" smooth="yes"/>
      <point x="173" y="350"/>
      <point x="198" y="382"/>
      <point x="198" y="407" type="qcurve" smooth="yes"/>
      <point x="198" y="418"/>
      <point x="189" y="446"/>
      <point x="182" y="460" type="qcurve"/>
      <point x="204" y="457"/>
      <point x="247" y="437"/>
      <point x="261" y="424" type="qcurve"/>
      <point x="265" y="416"/>
      <point x="269" y="396"/>
      <point x="269" y="385" type="qcurve" smooth="yes"/>
      <point x="269" y="339"/>
      <point x="208" y="278"/>
      <point x="163" y="278" type="qcurve" smooth="yes"/>
      <point x="107" y="278"/>
      <point x="30" y="373"/>
      <point x="30" y="444" type="qcurve" smooth="yes"/>
      <point x="30" y="523"/>
      <point x="114" y="625"/>
      <point x="180" y="625" type="qcurve" smooth="yes"/>
      <point x="237" y="625"/>
      <point x="323" y="547"/>
      <point x="347" y="474" type="qcurve"/>
      <point x="346" y="479"/>
      <point x="346" y="491"/>
      <point x="346" y="502" type="qcurve" smooth="yes"/>
      <point x="346" y="531"/>
      <point x="362" y="561"/>
      <point x="382" y="570" type="qcurve" smooth="yes"/>
      <point x="399" y="578"/>
      <point x="451" y="595"/>
      <point x="478" y="601" type="qcurve"/>
      <point x="481" y="596"/>
      <point x="485" y="577"/>
      <point x="485" y="565" type="qcurve" smooth="yes"/>
      <point x="485" y="554"/>
      <point x="481" y="531"/>
      <point x="478" y="524" type="qcurve"/>
      <point x="465" y="520"/>
      <point x="444" y="513"/>
      <point x="438" y="510" type="qcurve" smooth="yes"/>
      <point x="425" y="504"/>
      <point x="415" y="487"/>
    </contour>
    <contour>
      <point x="313" y="-1" type="move" name="blwm"/>
    </contour>
    <contour>
      <point x="139" y="0" type="move" name="nukt"/>
    </contour>
    <contour>
      <point x="384" y="690" type="move" name="reph"/>
    </contour>
    <contour>
      <point x="387" y="690" type="move" name="chandrabindu"/>
    </contour>
    <contour>
      <point x="193" y="0" type="move" name="haln"/>
    </contour>
  </outline>
</glyph>
<glyph name="bn_tha" format="1">
  <advance width="551"/>
  <unicode hex="09A5"/>
  <outline>
    <contour>
      <point x="486" y="458" type="qcurve" smooth="yes"/>
      <point x="486" y="310"/>
      <point x="451" y="56"/>
      <point x="419" y="-26" type="qcurve"/>
      <point x="396" y="-26"/>
      <point x="346" y="-14"/>
      <point x="329" y="-4" type="qcurve"/>
      <point x="288" y="88"/>
      <point x="188" y="185"/>
      <point x="120" y="200" type="qcurve"/>
      <point x="103" y="222"/>
      <point x="85" y="269"/>
      <point x="84" y="293" type="qcurve"/>
      <point x="167" y="340" type="line" smooth="yes"/>
      <point x="221" y="371"/>
      <point x="272" y="439"/>
      <point x="272" y="481" type="qcurve" smooth="yes"/>
      <point x="272" y="513"/>
      <point x="229" y="553"/>
      <point x="195" y="553" type="qcurve" smooth="yes"/>
      <point x="162" y="553"/>
      <point x="124" y="513"/>
      <point x="124" y="481" type="qcurve" smooth="yes"/>
      <point x="124" y="460"/>
      <point x="140" y="427"/>
      <point x="155" y="417" type="qcurve"/>
      <point x="139" y="404"/>
      <point x="94" y="389"/>
      <point x="66" y="386" type="qcurve"/>
      <point x="49" y="406"/>
      <point x="30" y="455"/>
      <point x="30" y="481" type="qcurve" smooth="yes"/>
      <point x="30" y="543"/>
      <point x="115" y="627"/>
      <point x="181" y="627" type="qcurve" smooth="yes"/>
      <point x="253" y="627"/>
      <point x="343" y="530"/>
      <point x="343" y="454" type="qcurve" smooth="yes"/>
      <point x="343" y="393"/>
      <point x="281" y="295"/>
      <point x="217" y="255" type="qcurve"/>
      <point x="205" y="248" type="line"/>
      <point x="255" y="219"/>
      <point x="334" y="119"/>
      <point x="358" y="53" type="qcurve"/>
      <point x="383" y="121"/>
      <point x="407" y="299"/>
      <point x="407" y="413" type="qcurve" smooth="yes"/>
      <point x="407" y="424"/>
      <point x="406" y="449"/>
      <point x="405" y="470" type="qcurve" smooth="yes"/>
      <point x="404" y="483"/>
      <point x="404" y="495"/>
      <point x="404" y="499" type="qcurve"/>
      <point x="404" y="522"/>
      <point x="426" y="558"/>
      <point x="447" y="568" type="qcurve" smooth="yes"/>
      <point x="467" y="578"/>
      <point x="517" y="594"/>
      <point x="551" y="601" type="qcurve"/>
      <point x="554" y="595"/>
      <point x="558" y="577"/>
      <point x="558" y="566" type="qcurve" smooth="yes"/>
      <point x="558" y="555"/>
      <point x="554" y="531"/>
      <point x="551" y="524" type="qcurve"/>
      <point x="537" y="520"/>
      <point x="516" y="513"/>
      <point x="509" y="509" type="qcurve" smooth="yes"/>
      <point x="496" y="503"/>
      <point x="486" y="483"/>
    </contour>
    <contour>
      <point x="368" y="-3" type="move" name="blwm"/>
    </contour>
    <contour>
      <point x="159" y="0" type="move" name="nukt"/>
    </contour>
    <contour>
      <point x="443" y="690" type="move" name="reph"/>
    </contour>
    <contour>
      <point x="443" y="690" type="move" name="chandrabindu"/>
    </contour>
    <contour>
      <point x="267" y="0" type="move" name="haln"/>
    </contour>
  </outline>
</glyph>
<glyph name="bn_dha" format="1">
  <advance width="499"/>
  <unicode hex="09A7"/>
  <outline>
    <contour>
      <point x="416" y="295" type="qcurve" smooth="yes"/>
      <point x="416" y="197"/>
      <point x="426" y="44"/>
      <point x="435" y="-4" type="qcurve"/>
      <point x="419" y="-13"/>
      <point x="370" y="-23"/>
      <point x="342" y="-23" type="qcurve"/>
      <point x="294" y="75"/>
      <point x="169" y="191"/>
      <point x="89" y="210" type="qcurve"/>
      <point x="70" y="234"/>
      <point x="51" y="282"/>
      <point x="49" y="311" type="qcurve"/>
      <point x="67" y="328"/>
      <point x="111" y="362"/>
      <point x="135" y="378" type="qcurve"/>
      <point x="86" y="392"/>
      <point x="29" y="458"/>
      <point x="29" y="503" type="qcurve" smooth="yes"/>
      <point x="29" y="560"/>
      <point x="101" y="631"/>
      <point x="160" y="631" type="qcurve" smooth="yes"/>
      <point x="198" y="631"/>
      <point x="265" y="585"/>
      <point x="280" y="549" type="qcurve"/>
      <point x="267" y="531"/>
      <point x="231" y="503"/>
      <point x="213" y="497" type="qcurve"/>
      <point x="212" y="521"/>
      <point x="179" y="552"/>
      <point x="156" y="552" type="qcurve" smooth="yes"/>
      <point x="133" y="552"/>
      <point x="107" y="519"/>
      <point x="107" y="490" type="qcurve" smooth="yes"/>
      <point x="107" y="460"/>
      <point x="150" y="421"/>
      <point x="180" y="421" type="qcurve" smooth="yes"/>
      <point x="191" y="421"/>
      <point x="217" y="427"/>
      <point x="235" y="435" type="qcurve"/>
      <point x="259" y="447"/>
      <point x="317" y="472"/>
      <point x="357" y="487" type="qcurve"/>
      <point x="357" y="489"/>
      <point x="358" y="496"/>
      <point x="358" y="497" type="qcurve" smooth="yes"/>
      <point x="362" y="526"/>
      <point x="381" y="557"/>
      <point x="399" y="567" type="qcurve" smooth="yes"/>
      <point x="419" y="578"/>
      <point x="470" y="595"/>
      <point x="499" y="601" type="qcurve"/>
      <point x="503" y="596"/>
      <point x="507" y="576"/>
      <point x="507" y="564" type="qcurve" smooth="yes"/>
      <point x="507" y="554"/>
      <point x="502" y="532"/>
      <point x="499" y="524" type="qcurve"/>
      <point x="482" y="519"/>
      <point x="455" y="508"/>
      <point x="445" y="503" type="qcurve" smooth="yes"/>
      <point x="434" y="497"/>
      <point x="425" y="481"/>
      <point x="423" y="459" type="qcurve" smooth="yes"/>
      <point x="420" y="413"/>
      <point x="416" y="330"/>
    </contour>
    <contour>
      <point x="336" y="74" type="qcurve"/>
      <point x="335" y="86"/>
      <point x="335" y="119"/>
      <point x="335" y="157" type="qcurve" smooth="yes"/>
      <point x="335" y="214"/>
      <point x="340" y="323"/>
      <point x="345" y="380" type="qcurve"/>
      <point x="291" y="359"/>
      <point x="184" y="300"/>
      <point x="146" y="270" type="qcurve"/>
      <point x="208" y="237"/>
      <point x="304" y="138"/>
    </contour>
    <contour>
      <point x="373" y="0" type="move" name="blwm"/>
    </contour>
    <contour>
      <point x="159" y="0" type="move" name="nukt"/>
    </contour>
    <contour>
      <point x="407" y="690" type="move" name="reph"/>
    </contour>
    <contour>
      <point x="407" y="690" type="move" name="chandrabindu"/>
    </contour>
    <contour>
      <point x="262" y="0" type="move" name="haln"/>
    </contour>
  </outline>
</glyph>
<glyph name="bn_na" format="1">
  <advance width="494"/>
  <unicode hex="09A8"/>
  <outline>
    <contour>
      <point x="426" y="-14" type="qcurve"/>
      <point x="410" y="-18"/>
      <point x="360" y="-23"/>
      <point x="330" y="-23" type="qcurve"/>
      <point x="328" y="3"/>
      <point x="326" y="81"/>
      <point x="326" y="143" type="qcurve" smooth="yes"/>
      <point x="326" y="145"/>
      <point x="326" y="148"/>
      <point x="326" y="150" type="qcurve"/>
      <point x="326" y="150" type="line"/>
      <point x="326" y="221"/>
      <point x="213" y="347"/>
      <point x="149" y="347" type="qcurve" smooth="yes"/>
      <point x="117" y="347"/>
      <point x="82" y="314"/>
      <point x="82" y="285" type="qcurve" smooth="yes"/>
      <point x="82" y="253"/>
      <point x="128" y="216"/>
      <point x="168" y="216" type="qcurve" smooth="yes"/>
      <point x="185" y="216"/>
      <point x="216" y="223"/>
      <point x="227" y="229" type="qcurve"/>
      <point x="227" y="207"/>
      <point x="220" y="154"/>
      <point x="214" y="135" type="qcurve"/>
      <point x="211" y="131"/>
      <point x="190" y="127"/>
      <point x="174" y="127" type="qcurve" smooth="yes"/>
      <point x="107" y="127"/>
      <point x="24" y="217"/>
      <point x="24" y="290" type="qcurve" smooth="yes"/>
      <point x="24" y="354"/>
      <point x="94" y="434"/>
      <point x="150" y="434" type="qcurve" smooth="yes"/>
      <point x="203" y="434"/>
      <point x="299" y="356"/>
      <point x="328" y="290" type="qcurve"/>
      <point x="331" y="361"/>
      <point x="344" y="484"/>
      <point x="356" y="547" type="qcurve"/>
      <point x="335" y="549"/>
      <point x="286" y="551"/>
      <point x="259" y="551" type="qcurve" smooth="yes"/>
      <point x="197" y="551"/>
      <point x="60" y="537"/>
      <point x="0" y="524" type="qcurve"/>
      <point x="-3" y="534"/>
      <point x="-6" y="557"/>
      <point x="-6" y="568" type="qcurve" smooth="yes"/>
      <point x="-6" y="578"/>
      <point x="-3" y="595"/>
      <point x="0" y="601" type="qcurve"/>
      <point x="63" y="616"/>
      <point x="197" y="632"/>
      <point x="258" y="632" type="qcurve" smooth="yes"/>
      <point x="317" y="632"/>
      <point x="434" y="617"/>
      <point x="494" y="601" type="qcurve"/>
      <point x="496" y="595"/>
      <point x="498" y="579"/>
      <point x="498" y="566" type="qcurve" smooth="yes"/>
      <point x="498" y="552"/>
      <point x="496" y="531"/>
      <point x="494" y="524" type="qcurve"/>
      <point x="475" y="529"/>
      <point x="443" y="535"/>
      <point x="428" y="538" type="qcurve"/>
      <point x="418" y="469"/>
      <point x="409" y="346"/>
      <point x="409" y="267" type="qcurve" smooth="yes"/>
      <point x="409" y="174"/>
      <point x="418" y="23"/>
    </contour>
    <contour>
      <point x="365" y="-1" type="move" name="blwm"/>
    </contour>
    <contour>
      <point x="186" y="-7" type="move" name="nukt"/>
    </contour>
    <contour>
      <point x="383" y="690" type="move" name="reph"/>
    </contour>
    <contour>
      <point x="383" y="690" type="move" name="chandrabindu"/>
    </contour>
    <contour>
      <point x="279" y="0" type="move" name="haln"/>
    </contour>
  </outline>
</glyph>
<glyph name="bn_pa" format="1">
  <advance width="564"/>
  <unicode hex="09AA"/>
  <outline>
    <contour>
      <point x="506" y="-14" type="qcurve"/>
      <point x="490" y="-18"/>
      <point x="440" y="-23"/>
      <point x="410" y="-23" type="qcurve"/>
      <point x="408" y="4"/>
      <point x="406" y="82"/>
      <point x="406" y="149" type="qcurve" smooth="yes"/>
      <point x="406" y="210"/>
      <point x="408" y="304"/>
      <point x="411" y="343" type="qcurve"/>
      <point x="410" y="362"/>
      <point x="404" y="400"/>
      <point x="398" y="418" type="qcurve"/>
      <point x="359" y="364"/>
      <point x="242" y="244"/>
      <point x="182" y="197" type="qcurve"/>
      <point x="162" y="211"/>
      <point x="128" y="248"/>
      <point x="116" y="270" type="qcurve"/>
      <point x="125" y="277"/>
      <point x="137" y="285"/>
      <point x="139" y="286" type="qcurve"/>
      <point x="146" y="293"/>
      <point x="154" y="312"/>
      <point x="154" y="323" type="qcurve" smooth="yes"/>
      <point x="154" y="352"/>
      <point x="90" y="395"/>
      <point x="36" y="406" type="qcurve"/>
      <point x="25" y="425"/>
      <point x="11" y="467"/>
      <point x="7" y="490" type="qcurve"/>
      <point x="52" y="555"/>
      <point x="170" y="628"/>
      <point x="232" y="628" type="qcurve" smooth="yes"/>
      <point x="300" y="628"/>
      <point x="399" y="543"/>
      <point x="424" y="463" type="qcurve"/>
      <point x="428" y="490"/>
      <point x="430" y="502"/>
      <point x="431" y="507" type="qcurve" smooth="yes"/>
      <point x="437" y="534"/>
      <point x="455" y="563"/>
      <point x="472" y="572" type="qcurve" smooth="yes"/>
      <point x="486" y="579"/>
      <point x="537" y="595"/>
      <point x="564" y="601" type="qcurve"/>
      <point x="567" y="596"/>
      <point x="571" y="575"/>
      <point x="571" y="565" type="qcurve" smooth="yes"/>
      <point x="571" y="554"/>
      <point x="567" y="531"/>
      <point x="564" y="524" type="qcurve"/>
      <point x="548" y="519"/>
      <point x="534" y="514"/>
      <point x="525" y="510" type="qcurve" smooth="yes"/>
      <point x="513" y="505"/>
      <point x="501" y="482"/>
      <point x="498" y="460" type="qcurve" smooth="yes"/>
      <point x="493" y="420"/>
      <point x="489" y="329"/>
      <point x="489" y="270" type="qcurve" smooth="yes"/>
      <point x="489" y="176"/>
      <point x="498" y="24"/>
    </contour>
    <contour>
      <point x="108" y="464" type="qcurve"/>
      <point x="154" y="441"/>
      <point x="203" y="389"/>
      <point x="203" y="362" type="qcurve" smooth="yes"/>
      <point x="203" y="355"/>
      <point x="199" y="339"/>
      <point x="196" y="331" type="qcurve"/>
      <point x="244" y="371"/>
      <point x="327" y="453"/>
      <point x="358" y="491" type="qcurve"/>
      <point x="335" y="517"/>
      <point x="277" y="544"/>
      <point x="245" y="544" type="qcurve" smooth="yes"/>
      <point x="208" y="544"/>
      <point x="142" y="506"/>
    </contour>
    <contour>
      <point x="444" y="-3" type="move" name="blwm"/>
    </contour>
    <contour>
      <point x="232" y="0" type="move" name="nukt"/>
    </contour>
    <contour>
      <point x="473" y="690" type="move" name="reph"/>
    </contour>
    <contour>
      <point x="473" y="690" type="move" name="chandrabindu"/>
    </contour>
    <contour>
      <point x="339" y="0" type="move" name="haln"/>
    </contour>
  </outline>
</glyph>
<glyph name="bn_pha" format="1">
  <advance width="677"/>
  <unicode hex="09AB"/>
  <outline>
    <contour>
      <point x="427" y="295" type="qcurve" smooth="yes"/>
      <point x="427" y="194"/>
      <point x="443" y="42"/>
      <point x="458" y="-6" type="qcurve"/>
      <point x="442" y="-15"/>
      <point x="392" y="-24"/>
      <point x="364" y="-24" type="qcurve"/>
      <point x="312" y="64"/>
      <point x="181" y="166"/>
      <point x="100" y="182" type="qcurve"/>
      <point x="77" y="200"/>
      <point x="50" y="247"/>
      <point x="48" y="274" type="qcurve"/>
      <point x="186" y="402" type="line"/>
      <point x="173" y="411"/>
      <point x="114" y="448"/>
      <point x="100" y="457" type="qcurve" smooth="yes"/>
      <point x="70" y="478"/>
      <point x="37" y="513"/>
      <point x="31" y="530" type="qcurve"/>
      <point x="25" y="529"/>
      <point x="12" y="526"/>
      <point x="0" y="524" type="qcurve"/>
      <point x="-6" y="542"/>
      <point x="-7" y="590"/>
      <point x="0" y="601" type="qcurve"/>
      <point x="69" y="617"/>
      <point x="258" y="636"/>
      <point x="356" y="636" type="qcurve" smooth="yes"/>
      <point x="447" y="636"/>
      <point x="624" y="616"/>
      <point x="677" y="601" type="qcurve"/>
      <point x="682" y="587"/>
      <point x="682" y="542"/>
      <point x="677" y="524" type="qcurve"/>
      <point x="614" y="538"/>
      <point x="440" y="555"/>
      <point x="352" y="555" type="qcurve" smooth="yes"/>
      <point x="297" y="555"/>
      <point x="188" y="549"/>
      <point x="139" y="544" type="qcurve"/>
      <point x="142" y="523"/>
      <point x="185" y="469"/>
      <point x="253" y="410" type="qcurve"/>
      <point x="292" y="377" type="line"/>
      <point x="159" y="243" type="line"/>
      <point x="217" y="218"/>
      <point x="312" y="139"/>
      <point x="347" y="87" type="qcurve"/>
      <point x="346" y="114"/>
      <point x="345" y="152"/>
      <point x="345" y="170" type="qcurve" smooth="yes"/>
      <point x="345" y="271"/>
      <point x="352" y="424"/>
      <point x="361" y="500" type="qcurve"/>
      <point x="490" y="489"/>
      <point x="643" y="375"/>
      <point x="643" y="294" type="qcurve" smooth="yes"/>
      <point x="643" y="247"/>
      <point x="593" y="165"/>
      <point x="553" y="142" type="qcurve"/>
      <point x="534" y="147"/>
      <point x="498" y="185"/>
      <point x="488" y="211" type="qcurve"/>
      <point x="532" y="224"/>
      <point x="586" y="274"/>
      <point x="586" y="302" type="qcurve" smooth="yes"/>
      <point x="586" y="337"/>
      <point x="506" y="384"/>
      <point x="430" y="395" type="qcurve"/>
      <point x="428" y="372"/>
      <point x="427" y="323"/>
    </contour>
    <contour>
      <point x="391" y="0" type="move" name="blwm"/>
    </contour>
    <contour>
      <point x="157" y="0" type="move" name="nukt"/>
    </contour>
    <contour>
      <point x="360" y="690" type="move" name="reph"/>
    </contour>
    <contour>
      <point x="360" y="690" type="move" name="chandrabindu"/>
    </contour>
    <contour>
      <point x="291" y="0" type="move" name="haln"/>
    </contour>
  </outline>
</glyph>
<glyph name="bn_bha" format="1">
  <advance width="614"/>
  <unicode hex="09AD"/>
  <outline>
    <contour>
      <point x="614" y="524" type="qcurve"/>
      <point x="543" y="537"/>
      <point x="385" y="551"/>
      <point x="306" y="551" type="qcurve" smooth="yes"/>
      <point x="226" y="551"/>
      <point x="71" y="537"/>
      <point x="0" y="524" type="qcurve"/>
      <point x="-3" y="531"/>
      <point x="-7" y="554"/>
      <point x="-7" y="566" type="qcurve" smooth="yes"/>
      <point x="-7" y="576"/>
      <point x="-3" y="595"/>
      <point x="0" y="601" type="qcurve"/>
      <point x="64" y="616"/>
      <point x="221" y="632"/>
      <point x="306" y="632" type="qcurve" smooth="yes"/>
      <point x="389" y="632"/>
      <point x="548" y="616"/>
      <point x="614" y="601" type="qcurve"/>
      <point x="617" y="596"/>
      <point x="621" y="577"/>
      <point x="621" y="565" type="qcurve" smooth="yes"/>
      <point x="621" y="554"/>
      <point x="617" y="532"/>
    </contour>
    <contour>
      <point x="591" y="207" type="qcurve" smooth="yes"/>
      <point x="591" y="100"/>
      <point x="478" y="-24"/>
      <point x="381" y="-24" type="qcurve" smooth="yes"/>
      <point x="256" y="-24"/>
      <point x="75" y="195"/>
      <point x="15" y="424" type="qcurve"/>
      <point x="31" y="435"/>
      <point x="63" y="450"/>
      <point x="79" y="456" type="qcurve"/>
      <point x="135" y="259"/>
      <point x="284" y="70"/>
      <point x="383" y="70" type="qcurve" smooth="yes"/>
      <point x="451" y="70"/>
      <point x="523" y="155"/>
      <point x="523" y="234" type="qcurve" smooth="yes"/>
      <point x="523" y="256"/>
      <point x="517" y="303"/>
      <point x="512" y="324" type="qcurve"/>
      <point x="468" y="281"/>
      <point x="392" y="242"/>
      <point x="354" y="242" type="qcurve" smooth="yes"/>
      <point x="297" y="242"/>
      <point x="215" y="317"/>
      <point x="215" y="372" type="qcurve" smooth="yes"/>
      <point x="215" y="414"/>
      <point x="268" y="481"/>
      <point x="310" y="497" type="qcurve"/>
      <point x="330" y="492"/>
      <point x="368" y="459"/>
      <point x="376" y="439" type="qcurve"/>
      <point x="332" y="428"/>
      <point x="278" y="384"/>
      <point x="278" y="358" type="qcurve" smooth="yes"/>
      <point x="278" y="338"/>
      <point x="306" y="315"/>
      <point x="330" y="315" type="qcurve" smooth="yes"/>
      <point x="360" y="315"/>
      <point x="434" y="360"/>
      <point x="499" y="421" type="qcurve"/>
      <point x="512" y="413"/>
      <point x="544" y="387"/>
      <point x="557" y="374" type="qcurve"/>
      <point x="573" y="335"/>
      <point x="591" y="248"/>
    </contour>
    <contour>
      <point x="379" y="-7" type="move" name="blwm"/>
    </contour>
    <contour>
      <point x="370" y="-120" type="move" name="nukt"/>
    </contour>
    <contour>
      <point x="308" y="690" type="move" name="reph"/>
    </contour>
    <contour>
      <point x="308" y="690" type="move" name="chandrabindu"/>
    </contour>
    <contour>
      <point x="250" y="0" type="move" name="haln"/>
    </contour>
  </outline>
</glyph>
<glyph name="bn_ra" format="1">
  <advance width="480"/>
  <unicode hex="09B0"/>
  <outline>
    <contour>
      <point x="396" y="295" type="qcurve" smooth="yes"/>
      <point x="396" y="194"/>
      <point x="410" y="43"/>
      <point x="423" y="-4" type="qcurve"/>
      <point x="407" y="-13"/>
      <point x="358" y="-23"/>
      <point x="330" y="-23" type="qcurve"/>
      <point x="281" y="69"/>
      <point x="151" y="177"/>
      <point x="70" y="194" type="qcurve"/>
      <point x="50" y="219"/>
      <point x="32" y="267"/>
      <point x="30" y="295" type="qcurve"/>
      <point x="81" y="354"/>
      <point x="248" y="469"/>
      <point x="339" y="507" type="qcurve"/>
      <point x="339" y="510"/>
      <point x="341" y="517"/>
      <point x="342" y="524" type="qcurve" smooth="yes"/>
      <point x="344" y="532"/>
      <point x="345" y="541"/>
      <point x="346" y="545" type="qcurve"/>
      <point x="319" y="548"/>
      <point x="272" y="550"/>
      <point x="252" y="550" type="qcurve" smooth="yes"/>
      <point x="194" y="550"/>
      <point x="60" y="536"/>
      <point x="0" y="524" type="qcurve"/>
      <point x="-3" y="532"/>
      <point x="-7" y="554"/>
      <point x="-7" y="566" type="qcurve" smooth="yes"/>
      <point x="-7" y="575"/>
      <point x="-3" y="594"/>
      <point x="0" y="601" type="qcurve"/>
      <point x="53" y="614"/>
      <point x="194" y="631"/>
      <point x="256" y="631" type="qcurve" smooth="yes"/>
      <point x="310" y="631"/>
      <point x="435" y="614"/>
      <point x="480" y="601" type="qcurve"/>
      <point x="483" y="595"/>
      <point x="487" y="577"/>
      <point x="487" y="566" type="qcurve" smooth="yes"/>
      <point x="487" y="554"/>
      <point x="483" y="532"/>
      <point x="480" y="524" type="qcurve"/>
      <point x="452" y="530"/>
      <point x="425" y="535"/>
      <point x="413" y="536" type="qcurve"/>
      <point x="404" y="480"/>
      <point x="396" y="370"/>
    </contour>
    <contour>
      <point x="316" y="84" type="qcurve"/>
      <point x="315" y="109"/>
      <point x="314" y="147"/>
      <point x="314" y="166" type="qcurve" smooth="yes"/>
      <point x="314" y="234"/>
      <point x="319" y="346"/>
      <point x="325" y="397" type="qcurve"/>
      <point x="272" y="371"/>
      <point x="164" y="296"/>
      <point x="125" y="257" type="qcurve"/>
      <point x="187" y="227"/>
      <point x="283" y="140"/>
    </contour>
    <contour>
      <point x="109" y="8" type="qcurve" smooth="yes"/>
      <point x="109" y="30"/>
      <point x="138" y="60"/>
      <point x="160" y="60" type="qcurve" smooth="yes"/>
      <point x="185" y="60"/>
      <point x="219" y="25"/>
      <point x="219" y="0" type="qcurve" smooth="yes"/>
      <point x="219" y="-22"/>
      <point x="190" y="-52"/>
      <point x="168" y="-52" type="qcurve" smooth="yes"/>
      <point x="143" y="-52"/>
      <point x="109" y="-17"/>
    </contour>
    <contour>
      <point x="369" y="-3" type="move" name="blwm"/>
    </contour>
    <contour>
      <point x="370" y="690" type="move" name="reph"/>
    </contour>
    <contour>
      <point x="238" y="0" type="move" name="haln"/>
    </contour>
  </outline>
</glyph>
<glyph name="bn_la" format="1">
  <advance width="583"/>
  <unicode hex="09B2"/>
  <outline>
    <contour>
      <point x="520" y="-12" type="qcurve"/>
      <point x="504" y="-17"/>
      <point x="453" y="-23"/>
      <point x="425" y="-23" type="qcurve"/>
      <point x="421" y="5"/>
      <point x="418" y="91"/>
      <point x="418" y="157" type="qcurve" smooth="yes"/>
      <point x="418" y="183"/>
      <point x="419" y="241"/>
      <point x="420" y="289" type="qcurve"/>
      <point x="418" y="320"/>
      <point x="383" y="360"/>
      <point x="358" y="360" type="qcurve" smooth="yes"/>
      <point x="340" y="360"/>
      <point x="319" y="340"/>
      <point x="319" y="323" type="qcurve" smooth="yes"/>
      <point x="319" y="316"/>
      <point x="326" y="299"/>
      <point x="334" y="285" type="qcurve"/>
      <point x="339" y="275" type="line"/>
      <point x="328" y="267"/>
      <point x="295" y="254"/>
      <point x="275" y="249" type="qcurve"/>
      <point x="255" y="283" type="line"/>
      <point x="233" y="315"/>
      <point x="176" y="350"/>
      <point x="145" y="350" type="qcurve" smooth="yes"/>
      <point x="115" y="350"/>
      <point x="79" y="316"/>
      <point x="79" y="286" type="qcurve" smooth="yes"/>
      <point x="79" y="250"/>
      <point x="137" y="205"/>
      <point x="181" y="205" type="qcurve" smooth="yes"/>
      <point x="191" y="205"/>
      <point x="213" y="208"/>
      <point x="224" y="210" type="qcurve"/>
      <point x="224" y="185"/>
      <point x="208" y="129"/>
      <point x="196" y="111" type="qcurve"/>
      <point x="120" y="113"/>
      <point x="20" y="218"/>
      <point x="20" y="299" type="qcurve" smooth="yes"/>
      <point x="20" y="365"/>
      <point x="88" y="449"/>
      <point x="142" y="449" type="qcurve" smooth="yes"/>
      <point x="176" y="449"/>
      <point x="238" y="411"/>
      <point x="264" y="375" type="qcurve"/>
      <point x="272" y="409"/>
      <point x="314" y="449"/>
      <point x="341" y="449" type="qcurve" smooth="yes"/>
      <point x="366" y="449"/>
      <point x="410" y="413"/>
      <point x="424" y="381" type="qcurve"/>
      <point x="427" y="424"/>
      <point x="436" y="504"/>
      <point x="442" y="545" type="qcurve"/>
      <point x="401" y="549"/>
      <point x="324" y="553"/>
      <point x="287" y="553" type="qcurve" smooth="yes"/>
      <point x="215" y="553"/>
      <point x="74" y="539"/>
      <point x="0" y="524" type="qcurve"/>
      <point x="-3" y="534"/>
      <point x="-7" y="558"/>
      <point x="-7" y="568" type="qcurve" smooth="yes"/>
      <point x="-7" y="577"/>
      <point x="-3" y="594"/>
      <point x="0" y="601" type="qcurve"/>
      <point x="68" y="618"/>
      <point x="214" y="635"/>
      <point x="288" y="635" type="qcurve" smooth="yes"/>
      <point x="366" y="635"/>
      <point x="523" y="617"/>
      <point x="583" y="601" type="qcurve"/>
      <point x="586" y="596"/>
      <point x="588" y="580"/>
      <point x="588" y="567" type="qcurve" smooth="yes"/>
      <point x="588" y="552"/>
      <point x="586" y="531"/>
      <point x="583" y="524" type="qcurve"/>
      <point x="565" y="528"/>
      <point x="531" y="534"/>
      <point x="513" y="536" type="qcurve"/>
      <point x="507" y="473"/>
      <point x="501" y="351"/>
      <point x="501" y="277" type="qcurve" smooth="yes"/>
      <point x="501" y="176"/>
      <point x="511" y="31"/>
    </contour>
    <contour>
      <point x="459" y="-3" type="move" name="blwm"/>
    </contour>
    <contour>
      <point x="281" y="0" type="move" name="nukt"/>
    </contour>
    <contour>
      <point x="484" y="690" type="move" name="reph"/>
    </contour>
    <contour>
      <point x="484" y="690" type="move" name="chandrabindu"/>
    </contour>
    <contour>
      <point x="363" y="0" type="move" name="haln"/>
    </contour>
  </outline>
</glyph>
<glyph name="bn_sha" format="1">
  <advance width="563"/>
  <unicode hex="09B6"/>
  <outline>
    <contour>
      <point x="498" y="466" type="qcurve" smooth="yes"/>
      <point x="494" y="261"/>
      <point x="474" y="72"/>
      <point x="453" y="-23" type="qcurve"/>
      <point x="428" y="-23"/>
      <point x="373" y="-16"/>
      <point x="356" y="-10" type="qcurve"/>
      <point x="385" y="80"/>
      <point x="412" y="259"/>
      <point x="414" y="376" type="qcurve"/>
      <point x="410" y="446"/>
      <point x="351" y="535"/>
      <point x="310" y="535" type="qcurve" smooth="yes"/>
      <point x="296" y="535"/>
      <point x="272" y="524"/>
      <point x="263" y="514" type="qcurve"/>
      <point x="306" y="497"/>
      <point x="361" y="417"/>
      <point x="361" y="368" type="qcurve" smooth="yes"/>
      <point x="361" y="324"/>
      <point x="314" y="270"/>
      <point x="275" y="270" type="qcurve" smooth="yes"/>
      <point x="248" y="270"/>
      <point x="205" y="297"/>
      <point x="192" y="322" type="qcurve"/>
      <point x="177" y="296"/>
      <point x="133" y="268"/>
      <point x="107" y="268" type="qcurve" smooth="yes"/>
      <point x="70" y="268"/>
      <point x="24" y="317"/>
      <point x="24" y="359" type="qcurve" smooth="yes"/>
      <point x="24" y="415"/>
      <point x="96" y="507"/>
      <point x="151" y="519" type="qcurve"/>
      <point x="140" y="528"/>
      <point x="110" y="537"/>
      <point x="92" y="537" type="qcurve" smooth="yes"/>
      <point x="77" y="537"/>
      <point x="26" y="530"/>
      <point x="0" y="524" type="qcurve"/>
      <point x="-3" y="532"/>
      <point x="-6" y="553"/>
      <point x="-6" y="565" type="qcurve" smooth="yes"/>
      <point x="-6" y="576"/>
      <point x="-3" y="594"/>
      <point x="0" y="601" type="qcurve"/>
      <point x="23" y="607"/>
      <point x="74" y="614"/>
      <point x="90" y="614" type="qcurve" smooth="yes"/>
      <point x="129" y="614"/>
      <point x="183" y="570"/>
      <point x="196" y="527" type="qcurve"/>
      <point x="211" y="573"/>
      <point x="268" y="626"/>
      <point x="304" y="626" type="qcurve" smooth="yes"/>
      <point x="348" y="626"/>
      <point x="414" y="543"/>
      <point x="432" y="467" type="qcurve"/>
      <point x="432" y="512" type="line" smooth="yes"/>
      <point x="432" y="530"/>
      <point x="451" y="560"/>
      <point x="470" y="570" type="qcurve" smooth="yes"/>
      <point x="485" y="579"/>
      <point x="534" y="595"/>
      <point x="563" y="601" type="qcurve"/>
      <point x="566" y="596"/>
      <point x="570" y="576"/>
      <point x="570" y="566" type="qcurve" smooth="yes"/>
      <point x="570" y="554"/>
      <point x="566" y="531"/>
      <point x="563" y="524" type="qcurve"/>
      <point x="545" y="519"/>
      <point x="526" y="512"/>
      <point x="521" y="509" type="qcurve" smooth="yes"/>
      <point x="508" y="503"/>
      <point x="498" y="485"/>
    </contour>
    <contour>
      <point x="236" y="420" type="qcurve" smooth="yes"/>
      <point x="236" y="382"/>
      <point x="264" y="330"/>
      <point x="285" y="330" type="qcurve" smooth="yes"/>
      <point x="298" y="330"/>
      <point x="310" y="349"/>
      <point x="310" y="369" type="qcurve" smooth="yes"/>
      <point x="310" y="402"/>
      <point x="274" y="455"/>
      <point x="244" y="467" type="qcurve"/>
      <point x="240" y="456"/>
      <point x="236" y="432"/>
    </contour>
    <contour>
      <point x="94" y="358" type="qcurve" smooth="yes"/>
      <point x="94" y="341"/>
      <point x="108" y="323"/>
      <point x="121" y="323" type="qcurve" smooth="yes"/>
      <point x="142" y="323"/>
      <point x="170" y="376"/>
      <point x="170" y="417" type="qcurve" smooth="yes"/>
      <point x="170" y="429"/>
      <point x="166" y="452"/>
      <point x="163" y="462" type="qcurve"/>
      <point x="134" y="454"/>
      <point x="94" y="391"/>
    </contour>
    <contour>
      <point x="400" y="0" type="move" name="blwm"/>
    </contour>
    <contour>
      <point x="173" y="0" type="move" name="nukt"/>
    </contour>
    <contour>
      <point x="487" y="690" type="move" name="reph"/>
    </contour>
    <contour>
      <point x="487" y="690" type="move" name="chandrabindu"/>
    </contour>
    <contour>
      <point x="282" y="0" type="move" name="haln"/>
    </contour>
  </outline>
</glyph>
